<svg xmlns="http://www.w3.org/2000/svg" viewBox="0 0 976 349" width="976" height="349"><path d="M973,293L969,293L969,295L967,298L967,300L966,301L966,303L965,304L965,305L964,306L964,308L962,311L962,313L961,314L961,316L958,321L956,318L956,316L955,315L955,313L953,310L953,308L952,307L952,305L950,302L950,300L948,297L948,295L947,294L947,293L942,293L944,296L944,298L946,301L946,303L948,306L948,308L950,311L950,313L952,316L952,318L954,321L954,323L956,326L956,328L955,329L955,331L953,334L953,336L952,337L952,338L948,342L943,342L942,341L941,341L940,342L940,345L942,345L943,346L949,346L950,345L951,345L954,342L954,341L955,340L955,339L958,334L958,332L959,331L959,329L961,326L961,324L962,323L962,321L965,316L965,314L966,313L966,311L968,308L968,306L970,303L970,301L972,298L972,296L973,295ZM359,293L359,321L360,322L361,325L363,327L364,327L365,328L374,328L375,327L378,326L380,324L381,324L382,325L382,328L386,328L386,293L382,293L382,319L378,323L376,323L375,324L373,324L372,325L370,325L369,324L367,324L364,321L364,320L363,319L363,293ZM936,293L928,293L927,294L926,294L923,292L913,292L912,293L910,293L906,297L906,298L905,299L905,301L904,302L904,307L905,308L905,310L906,311L906,312L909,315L904,320L904,324L908,328L907,329L904,330L901,335L901,339L902,340L902,341L905,344L906,344L909,346L913,346L914,347L920,347L921,346L925,346L926,345L929,344L931,342L932,342L932,341L934,339L934,338L935,337L935,331L934,330L934,329L932,327L931,327L930,326L928,326L927,325L912,325L911,324L910,324L908,322L908,319L910,317L911,317L912,316L913,317L922,317L923,316L926,315L929,312L929,311L930,310L930,308L931,307L931,302L930,301L930,299L929,298L929,297L930,296L932,296L933,297L936,297ZM905,334L910,329L927,329L930,331L930,332L931,333L931,337L926,342L925,342L924,343L911,343L910,342L909,342L905,338ZM912,296L913,296L914,295L921,295L922,296L923,296L925,298L925,299L927,302L927,307L924,312L923,312L920,314L915,314L914,313L913,313L909,309L909,308L908,307L908,302L909,301L910,298ZM875,292L874,293L871,294L866,299L866,300L864,303L864,306L863,307L863,313L864,314L864,317L865,318L866,321L868,323L868,324L869,325L870,325L872,327L874,327L875,328L885,328L886,327L888,327L889,326L890,326L894,322L894,321L896,318L896,316L897,315L897,304L895,301L895,299L890,294L889,294L886,292ZM878,295L882,295L883,296L885,296L886,297L887,297L891,301L891,302L893,305L893,315L892,316L891,319L887,323L886,323L883,325L878,325L877,324L875,324L873,322L872,322L868,316L868,312L867,311L867,309L868,308L868,304L869,303L869,302L871,300L871,299L872,298L873,298L875,296L877,296ZM821,292L820,293L817,294L813,298L813,299L811,301L811,303L810,304L810,308L809,309L809,312L810,313L810,317L811,318L812,321L817,326L818,326L821,328L832,328L833,327L836,326L840,322L840,321L842,319L842,317L843,316L843,304L842,303L842,301L841,300L841,299L835,293L833,293L832,292ZM824,295L829,295L830,296L832,296L838,302L838,304L839,305L839,316L838,317L838,318L832,324L830,324L829,325L824,325L823,324L821,324L815,318L815,316L814,315L814,305L815,304L815,302L821,296L823,296ZM775,292L774,293L774,327L778,327L778,301L783,297L784,297L785,296L788,296L789,295L790,295L791,296L794,296L796,298L796,299L797,300L797,302L798,303L798,327L802,327L802,300L801,299L801,297L797,293L796,293L795,292L787,292L786,293L784,293L779,297L778,296L778,292ZM709,293L708,294L707,294L703,298L703,299L700,304L700,316L701,317L701,319L702,320L702,321L707,326L708,326L711,328L723,328L724,327L727,326L727,322L726,322L725,323L723,323L722,324L720,324L719,325L715,325L714,324L712,324L711,323L710,323L706,319L706,318L705,317L705,315L704,314L704,306L705,305L705,303L706,302L706,301L710,297L711,297L712,296L715,296L716,295L718,295L719,296L723,296L724,297L727,298L727,294L726,293L724,293L723,292L712,292L711,293ZM672,293L670,295L669,295L668,296L668,297L666,299L666,300L664,303L664,306L663,307L663,314L664,315L664,318L665,319L665,320L667,322L667,323L670,326L671,326L672,327L674,327L675,328L686,328L687,327L689,327L690,326L691,326L691,324L690,323L690,322L689,323L687,323L686,324L683,324L682,325L679,325L678,324L675,324L673,322L672,322L671,321L671,320L669,318L669,317L668,316L668,313L667,312L667,311L668,310L691,310L692,309L692,300L691,299L690,296L687,293L685,293L684,292L675,292L674,293ZM668,303L669,302L669,301L674,296L676,296L677,295L681,295L682,296L684,296L687,299L687,300L688,301L688,306L687,307L669,307L668,306ZM526,292L518,292L513,295L512,294L512,292L508,292L507,293L507,345L508,346L511,346L512,345L512,328L513,327L514,327L515,328L526,328L527,327L530,326L535,321L535,320L537,317L537,314L538,313L538,306L537,305L537,302L536,301L535,298L531,294L530,294L529,293L527,293ZM517,296L526,296L531,300L531,301L533,304L533,308L534,309L534,310L533,311L533,316L528,323L527,323L526,324L524,324L523,325L518,325L517,324L515,324L512,322L512,300L515,297L516,297ZM493,292L493,327L497,327L497,292ZM429,292L428,293L427,293L423,297L423,299L422,300L422,303L425,308L426,308L431,311L433,311L434,312L436,312L437,313L438,313L442,317L442,319L441,320L441,321L438,324L436,324L435,325L431,325L430,324L427,324L426,323L423,322L423,323L422,324L422,326L423,326L424,327L426,327L427,328L438,328L439,327L442,326L444,324L444,323L445,322L445,314L441,310L429,306L427,304L427,303L426,302L426,300L427,299L427,298L429,296L431,296L432,295L436,295L437,296L440,296L443,298L444,297L444,294L443,293L441,293L440,292ZM415,292L408,292L407,293L406,293L401,298L400,297L400,292L397,292L396,293L396,327L400,327L400,305L401,304L402,301L407,296L410,296L411,295L412,296L415,296L416,297L416,295L417,294L417,293L416,293ZM333,292L332,293L331,293L329,295L328,295L324,300L324,302L323,303L323,305L322,306L322,314L323,315L323,318L324,319L325,322L329,326L330,326L333,328L345,328L346,327L348,327L349,326L350,326L350,324L349,323L349,322L348,323L346,323L345,324L342,324L341,325L337,325L336,324L334,324L332,322L331,322L329,320L329,319L327,316L327,314L326,313L326,311L327,310L350,310L351,309L351,300L350,299L349,296L347,294L346,294L343,292ZM327,303L328,302L328,301L333,296L335,296L336,295L340,295L341,296L343,296L346,299L346,301L347,302L347,306L346,307L328,307L327,306ZM287,292L287,327L291,327L291,301L294,298L295,298L298,296L301,296L302,295L303,296L306,296L310,300L310,327L314,327L314,298L313,297L313,296L310,293L309,293L308,292L299,292L298,293L295,294L292,297L291,296L291,292ZM261,292L260,293L257,294L253,298L253,299L251,302L251,304L250,305L250,316L251,317L251,319L252,320L252,321L257,326L258,326L261,328L273,328L274,327L277,326L277,322L276,322L273,324L269,324L268,325L265,325L264,324L262,324L261,323L260,323L256,319L256,318L255,317L255,315L254,314L254,311L255,310L278,310L278,308L279,307L279,302L278,301L278,298L273,293L272,293L271,292ZM254,305L255,304L255,302L261,296L263,296L264,295L268,295L269,296L270,296L274,300L274,302L275,303L275,306L274,307L255,307L254,306ZM244,292L236,292L234,294L233,294L232,295L232,296L230,298L229,297L229,292L226,292L225,293L225,327L229,327L229,305L230,304L231,301L236,296L238,296L239,295L240,295L241,296L244,296L245,297L245,295L246,294L246,293L245,293ZM206,292L198,292L197,293L195,293L193,295L192,295L191,294L191,292L187,292L187,346L190,346L191,345L191,328L192,327L193,327L194,328L205,328L206,327L208,327L210,325L211,325L214,322L214,321L216,318L216,316L217,315L217,304L215,301L215,299L210,294L209,294ZM196,296L205,296L206,297L207,297L211,301L211,302L212,303L212,306L213,307L213,313L212,314L212,317L211,318L211,319L207,323L206,323L205,324L203,324L202,325L198,325L197,324L194,324L191,322L191,300L194,297L195,297ZM161,292L160,293L157,294L153,298L153,299L151,302L151,304L150,305L150,316L151,317L151,319L152,320L152,321L157,326L158,326L161,328L173,328L174,327L177,326L177,322L176,322L173,324L169,324L168,325L165,325L164,324L162,324L161,323L160,323L156,319L156,318L155,317L155,315L154,314L154,311L155,310L178,310L178,308L179,307L179,302L178,301L178,299L177,298L177,297L173,293L172,293L171,292ZM154,306L155,305L155,302L161,296L163,296L164,295L168,295L169,296L170,296L174,300L174,302L175,303L175,306L174,307L155,307ZM144,292L136,292L134,294L133,294L132,295L132,296L130,298L129,297L129,292L126,292L125,293L125,327L129,327L129,305L130,304L131,301L136,296L138,296L139,295L140,295L141,296L144,296L145,297L145,295L146,294L146,293L145,293ZM60,292L59,293L59,327L63,327L63,302L68,297L69,297L70,296L73,296L74,295L75,295L76,296L79,296L82,299L82,301L83,302L83,327L87,327L87,300L86,299L86,297L85,296L85,295L83,293L82,293L81,292L72,292L71,293L69,293L64,297L63,296L63,292ZM100,284L100,289L99,290L99,292L98,293L95,293L94,294L94,296L98,296L99,297L99,323L100,324L100,325L103,328L105,328L106,329L109,329L110,328L114,328L115,327L115,324L112,324L111,325L106,325L103,322L103,297L104,296L115,296L115,293L104,293L103,292L103,287L104,286L104,285L103,284ZM628,280L628,284L644,284L645,285L645,327L649,327L649,285L650,284L664,284L665,283L666,283L666,280ZM22,280L22,327L51,327L50,326L51,325L51,324L27,324L26,323L26,306L27,305L46,305L46,302L27,302L26,301L26,284L27,283L51,283L51,280ZM569,282L569,283L567,285L567,286L566,287L566,294L567,295L567,296L573,302L572,303L569,304L564,308L564,309L562,312L562,319L563,320L563,322L567,326L568,326L571,328L581,328L582,327L585,326L592,319L592,318L593,317L595,319L595,320L599,324L599,325L602,328L605,328L606,327L604,325L604,324L599,319L599,318L596,315L596,313L598,311L598,310L601,307L601,306L604,303L604,302L606,300L606,299L602,299L600,301L600,302L596,307L595,310L594,311L593,311L587,305L586,305L584,303L583,303L582,302L584,300L585,300L587,298L588,298L588,297L591,294L591,286L590,285L590,284L586,280L585,280L584,279L575,279L574,280L572,280L570,282ZM576,303L577,303L578,304L581,305L584,308L585,308L591,314L591,315L587,320L586,320L583,323L582,323L579,325L574,325L573,324L571,324L567,320L567,319L566,318L566,313L567,312L567,311L569,309L569,308L570,307L571,307ZM577,282L581,282L582,283L583,283L587,287L587,293L586,294L586,295L582,299L581,299L580,300L577,300L575,298L574,298L571,295L571,294L570,293L570,288L571,287L571,286L574,283L576,283ZM494,277L492,279L492,282L494,284L495,284L496,283L497,283L498,280L497,279L497,278ZM855,275L853,275L852,276L851,276L851,327L855,327ZM738,275L737,276L737,327L741,327L741,301L744,298L745,298L748,296L751,296L752,295L753,295L754,296L756,296L760,300L760,327L764,327L764,298L763,297L763,296L760,293L759,293L758,292L749,292L748,293L745,294L742,297L741,296L741,275ZM456,275L455,276L455,327L459,327L459,300L460,299L461,299L463,297L464,297L465,296L468,296L469,295L470,295L471,296L474,296L477,299L477,300L478,301L478,327L482,327L482,299L481,298L480,295L478,293L477,293L476,292L467,292L466,293L464,293L462,295L461,295L460,296L459,295L459,275ZM57,218L57,246L58,247L58,249L62,253L63,253L64,254L72,254L73,253L76,252L79,249L80,250L80,253L81,254L83,254L84,253L85,253L85,219L84,218L81,218L80,219L80,245L77,248L76,248L73,250L66,250L65,249L64,249L62,247L62,245L61,244L61,218ZM597,218L595,218L594,217L590,217L589,218L586,219L583,222L583,223L582,224L581,223L581,217L580,218L577,218L577,253L581,253L581,230L582,229L582,228L585,225L585,224L586,223L587,223L590,221L593,221L594,222L597,222L597,220L598,219ZM550,217L549,218L546,218L545,219L542,220L539,223L539,224L537,226L537,227L536,228L536,231L535,232L535,240L536,241L536,244L540,250L541,250L543,252L544,252L547,254L556,254L557,253L559,253L560,252L561,252L564,249L565,249L565,248L568,243L568,241L569,240L569,231L568,230L568,228L567,227L566,224L562,220L561,220L558,218L556,218L555,217ZM549,221L555,221L556,222L558,222L563,227L563,228L564,229L564,231L565,232L565,240L564,241L564,243L562,245L562,246L559,249L558,249L557,250L554,250L553,251L551,251L550,250L547,250L541,244L541,243L540,242L540,240L539,239L539,233L540,232L540,229L541,228L541,227L546,222L548,222ZM488,218L486,218L485,217L482,217L481,218L479,218L477,220L476,220L476,221L474,223L473,222L473,218L472,217L471,218L469,218L469,253L473,253L473,230L474,229L475,226L479,222L481,222L482,221L485,221L488,223L488,222L489,221L489,219ZM444,217L443,218L441,218L440,219L437,220L433,224L433,225L431,228L431,230L430,231L430,241L431,242L431,244L432,245L433,248L436,251L437,251L442,254L452,254L453,253L455,253L458,251L457,250L457,248L456,248L453,250L442,250L440,248L439,248L438,247L438,246L435,243L435,240L434,239L434,237L435,236L452,236L453,235L458,235L459,234L459,227L458,226L458,224L457,223L457,222L454,219L453,219L452,218L449,218L448,217ZM435,229L439,223L440,223L443,221L449,221L450,222L451,222L454,225L454,227L455,228L455,231L454,232L444,232L443,233L442,233L441,232L440,233L439,233L438,232L437,233L436,233L435,232ZM369,218L369,253L373,253L373,227L377,223L378,223L379,222L381,222L382,221L386,221L387,222L389,222L391,224L391,225L392,226L392,253L397,253L397,228L396,227L396,224L395,223L395,222L391,218L389,218L388,217L384,217L383,218L381,218L380,219L377,220L374,223L373,222L373,217L372,218ZM346,217L345,218L343,218L342,219L339,220L335,224L335,225L333,228L333,230L332,231L332,241L333,242L333,244L334,245L334,246L338,251L339,251L344,254L354,254L355,253L357,253L360,251L359,250L359,248L358,248L355,250L344,250L339,246L339,245L337,242L337,240L336,239L336,237L337,236L354,236L355,235L360,235L361,234L361,226L360,225L359,222L356,219L355,219L354,218L351,218L350,217ZM337,229L338,228L338,227L343,222L344,222L345,221L351,221L352,222L353,222L356,225L356,227L357,228L357,231L356,232L346,232L345,233L338,233L337,232ZM237,220L236,221L236,225L237,225L242,222L244,222L245,221L251,221L252,222L253,222L256,225L256,227L257,228L257,231L255,233L248,233L247,234L244,234L243,235L240,236L236,240L236,241L235,242L235,247L236,248L237,251L242,254L249,254L250,253L252,253L256,249L257,250L257,251L259,253L260,253L261,254L264,254L264,251L263,251L261,249L261,226L260,225L260,223L258,221L258,220L257,220L255,218L252,218L251,217L246,217L245,218L242,218L239,220ZM256,235L257,236L257,245L252,250L249,250L248,251L245,251L244,250L243,250L240,247L240,246L239,245L239,243L240,242L240,241L243,238L244,238L245,237L247,237L248,236L252,236L253,235ZM227,217L226,218L223,218L223,262L222,263L221,266L218,269L217,269L217,270L219,272L221,272L225,268L225,267L226,266L226,264L227,263ZM178,218L176,218L175,217L171,217L170,218L167,219L164,222L164,223L163,224L162,223L162,217L161,218L158,218L158,253L162,253L162,231L163,230L164,227L169,222L170,222L171,221L174,221L175,222L178,222L178,220L179,219ZM122,221L122,223L123,224L123,225L124,225L126,223L128,223L129,222L131,222L132,221L137,221L138,222L139,222L143,226L143,231L141,233L134,233L133,234L131,234L130,235L128,235L127,236L126,236L123,239L123,240L122,241L122,249L126,253L128,253L129,254L136,254L137,253L140,252L143,249L144,250L144,252L145,253L146,253L147,254L150,254L151,253L151,251L150,251L147,248L147,225L146,224L146,222L143,219L142,219L141,218L138,218L137,217L133,217L132,218L129,218L128,219L126,219L125,220ZM142,235L143,236L143,246L140,249L139,249L138,250L136,250L135,251L132,251L131,250L129,250L127,248L127,247L126,246L126,242L130,238L131,238L134,236L138,236L139,235ZM409,210L409,217L407,219L404,219L404,222L408,222L409,223L409,239L408,240L408,246L409,247L409,250L413,254L422,254L423,253L425,253L425,250L424,249L423,250L420,250L419,251L416,251L413,248L413,247L412,246L412,232L413,231L413,223L414,222L425,222L425,219L424,218L414,218L413,217L413,210ZM99,210L99,217L98,218L97,218L96,219L94,219L93,220L93,222L97,222L98,223L98,249L99,250L99,251L101,253L102,253L103,254L112,254L113,253L114,253L114,249L113,250L110,250L109,251L106,251L105,250L104,250L102,248L102,223L103,222L114,222L114,218L103,218L102,217L102,213L103,212L103,211L102,210ZM308,204L307,205L304,205L303,206L301,206L300,207L299,207L296,210L295,210L295,211L292,214L292,215L289,220L289,223L288,224L288,235L289,236L289,239L290,240L290,241L291,242L292,245L298,251L299,251L302,253L304,253L305,254L317,254L318,253L321,253L322,252L325,251L325,247L323,247L322,248L321,248L320,249L318,249L317,250L305,250L304,249L301,248L296,243L296,242L293,237L293,233L292,232L292,226L293,225L293,222L294,221L294,219L295,218L295,217L302,210L303,210L304,209L307,209L308,208L315,208L316,209L319,209L324,212L325,211L325,209L326,208L325,208L322,206L320,206L319,205L315,205L314,204ZM32,204L31,205L28,205L27,206L24,207L22,209L22,210L20,212L20,214L19,215L19,220L20,221L21,224L24,227L25,227L28,229L30,229L31,230L33,230L34,231L36,231L37,232L38,232L39,233L42,234L45,237L45,239L46,240L46,242L45,243L45,245L41,249L40,249L39,250L27,250L26,249L25,249L20,246L20,247L19,248L19,250L24,253L27,253L28,254L39,254L40,253L41,253L42,252L45,251L48,248L48,247L49,246L49,243L50,242L50,239L49,238L49,236L48,235L48,234L44,230L43,230L38,227L35,227L34,226L32,226L31,225L28,224L24,220L24,219L23,218L23,216L24,215L24,213L27,210L28,210L29,209L31,209L32,208L38,208L39,209L42,209L47,212L48,211L48,208L47,207L46,207L45,206L43,206L42,205L38,205L37,204ZM224,203L222,205L222,207L223,208L223,209L227,209L228,208L228,205L226,203ZM213,201L209,201L209,218L208,219L206,219L205,218L194,218L193,219L190,220L186,224L186,225L183,230L183,242L184,243L184,245L185,246L185,247L190,252L191,252L194,254L202,254L203,253L206,252L208,250L209,251L209,253L213,253ZM197,221L202,221L203,222L205,222L206,223L207,223L209,225L209,246L204,250L195,250L194,249L193,249L189,245L189,244L188,243L188,241L187,240L187,231L188,230L189,227L193,223L194,223ZM531,200L523,200L522,201L521,201L518,204L518,205L517,206L517,213L516,214L516,218L515,219L512,219L511,220L511,222L515,222L517,224L517,253L521,253L521,223L522,222L531,222L532,221L532,219L531,218L522,218L521,217L521,207L524,204L531,204L532,205L532,203L533,202L533,201L532,201ZM555,57L526,57L526,59L527,60L536,60L538,62L538,70L537,71L537,73L536,74L536,76L535,77L535,79L534,80L534,82L533,83L533,85L532,86L532,88L531,89L531,91L530,92L530,94L529,95L529,97L528,98L528,100L527,101L527,103L526,104L526,106L523,111L522,111L518,106L518,104L516,101L516,99L515,98L515,96L512,91L512,89L511,88L511,87L508,82L508,80L507,79L507,78L505,75L505,73L503,70L503,63L505,61L506,61L507,60L512,60L512,57L479,57L478,58L478,60L482,60L483,61L484,61L487,64L487,65L489,68L489,70L492,75L492,77L495,82L495,84L498,89L498,91L500,94L500,96L503,101L503,103L506,108L506,110L509,115L509,117L511,120L511,122L513,125L513,127L514,128L514,131L513,132L513,133L512,134L512,135L511,136L511,137L510,138L509,141L507,143L507,144L504,147L504,148L502,150L502,151L500,153L500,154L497,157L497,158L494,161L494,162L488,168L487,168L485,170L484,170L483,171L480,172L479,173L480,174L487,174L488,173L490,173L491,172L496,172L497,171L498,171L501,168L501,167L502,166L502,165L503,164L503,163L504,162L504,161L505,160L505,159L506,158L506,157L507,156L507,155L508,154L508,153L509,152L509,151L512,146L512,144L513,143L513,142L514,141L514,140L515,139L515,138L518,133L518,131L519,130L519,129L522,124L522,122L525,117L525,115L527,112L527,110L529,107L529,105L531,102L531,100L534,95L534,93L535,92L535,90L538,85L538,83L541,78L541,76L542,75L542,74L543,73L543,72L544,71L544,70L545,69L545,68L546,67L547,64L551,60L554,60L555,59ZM178,57L178,60L184,60L185,61L188,61L190,64L190,122L188,124L179,124L178,125L178,127L190,127L191,126L203,126L204,127L221,127L221,125L220,124L207,124L206,123L205,123L203,121L203,119L202,118L202,78L203,77L203,74L204,73L204,72L207,69L208,69L209,68L211,68L212,67L220,67L221,68L224,69L229,74L231,74L231,73L232,72L232,70L233,69L233,67L234,66L234,64L232,62L232,61L231,60L230,60L225,57L220,57L219,58L217,58L216,59L213,60L211,62L210,62L207,65L206,65L205,66L204,66L202,64L202,62L203,61L203,57L202,56L199,56L198,57ZM442,55L441,56L438,56L437,57L435,57L434,58L433,58L431,60L430,60L427,63L426,63L425,64L425,65L421,69L421,70L419,72L419,73L418,74L418,76L416,79L416,82L415,83L415,87L414,88L414,100L415,101L415,105L416,106L416,109L417,110L417,111L418,112L419,115L421,117L421,118L426,123L427,123L429,125L430,125L435,128L437,128L438,129L443,129L444,130L454,130L455,129L459,129L460,128L462,128L465,126L467,126L468,125L469,125L471,123L472,123L473,122L474,122L476,120L477,120L478,119L478,118L477,117L474,119L472,119L471,120L469,120L468,121L463,121L462,122L455,122L454,121L449,121L448,120L446,120L445,119L443,119L442,118L439,117L435,113L434,113L433,112L433,111L430,108L430,107L428,104L428,102L427,101L427,99L426,98L426,87L428,85L437,85L438,84L445,84L446,83L452,83L453,82L459,82L460,81L464,81L465,80L468,80L469,79L473,79L474,78L477,78L478,77L478,75L477,74L477,73L475,71L475,70L468,63L467,63L465,61L462,60L460,58L458,58L457,57L455,57L454,56L452,56L451,55ZM427,81L427,77L428,76L428,73L429,72L429,71L430,70L431,67L433,65L433,64L436,61L437,61L439,59L441,59L442,58L447,58L448,59L451,60L453,62L454,62L459,67L459,68L462,71L462,72L463,73L463,76L461,78L457,78L456,79L452,79L451,80L445,80L444,81L439,81L438,82L428,82ZM341,55L340,56L337,56L336,57L334,57L333,58L332,58L330,60L329,60L327,62L326,62L322,66L322,67L319,70L319,71L316,76L316,78L315,79L315,81L314,82L314,86L313,87L313,101L314,102L314,106L315,107L315,109L316,110L316,112L318,114L319,117L326,124L327,124L328,125L329,125L334,128L336,128L337,129L341,129L342,130L353,130L354,129L358,129L359,128L361,128L364,126L366,126L367,125L368,125L370,123L373,122L376,119L377,119L377,118L376,117L373,119L371,119L370,120L367,120L366,121L361,121L360,122L354,122L353,121L348,121L347,120L344,120L343,119L342,119L341,118L338,117L331,111L331,110L329,108L329,107L326,102L326,100L325,99L325,87L327,85L336,85L337,84L344,84L345,83L351,83L352,82L358,82L359,81L363,81L364,80L367,80L368,79L372,79L373,78L376,78L377,77L377,75L375,73L375,72L372,69L372,68L367,63L366,63L364,61L363,61L362,60L361,60L356,57L354,57L353,56L350,56L349,55ZM326,81L326,76L327,75L327,73L328,72L328,71L329,70L330,67L332,65L332,64L336,60L337,60L340,58L346,58L347,59L350,60L352,62L353,62L358,67L358,68L362,73L362,76L360,78L356,78L355,79L350,79L349,80L344,80L343,81L338,81L337,82L327,82ZM136,55L135,56L132,56L131,57L130,57L129,58L128,58L127,59L124,60L116,68L116,69L114,71L114,72L112,75L112,77L111,78L111,80L110,81L110,83L109,84L109,104L110,105L110,107L111,108L111,110L112,111L112,113L114,115L114,116L116,118L116,119L119,122L120,122L125,126L126,126L127,127L129,127L130,128L132,128L133,129L137,129L138,130L149,130L150,129L153,129L154,128L156,128L157,127L159,127L160,126L161,126L162,125L163,125L164,124L167,123L169,121L170,121L172,119L172,118L169,118L166,120L163,120L162,121L157,121L156,122L150,122L149,121L144,121L143,120L140,120L139,119L138,119L137,118L136,118L135,117L132,116L125,109L125,108L122,103L122,101L121,100L121,96L120,95L120,88L123,85L131,85L132,84L140,84L141,83L147,83L148,82L153,82L154,81L158,81L159,80L163,80L164,79L168,79L169,78L171,78L172,77L173,77L173,76L172,75L172,74L170,72L170,71L161,62L160,62L158,60L157,60L152,57L150,57L149,56L146,56L145,55ZM121,81L121,78L122,77L122,75L123,74L123,72L124,71L124,70L125,69L126,66L133,59L135,59L136,58L141,58L142,59L144,59L145,60L146,60L155,69L155,70L157,72L157,74L158,75L158,76L156,78L151,78L150,79L146,79L145,80L140,80L139,81L133,81L132,82L122,82ZM404,5L403,5L402,6L399,6L398,7L394,7L393,8L387,8L386,9L379,9L379,12L385,12L386,13L389,13L392,16L392,122L389,124L379,124L378,125L378,127L416,127L416,125L415,124L407,124L405,122L405,121L404,120L404,112L403,111L403,104L404,103L404,17L405,16L405,6ZM233,9L232,10L232,12L240,12L241,13L243,13L244,14L244,15L245,16L245,18L246,19L246,99L245,100L245,122L243,124L234,124L233,125L233,127L273,127L273,125L272,124L261,124L258,122L258,103L260,101L261,101L263,99L266,98L268,96L270,96L273,99L273,100L276,103L276,104L279,107L279,108L283,112L283,113L289,119L289,120L292,123L292,124L296,128L317,128L318,127L318,126L317,125L311,125L310,124L307,123L302,118L302,117L292,106L292,105L288,101L288,100L283,95L283,94L280,91L280,90L279,89L284,84L285,84L290,79L291,79L307,63L307,62L309,60L310,57L284,57L284,59L285,59L286,60L294,60L296,62L296,65L295,66L295,68L292,71L292,72L284,80L283,80L277,86L276,86L271,91L270,91L267,94L266,94L264,96L263,96L262,97L259,98L258,97L258,42L259,41L259,6L258,5L257,5L256,6L253,6L252,7L249,7L248,8L243,8L242,9ZM4,6L3,7L3,8L4,9L15,9L16,10L17,10L20,13L20,14L21,15L21,19L22,20L22,122L19,124L8,124L7,125L7,127L8,128L17,128L18,127L37,127L38,128L46,128L47,129L65,129L66,128L71,128L72,127L75,127L76,126L79,126L80,125L82,125L83,124L86,123L91,119L92,119L95,116L95,115L97,113L97,112L100,107L100,105L101,104L101,89L100,88L100,86L98,83L98,81L95,78L95,77L94,76L93,76L89,72L88,72L86,70L85,70L84,69L83,69L82,68L81,68L76,65L74,65L73,64L73,63L75,61L76,61L78,59L81,58L84,55L85,55L89,51L89,50L92,47L92,46L94,43L94,41L95,40L95,34L96,33L96,32L95,31L95,25L94,24L94,23L93,22L93,21L92,20L91,17L87,13L86,13L83,10L82,10L81,9L79,9L76,7L74,7L73,6L69,6L68,5L36,5L35,6ZM42,65L51,65L52,66L57,66L58,67L60,67L63,69L65,69L67,71L68,71L70,73L71,73L77,79L77,80L79,82L79,83L81,86L81,88L82,89L82,92L83,93L83,103L82,104L82,108L81,109L81,110L80,111L79,114L77,116L77,117L74,120L73,120L70,123L69,123L68,124L66,124L65,125L63,125L62,126L49,126L48,125L45,125L44,124L43,124L40,121L40,120L39,119L39,114L38,113L38,68L40,66L41,66ZM43,9L58,9L59,10L61,10L62,11L65,12L74,21L74,22L75,23L75,24L78,29L78,31L79,32L79,48L78,49L78,51L77,52L76,55L70,61L69,61L67,63L59,63L58,62L40,62L38,60L38,13L41,10L42,10Z" fill="#fff" fill-rule="evenodd"/></svg>