<svg xmlns="http://www.w3.org/2000/svg" viewBox="0 0 3456 936" preserveAspectRatio="xMidYMid meet">
<g fill="#fff" fill-rule="evenodd">
<path d="M 1675 543 L 1673 548 L 1673 612 L 1674 614 L 1678 617 L 1706 617 L 1715 616 L 1719 614 L 1724 609 L 1730 605 L 1734 600 L 1737 593 L 1738 589 L 1738 570 L 1734 557 L 1722 545 L 1714 542 L 1705 541 L 1679 541 Z M 1692 551 L 1706 551 L 1712 552 L 1716 554 L 1726 565 L 1727 575 L 1728 576 L 1728 581 L 1727 582 L 1726 592 L 1725 594 L 1715 604 L 1706 607 L 1691 607 L 1689 606 L 1687 603 L 1686 557 L 1687 555 Z M 2287 541 L 2284 544 L 2283 548 L 2283 611 L 2285 615 L 2288 617 L 2292 617 L 2296 612 L 2295 567 L 2298 563 L 2300 563 L 2309 575 L 2314 585 L 2318 589 L 2321 596 L 2327 603 L 2329 608 L 2338 617 L 2344 617 L 2348 614 L 2349 611 L 2349 547 L 2347 542 L 2343 540 L 2341 540 L 2339 541 L 2336 545 L 2337 583 L 2336 587 L 2332 590 L 2328 586 L 2326 581 L 2321 575 L 2318 568 L 2313 563 L 2311 557 L 2302 544 L 2300 542 L 2295 540 L 2290 540 Z M 2140 540 L 2138 541 L 2136 545 L 2135 612 L 2136 614 L 2139 616 L 2146 616 L 2150 611 L 2150 549 L 2147 541 L 2145 540 Z M 2045 540 L 2040 544 L 2040 549 L 2044 552 L 2060 551 L 2064 553 L 2067 557 L 2066 613 L 2071 617 L 2075 617 L 2079 614 L 2080 611 L 2079 555 L 2084 551 L 2095 552 L 2101 551 L 2103 550 L 2104 544 L 2103 542 L 2100 540 Z M 1987 541 L 1984 543 L 1980 549 L 1976 558 L 1974 567 L 1969 575 L 1967 581 L 1967 585 L 1963 594 L 1960 598 L 1959 604 L 1955 611 L 1955 614 L 1956 616 L 1963 617 L 1965 616 L 1968 612 L 1970 602 L 1974 599 L 1978 598 L 2004 598 L 2009 603 L 2014 613 L 2018 617 L 2023 617 L 2025 615 L 2026 612 L 2021 598 L 2017 592 L 2015 583 L 2011 576 L 2008 568 L 2007 561 L 2003 555 L 1998 543 L 1995 541 Z M 1988 558 L 1996 565 L 2000 576 L 2000 583 L 1996 588 L 1985 588 L 1981 587 L 1978 583 L 1978 579 L 1983 571 L 1985 560 Z M 1823 541 L 1818 540 L 1815 544 L 1815 593 L 1812 600 L 1807 605 L 1803 607 L 1793 607 L 1788 605 L 1785 602 L 1783 597 L 1781 587 L 1782 546 L 1780 542 L 1772 541 L 1769 545 L 1769 594 L 1772 603 L 1777 611 L 1780 614 L 1791 618 L 1803 618 L 1808 617 L 1813 615 L 1823 605 L 1825 598 L 1825 546 Z M 1596 540 L 1592 544 L 1591 548 L 1591 611 L 1592 614 L 1595 617 L 1636 617 L 1639 614 L 1639 609 L 1635 606 L 1611 607 L 1605 605 L 1602 602 L 1602 588 L 1605 585 L 1613 583 L 1629 584 L 1632 583 L 1635 580 L 1635 578 L 1633 575 L 1627 573 L 1609 574 L 1606 573 L 1603 570 L 1602 567 L 1601 557 L 1604 553 L 1610 551 L 1636 551 L 1639 548 L 1638 543 L 1635 540 Z M 1453 540 L 1449 545 L 1448 552 L 1449 555 L 1448 562 L 1448 611 L 1450 615 L 1453 617 L 1488 618 L 1493 617 L 1496 614 L 1496 610 L 1495 608 L 1490 606 L 1467 607 L 1461 602 L 1461 588 L 1465 584 L 1469 583 L 1488 584 L 1491 583 L 1493 581 L 1493 577 L 1492 575 L 1490 574 L 1467 574 L 1465 573 L 1462 570 L 1460 561 L 1460 557 L 1463 553 L 1467 551 L 1488 552 L 1495 550 L 1496 544 L 1495 542 L 1492 540 Z M 1355 540 L 1353 542 L 1352 546 L 1353 550 L 1359 558 L 1359 563 L 1361 569 L 1364 573 L 1367 580 L 1368 587 L 1371 594 L 1374 598 L 1377 610 L 1382 616 L 1384 617 L 1389 617 L 1395 612 L 1399 605 L 1400 597 L 1403 590 L 1406 586 L 1408 576 L 1411 568 L 1415 561 L 1416 555 L 1418 552 L 1420 546 L 1420 543 L 1419 541 L 1417 540 L 1413 540 L 1409 543 L 1407 547 L 1406 554 L 1400 564 L 1398 576 L 1393 585 L 1391 594 L 1388 597 L 1386 597 L 1383 594 L 1379 585 L 1374 566 L 1371 562 L 1368 553 L 1368 548 L 1366 544 L 1362 541 Z M 1315 540 L 1312 543 L 1311 546 L 1312 556 L 1312 603 L 1311 612 L 1314 616 L 1320 616 L 1324 613 L 1325 610 L 1324 545 L 1322 541 L 1320 540 Z M 1222 541 L 1219 544 L 1220 550 L 1223 551 L 1237 551 L 1242 552 L 1246 555 L 1245 611 L 1246 614 L 1249 617 L 1253 617 L 1256 613 L 1255 559 L 1256 554 L 1260 551 L 1272 552 L 1278 551 L 1282 549 L 1282 544 L 1279 541 L 1276 540 L 1229 540 Z M 1137 540 L 1135 542 L 1133 548 L 1133 593 L 1134 600 L 1137 607 L 1144 614 L 1150 617 L 1161 619 L 1170 617 L 1177 614 L 1185 605 L 1190 593 L 1190 546 L 1189 543 L 1187 541 L 1182 541 L 1179 542 L 1177 546 L 1178 586 L 1176 597 L 1173 603 L 1171 605 L 1166 607 L 1156 607 L 1150 604 L 1144 595 L 1144 546 L 1142 541 Z M 953 541 L 950 546 L 949 608 L 950 613 L 955 617 L 991 617 L 994 616 L 996 614 L 996 610 L 992 607 L 984 606 L 970 607 L 964 606 L 961 603 L 960 598 L 960 590 L 961 587 L 964 584 L 989 584 L 992 582 L 993 578 L 990 574 L 987 573 L 966 574 L 964 573 L 961 569 L 960 564 L 960 556 L 963 552 L 966 551 L 992 551 L 994 550 L 996 547 L 995 543 L 992 541 L 986 540 L 955 540 Z M 856 541 L 855 543 L 856 549 L 864 557 L 864 559 L 874 572 L 876 579 L 871 588 L 865 595 L 862 602 L 856 608 L 855 610 L 855 615 L 857 617 L 863 617 L 866 615 L 871 609 L 872 605 L 879 595 L 884 591 L 889 595 L 895 604 L 897 609 L 904 616 L 906 617 L 912 616 L 913 614 L 912 608 L 906 602 L 904 597 L 896 587 L 892 579 L 892 577 L 895 570 L 902 562 L 904 557 L 912 548 L 911 540 L 907 540 L 903 542 L 897 548 L 895 553 L 890 559 L 888 563 L 886 565 L 883 566 L 874 555 L 871 548 L 866 542 L 861 540 Z M 780 542 L 778 546 L 778 613 L 783 617 L 817 618 L 823 616 L 825 614 L 825 610 L 824 608 L 820 606 L 796 607 L 791 604 L 790 602 L 790 588 L 794 584 L 796 583 L 818 584 L 822 581 L 822 577 L 821 575 L 795 574 L 791 570 L 789 561 L 789 556 L 795 551 L 816 552 L 822 551 L 825 548 L 825 544 L 820 540 L 791 540 L 782 541 Z M 2216 537 L 2196 545 L 2185 557 L 2182 565 L 2181 572 L 2181 583 L 2183 594 L 2185 598 L 2197 611 L 2204 616 L 2213 618 L 2224 618 L 2235 616 L 2239 614 L 2254 600 L 2257 594 L 2257 589 L 2259 585 L 2259 573 L 2254 555 L 2244 545 L 2235 541 L 2229 540 L 2223 537 Z M 2217 549 L 2222 549 L 2235 553 L 2245 564 L 2247 570 L 2247 587 L 2243 595 L 2233 604 L 2227 607 L 2211 607 L 2199 597 L 2193 587 L 2192 582 L 2192 573 L 2194 566 L 2199 560 L 2201 556 L 2207 552 Z M 1895 537 L 1875 544 L 1868 551 L 1864 556 L 1860 565 L 1858 573 L 1859 586 L 1865 601 L 1879 614 L 1884 616 L 1892 618 L 1902 618 L 1914 615 L 1922 610 L 1928 604 L 1933 595 L 1928 591 L 1923 591 L 1915 600 L 1907 606 L 1904 607 L 1893 607 L 1884 602 L 1875 594 L 1872 588 L 1871 583 L 1871 572 L 1872 566 L 1883 553 L 1892 550 L 1904 550 L 1914 554 L 1917 557 L 1919 561 L 1923 564 L 1926 564 L 1928 563 L 1929 561 L 1929 554 L 1921 545 L 1916 542 L 1910 541 L 1904 538 Z M 1063 537 L 1056 539 L 1050 542 L 1047 542 L 1042 544 L 1032 554 L 1030 559 L 1030 562 L 1026 570 L 1025 578 L 1026 579 L 1026 584 L 1030 596 L 1033 602 L 1046 614 L 1051 616 L 1060 618 L 1070 618 L 1082 615 L 1093 607 L 1099 598 L 1099 594 L 1095 591 L 1091 591 L 1089 592 L 1081 601 L 1075 606 L 1072 607 L 1060 607 L 1052 603 L 1047 598 L 1046 598 L 1041 592 L 1039 586 L 1039 571 L 1040 565 L 1049 554 L 1052 552 L 1066 549 L 1078 552 L 1081 554 L 1090 564 L 1096 563 L 1097 561 L 1097 555 L 1096 553 L 1087 544 L 1072 538 Z M 3290 213 L 3287 216 L 3287 220 L 3288 222 L 3293 224 L 3305 223 L 3309 224 L 3315 230 L 3318 235 L 3319 239 L 3319 388 L 3317 394 L 3310 401 L 3303 405 L 3299 406 L 3288 406 L 3284 409 L 3284 412 L 3286 414 L 3291 415 L 3315 413 L 3443 414 L 3445 413 L 3447 410 L 3448 406 L 3448 388 L 3449 380 L 3451 374 L 3453 372 L 3455 372 L 3455 365 L 3444 365 L 3440 370 L 3439 373 L 3439 378 L 3432 390 L 3423 397 L 3418 399 L 3402 398 L 3373 398 L 3356 399 L 3352 395 L 3348 387 L 3347 378 L 3347 323 L 3348 321 L 3354 317 L 3404 317 L 3412 323 L 3414 327 L 3415 338 L 3417 341 L 3421 342 L 3424 338 L 3425 286 L 3424 282 L 3422 279 L 3417 279 L 3414 285 L 3415 289 L 3412 296 L 3405 302 L 3353 302 L 3350 301 L 3346 296 L 3346 232 L 3347 230 L 3351 226 L 3355 225 L 3411 225 L 3418 228 L 3423 233 L 3428 245 L 3430 256 L 3432 260 L 3436 261 L 3438 260 L 3439 258 L 3439 245 L 3437 235 L 3437 219 L 3436 216 L 3433 213 L 3292 212 Z M 2685 212 L 2682 213 L 2679 216 L 2680 221 L 2684 223 L 2691 223 L 2693 224 L 2697 229 L 2700 236 L 2701 242 L 2701 383 L 2699 391 L 2696 397 L 2691 401 L 2685 401 L 2681 403 L 2678 408 L 2678 410 L 2679 412 L 2682 414 L 2735 413 L 2747 415 L 2750 414 L 2753 411 L 2753 408 L 2749 404 L 2740 402 L 2733 398 L 2731 396 L 2728 389 L 2728 236 L 2731 230 L 2736 225 L 2741 223 L 2746 224 L 2747 223 L 2752 222 L 2753 216 L 2750 213 L 2747 212 Z M 2145 214 L 2144 216 L 2144 221 L 2146 223 L 2151 224 L 2152 223 L 2157 224 L 2161 227 L 2166 235 L 2166 391 L 2165 394 L 2157 402 L 2154 404 L 2148 405 L 2143 407 L 2141 409 L 2142 413 L 2147 415 L 2153 415 L 2163 413 L 2200 413 L 2210 415 L 2218 413 L 2219 410 L 2216 406 L 2209 403 L 2204 402 L 2198 397 L 2194 387 L 2194 323 L 2199 319 L 2306 319 L 2310 322 L 2311 325 L 2311 386 L 2309 395 L 2305 399 L 2298 403 L 2292 405 L 2284 405 L 2281 406 L 2278 409 L 2278 412 L 2280 414 L 2283 415 L 2290 415 L 2306 413 L 2340 413 L 2355 415 L 2363 415 L 2366 412 L 2366 409 L 2364 406 L 2362 405 L 2356 406 L 2350 404 L 2340 395 L 2337 382 L 2337 237 L 2340 229 L 2344 225 L 2348 223 L 2355 223 L 2358 221 L 2359 216 L 2356 213 L 2354 212 L 2283 213 L 2280 215 L 2279 220 L 2282 223 L 2287 224 L 2297 223 L 2303 225 L 2306 228 L 2310 239 L 2310 297 L 2309 300 L 2307 302 L 2300 304 L 2203 304 L 2196 303 L 2193 300 L 2192 297 L 2192 241 L 2193 236 L 2196 229 L 2200 225 L 2204 223 L 2210 223 L 2215 221 L 2217 219 L 2216 215 L 2213 213 L 2209 212 L 2148 212 Z M 1288 215 L 1287 219 L 1290 223 L 1293 224 L 1300 223 L 1301 224 L 1306 224 L 1312 229 L 1314 235 L 1314 394 L 1311 400 L 1307 404 L 1302 406 L 1295 405 L 1290 406 L 1288 408 L 1289 414 L 1291 415 L 1299 415 L 1315 413 L 1409 414 L 1419 413 L 1422 410 L 1423 406 L 1430 395 L 1434 385 L 1438 380 L 1441 374 L 1442 367 L 1440 365 L 1437 365 L 1433 367 L 1430 374 L 1424 381 L 1421 387 L 1410 397 L 1401 400 L 1355 400 L 1349 399 L 1344 395 L 1343 390 L 1343 236 L 1345 228 L 1348 225 L 1355 223 L 1367 224 L 1374 223 L 1377 220 L 1377 216 L 1371 212 L 1292 212 Z M 1024 214 L 1022 217 L 1022 220 L 1025 223 L 1030 224 L 1036 223 L 1039 224 L 1045 229 L 1047 234 L 1047 335 L 1048 349 L 1050 362 L 1056 377 L 1064 390 L 1077 402 L 1079 405 L 1086 409 L 1101 415 L 1130 419 L 1146 419 L 1167 415 L 1175 411 L 1178 411 L 1182 408 L 1186 407 L 1193 401 L 1196 400 L 1207 388 L 1213 379 L 1220 362 L 1222 354 L 1223 346 L 1223 239 L 1227 231 L 1233 225 L 1238 223 L 1242 224 L 1246 223 L 1249 220 L 1249 216 L 1246 213 L 1243 212 L 1182 212 L 1178 215 L 1178 220 L 1180 222 L 1194 223 L 1198 225 L 1202 230 L 1206 238 L 1207 247 L 1207 340 L 1206 346 L 1201 363 L 1198 370 L 1193 375 L 1191 380 L 1188 383 L 1182 386 L 1178 390 L 1174 392 L 1169 393 L 1163 397 L 1155 399 L 1129 399 L 1121 397 L 1114 393 L 1111 393 L 1102 389 L 1089 378 L 1084 371 L 1080 363 L 1079 353 L 1076 345 L 1075 339 L 1075 236 L 1078 232 L 1079 228 L 1083 224 L 1086 223 L 1096 223 L 1100 221 L 1099 214 L 1097 213 L 1028 212 Z M 768 214 L 768 222 L 772 224 L 779 224 L 784 228 L 787 235 L 788 245 L 788 387 L 786 395 L 779 402 L 771 406 L 765 406 L 763 408 L 763 413 L 771 415 L 783 413 L 819 413 L 830 415 L 835 415 L 838 413 L 839 411 L 838 407 L 834 404 L 828 404 L 820 399 L 816 394 L 815 388 L 815 324 L 819 319 L 824 318 L 923 319 L 925 320 L 928 324 L 928 385 L 927 393 L 921 400 L 913 404 L 909 405 L 901 405 L 897 408 L 897 413 L 900 415 L 923 413 L 959 413 L 973 415 L 979 415 L 981 414 L 982 408 L 978 405 L 972 406 L 967 404 L 958 396 L 955 385 L 955 236 L 958 228 L 962 224 L 964 223 L 971 223 L 975 220 L 976 218 L 975 215 L 973 213 L 968 212 L 902 213 L 900 214 L 900 222 L 903 223 L 915 223 L 920 225 L 925 231 L 927 236 L 927 298 L 923 303 L 916 304 L 820 304 L 818 303 L 815 299 L 815 236 L 817 228 L 822 224 L 836 222 L 838 220 L 838 215 L 834 212 L 773 212 Z M 3117 216 L 3107 223 L 3102 225 L 3096 231 L 3092 233 L 3081 245 L 3079 250 L 3073 256 L 3071 260 L 3070 266 L 3067 269 L 3064 275 L 3057 304 L 3057 323 L 3059 338 L 3065 361 L 3068 364 L 3070 368 L 3073 377 L 3078 382 L 3084 391 L 3092 398 L 3098 401 L 3103 406 L 3109 409 L 3112 409 L 3118 413 L 3123 415 L 3134 416 L 3144 419 L 3173 419 L 3186 416 L 3193 416 L 3208 412 L 3213 409 L 3226 406 L 3230 403 L 3234 402 L 3237 400 L 3240 396 L 3240 347 L 3242 343 L 3247 338 L 3255 335 L 3260 335 L 3262 333 L 3262 329 L 3260 327 L 3257 326 L 3179 326 L 3176 329 L 3176 333 L 3180 336 L 3195 335 L 3201 336 L 3207 341 L 3209 345 L 3211 358 L 3211 389 L 3210 394 L 3206 398 L 3201 400 L 3198 400 L 3186 406 L 3166 408 L 3150 407 L 3144 405 L 3137 401 L 3132 400 L 3124 393 L 3118 390 L 3105 376 L 3101 368 L 3097 363 L 3094 351 L 3091 346 L 3088 325 L 3088 301 L 3090 288 L 3095 275 L 3096 268 L 3104 254 L 3111 245 L 3123 233 L 3126 231 L 3130 230 L 3135 226 L 3143 223 L 3151 223 L 3161 220 L 3171 219 L 3177 220 L 3185 223 L 3194 224 L 3209 233 L 3214 238 L 3220 246 L 3224 254 L 3224 257 L 3228 267 L 3232 271 L 3235 272 L 3239 269 L 3240 266 L 3239 218 L 3237 216 L 3232 216 L 3229 218 L 3222 218 L 3217 216 L 3206 215 L 3202 213 L 3198 213 L 3183 208 L 3150 208 L 3136 211 L 3122 216 Z M 2810 211 L 2807 215 L 2808 220 L 2811 222 L 2821 222 L 2826 223 L 2830 225 L 2833 229 L 2835 237 L 2835 388 L 2832 395 L 2828 399 L 2823 401 L 2812 401 L 2810 402 L 2807 405 L 2807 409 L 2810 413 L 2908 413 L 2923 411 L 2931 408 L 2938 408 L 2945 406 L 2950 403 L 2953 403 L 2964 398 L 2968 394 L 2976 390 L 2981 386 L 2997 370 L 3007 354 L 3008 348 L 3015 335 L 3018 311 L 3018 301 L 3017 300 L 3017 289 L 3014 271 L 3010 265 L 3005 253 L 2992 238 L 2986 233 L 2980 230 L 2975 225 L 2971 223 L 2967 223 L 2956 216 L 2933 213 L 2919 208 L 2911 207 L 2867 207 L 2860 209 L 2831 211 L 2812 210 Z M 2869 217 L 2900 217 L 2914 218 L 2924 223 L 2938 225 L 2952 232 L 2966 245 L 2969 251 L 2974 257 L 2976 261 L 2977 266 L 2983 276 L 2987 301 L 2987 321 L 2982 346 L 2976 357 L 2975 362 L 2969 368 L 2966 374 L 2958 382 L 2954 384 L 2947 391 L 2941 393 L 2935 397 L 2928 399 L 2921 399 L 2915 401 L 2905 402 L 2877 402 L 2868 399 L 2864 395 L 2863 384 L 2863 227 L 2865 220 Z M 2408 211 L 2408 216 L 2410 219 L 2412 220 L 2420 219 L 2430 224 L 2432 226 L 2437 238 L 2437 384 L 2432 396 L 2428 400 L 2418 402 L 2412 401 L 2408 404 L 2408 410 L 2409 412 L 2411 413 L 2475 412 L 2487 414 L 2491 414 L 2493 413 L 2495 410 L 2495 405 L 2493 402 L 2491 401 L 2478 402 L 2475 401 L 2470 398 L 2465 391 L 2464 387 L 2464 336 L 2465 332 L 2470 328 L 2480 329 L 2497 328 L 2503 331 L 2518 344 L 2563 391 L 2567 393 L 2573 399 L 2576 400 L 2583 406 L 2598 413 L 2605 413 L 2611 414 L 2616 416 L 2643 417 L 2647 414 L 2648 412 L 2646 408 L 2644 407 L 2634 407 L 2629 406 L 2612 398 L 2607 393 L 2601 390 L 2576 366 L 2558 345 L 2535 323 L 2535 317 L 2540 312 L 2546 310 L 2554 303 L 2559 297 L 2567 282 L 2568 278 L 2568 256 L 2566 248 L 2561 240 L 2561 238 L 2558 233 L 2549 224 L 2544 222 L 2536 216 L 2529 214 L 2525 214 L 2521 212 L 2517 212 L 2506 208 L 2468 207 L 2442 208 L 2431 210 L 2412 208 Z M 2468 218 L 2474 217 L 2488 218 L 2504 223 L 2513 224 L 2527 236 L 2529 241 L 2532 244 L 2534 248 L 2536 257 L 2536 284 L 2535 290 L 2527 305 L 2521 311 L 2513 317 L 2507 319 L 2492 321 L 2474 321 L 2468 320 L 2464 315 L 2464 225 L 2465 221 Z M 2006 207 L 1998 209 L 1993 213 L 1982 218 L 1969 232 L 1963 247 L 1963 261 L 1967 275 L 1977 290 L 1986 299 L 1995 305 L 1999 309 L 2008 314 L 2012 318 L 2018 320 L 2023 325 L 2034 331 L 2038 335 L 2042 337 L 2054 349 L 2063 366 L 2063 377 L 2062 380 L 2055 391 L 2048 398 L 2034 406 L 2028 407 L 2012 406 L 1999 401 L 1991 396 L 1976 380 L 1969 364 L 1966 362 L 1962 362 L 1960 364 L 1960 375 L 1962 381 L 1963 394 L 1966 409 L 1969 413 L 1974 413 L 1979 409 L 1983 409 L 1989 412 L 1992 412 L 2001 416 L 2013 417 L 2034 417 L 2041 416 L 2050 413 L 2055 409 L 2059 408 L 2064 405 L 2079 389 L 2081 385 L 2081 383 L 2084 379 L 2086 372 L 2086 349 L 2085 345 L 2079 332 L 2068 319 L 2056 310 L 2051 305 L 2044 302 L 2037 296 L 2029 292 L 2026 289 L 2021 287 L 2015 281 L 2009 278 L 1999 268 L 1998 265 L 1992 259 L 1990 249 L 1991 236 L 1995 229 L 1999 225 L 2014 217 L 2028 217 L 2035 218 L 2038 221 L 2042 223 L 2044 223 L 2051 227 L 2060 236 L 2070 252 L 2073 255 L 2076 256 L 2080 253 L 2080 246 L 2078 241 L 2076 228 L 2076 220 L 2074 216 L 2072 214 L 2069 213 L 2058 215 L 2054 214 L 2045 209 L 2036 207 Z M 1804 209 L 1803 211 L 1803 220 L 1800 228 L 1799 235 L 1793 246 L 1791 253 L 1791 257 L 1785 268 L 1782 283 L 1777 291 L 1774 305 L 1768 317 L 1768 321 L 1766 328 L 1762 334 L 1759 343 L 1759 347 L 1754 357 L 1751 366 L 1751 370 L 1745 381 L 1744 387 L 1741 393 L 1733 401 L 1723 406 L 1717 407 L 1716 412 L 1718 414 L 1723 415 L 1727 415 L 1735 413 L 1758 413 L 1775 415 L 1785 415 L 1789 412 L 1788 407 L 1777 406 L 1767 403 L 1763 401 L 1760 398 L 1759 395 L 1760 388 L 1766 377 L 1766 373 L 1768 369 L 1768 365 L 1775 351 L 1776 342 L 1781 332 L 1787 327 L 1842 327 L 1844 328 L 1848 333 L 1850 342 L 1855 351 L 1857 361 L 1863 373 L 1864 380 L 1869 389 L 1870 393 L 1868 398 L 1866 400 L 1857 404 L 1848 403 L 1841 404 L 1838 408 L 1838 411 L 1841 414 L 1844 415 L 1869 413 L 1923 414 L 1925 412 L 1925 407 L 1924 405 L 1922 404 L 1915 404 L 1908 402 L 1901 395 L 1896 385 L 1896 381 L 1894 375 L 1891 371 L 1888 363 L 1887 354 L 1881 344 L 1879 337 L 1879 333 L 1873 322 L 1870 309 L 1865 300 L 1861 285 L 1856 275 L 1855 268 L 1853 263 L 1850 259 L 1846 243 L 1844 238 L 1841 234 L 1839 227 L 1839 222 L 1834 212 L 1828 207 L 1808 207 Z M 1812 248 L 1817 249 L 1821 253 L 1823 260 L 1824 269 L 1829 277 L 1832 292 L 1837 300 L 1836 305 L 1832 308 L 1797 309 L 1795 308 L 1792 304 L 1792 297 L 1797 289 L 1800 276 L 1807 260 L 1808 252 Z M 1455 208 L 1452 211 L 1451 214 L 1451 223 L 1447 244 L 1447 260 L 1448 262 L 1450 263 L 1455 262 L 1457 256 L 1457 245 L 1465 230 L 1471 226 L 1475 225 L 1516 225 L 1520 226 L 1525 232 L 1525 386 L 1520 397 L 1518 399 L 1514 401 L 1509 402 L 1496 402 L 1492 405 L 1492 410 L 1494 412 L 1497 413 L 1581 413 L 1583 412 L 1586 408 L 1586 406 L 1584 403 L 1579 401 L 1567 402 L 1560 399 L 1556 395 L 1552 387 L 1552 235 L 1553 230 L 1555 227 L 1562 225 L 1603 225 L 1611 228 L 1615 233 L 1617 242 L 1621 249 L 1622 259 L 1625 263 L 1629 263 L 1631 261 L 1632 256 L 1626 228 L 1626 212 L 1625 210 L 1622 208 L 1617 208 L 1612 213 L 1468 213 L 1461 207 L 1457 207 Z M 322 0 L 322 2 L 318 6 L 315 7 L 305 16 L 273 48 L 262 61 L 256 65 L 254 69 L 248 76 L 249 90 L 245 95 L 12 95 L 4 98 L 0 98 L 0 527 L 5 531 L 6 534 L 6 551 L 8 571 L 14 583 L 15 596 L 17 602 L 20 605 L 22 609 L 24 620 L 30 629 L 31 635 L 37 644 L 41 655 L 46 660 L 48 666 L 53 671 L 56 678 L 62 684 L 64 689 L 70 695 L 72 699 L 90 719 L 119 744 L 122 745 L 128 751 L 134 754 L 138 758 L 146 761 L 151 766 L 161 770 L 165 774 L 170 776 L 177 777 L 184 783 L 196 786 L 204 791 L 215 793 L 221 797 L 233 800 L 247 801 L 259 805 L 269 807 L 284 808 L 305 807 L 314 809 L 317 812 L 317 906 L 319 915 L 329 927 L 336 929 L 339 932 L 339 935 L 350 935 L 350 931 L 348 927 L 346 925 L 340 923 L 336 919 L 333 918 L 329 914 L 326 901 L 326 812 L 330 808 L 333 807 L 355 808 L 369 807 L 385 804 L 388 802 L 407 800 L 418 797 L 422 794 L 434 792 L 439 790 L 445 785 L 456 783 L 464 777 L 474 775 L 481 769 L 488 767 L 494 761 L 499 760 L 503 758 L 507 753 L 512 751 L 518 745 L 523 743 L 529 737 L 532 736 L 536 731 L 542 727 L 568 700 L 570 696 L 575 691 L 577 686 L 583 680 L 584 677 L 590 671 L 592 667 L 593 662 L 599 656 L 602 647 L 607 641 L 609 631 L 615 624 L 617 613 L 622 606 L 624 599 L 625 589 L 629 583 L 632 573 L 632 555 L 633 551 L 636 547 L 639 536 L 640 515 L 640 104 L 639 99 L 636 96 L 632 95 L 405 96 L 397 95 L 395 94 L 393 91 L 393 75 L 392 72 L 386 65 L 365 45 L 362 41 L 334 13 L 328 8 L 325 4 L 324 0 Z M 512 514 L 513 516 L 512 580 L 510 586 L 504 591 L 498 598 L 459 637 L 440 654 L 418 677 L 414 679 L 408 680 L 346 679 L 342 677 L 332 668 L 329 662 L 330 658 L 336 654 L 340 649 L 341 649 L 345 645 L 345 644 L 368 622 L 377 611 L 407 583 L 419 569 L 424 567 L 446 568 L 452 566 L 456 561 L 468 551 L 475 543 L 476 543 L 480 539 L 480 538 L 484 535 L 508 511 Z M 130 510 L 133 510 L 138 513 L 150 526 L 155 530 L 181 556 L 185 561 L 192 567 L 195 568 L 218 567 L 222 569 L 298 646 L 312 658 L 312 664 L 311 666 L 303 673 L 300 677 L 295 679 L 227 679 L 220 673 L 214 665 L 201 654 L 168 620 L 161 614 L 158 609 L 145 598 L 129 581 L 128 578 L 128 514 Z M 290 506 L 292 507 L 317 532 L 318 538 L 318 644 L 313 645 L 306 641 L 270 603 L 232 566 L 232 561 L 234 558 L 284 508 Z M 358 506 L 360 510 L 402 552 L 408 557 L 411 562 L 411 565 L 407 568 L 390 585 L 390 586 L 386 590 L 385 590 L 381 595 L 340 635 L 334 643 L 330 644 L 327 641 L 327 532 L 328 529 L 331 525 L 352 505 Z M 329 481 L 332 481 L 335 483 L 336 486 L 343 492 L 344 497 L 345 498 L 345 500 L 342 503 L 339 504 L 335 510 L 332 512 L 330 512 L 327 509 L 327 483 Z M 314 481 L 316 481 L 318 483 L 319 486 L 317 496 L 318 510 L 316 512 L 314 512 L 307 509 L 298 500 L 298 495 L 301 490 L 309 483 Z M 371 391 L 385 407 L 401 423 L 405 425 L 408 428 L 410 432 L 410 436 L 406 440 L 402 442 L 397 448 L 358 487 L 354 488 L 349 486 L 345 482 L 345 481 L 329 466 L 327 459 L 327 428 L 328 426 L 332 423 L 335 419 L 362 392 L 364 391 Z M 274 389 L 277 389 L 281 392 L 286 398 L 315 426 L 317 429 L 318 435 L 318 459 L 313 467 L 298 480 L 292 487 L 285 487 L 283 486 L 279 480 L 261 462 L 260 462 L 246 447 L 233 436 L 232 433 L 234 427 L 247 416 L 271 391 Z M 122 369 L 124 369 L 128 374 L 144 389 L 185 431 L 190 434 L 192 437 L 195 439 L 219 438 L 225 441 L 246 461 L 246 462 L 250 465 L 279 495 L 280 500 L 277 503 L 273 505 L 255 525 L 245 535 L 233 545 L 231 549 L 228 552 L 223 554 L 219 554 L 121 455 L 119 451 L 118 373 Z M 523 366 L 527 371 L 526 447 L 524 452 L 439 536 L 427 550 L 422 553 L 418 553 L 416 552 L 394 531 L 375 510 L 363 500 L 363 497 L 366 491 L 373 486 L 417 440 L 425 437 L 445 438 L 453 434 L 516 370 Z M 330 352 L 333 352 L 335 354 L 336 357 L 344 366 L 359 379 L 359 381 L 355 387 L 332 410 L 330 410 L 327 406 L 327 355 Z M 313 352 L 316 352 L 318 354 L 317 390 L 318 408 L 315 410 L 307 406 L 304 402 L 288 387 L 284 379 L 296 368 L 307 355 Z M 107 225 L 113 225 L 115 226 L 182 293 L 182 294 L 186 297 L 190 302 L 198 309 L 198 310 L 203 314 L 246 357 L 246 358 L 262 373 L 267 380 L 264 385 L 232 416 L 228 422 L 226 423 L 220 423 L 216 419 L 216 418 L 210 413 L 208 409 L 191 392 L 179 382 L 135 336 L 123 326 L 113 316 L 111 312 L 106 307 L 105 227 Z M 532 223 L 536 228 L 536 306 L 535 309 L 533 312 L 517 327 L 513 332 L 471 373 L 423 422 L 421 423 L 416 423 L 409 415 L 377 384 L 376 379 L 380 375 L 381 375 L 397 358 L 412 344 L 495 261 L 504 250 L 526 229 L 527 226 L 530 223 Z M 522 215 L 523 217 L 522 221 L 513 228 L 508 234 L 481 261 L 480 261 L 477 265 L 372 370 L 370 371 L 364 371 L 329 336 L 327 331 L 327 324 L 329 317 L 334 313 L 404 242 L 424 224 L 429 218 L 435 214 L 438 213 L 519 213 Z M 121 215 L 123 213 L 204 213 L 211 215 L 216 221 L 317 321 L 318 323 L 318 331 L 317 333 L 314 335 L 283 367 L 275 373 L 265 364 L 247 344 L 235 334 L 229 327 L 228 327 L 224 323 L 224 322 L 216 315 L 207 304 L 191 288 L 179 278 L 173 271 L 172 271 L 168 267 L 168 266 L 160 259 L 151 248 L 135 232 L 126 224 L 123 223 L 120 219 Z M 627 105 L 631 110 L 631 515 L 630 539 L 626 550 L 623 566 L 623 574 L 622 579 L 616 591 L 615 595 L 615 602 L 608 613 L 606 624 L 601 629 L 597 642 L 592 647 L 590 654 L 583 662 L 581 668 L 576 672 L 574 677 L 569 682 L 566 688 L 550 706 L 543 712 L 541 716 L 536 719 L 520 734 L 514 737 L 509 742 L 504 744 L 500 749 L 493 752 L 486 758 L 478 761 L 474 766 L 463 768 L 455 774 L 444 776 L 435 782 L 422 784 L 410 790 L 397 791 L 381 794 L 369 798 L 332 800 L 330 799 L 327 795 L 328 694 L 327 682 L 330 679 L 334 679 L 337 682 L 338 685 L 340 687 L 343 688 L 419 688 L 430 679 L 432 675 L 454 655 L 504 605 L 504 604 L 520 589 L 522 580 L 521 514 L 522 492 L 521 490 L 515 489 L 452 553 L 447 557 L 443 559 L 438 558 L 436 555 L 441 547 L 484 504 L 485 504 L 492 496 L 527 463 L 534 455 L 536 450 L 536 425 L 535 414 L 536 348 L 535 345 L 533 343 L 531 343 L 509 366 L 500 374 L 477 398 L 465 408 L 451 423 L 447 425 L 443 429 L 437 428 L 437 421 L 438 419 L 444 414 L 457 400 L 475 384 L 480 378 L 484 375 L 517 342 L 522 336 L 523 336 L 529 329 L 534 326 L 544 315 L 545 311 L 545 211 L 544 207 L 541 204 L 437 203 L 428 206 L 424 209 L 421 214 L 417 216 L 404 230 L 392 240 L 374 260 L 343 289 L 333 301 L 331 302 L 329 301 L 327 298 L 327 276 L 329 272 L 392 210 L 393 207 L 393 111 L 394 108 L 398 105 Z M 18 105 L 244 105 L 248 110 L 249 117 L 248 203 L 249 206 L 254 214 L 317 276 L 318 280 L 318 300 L 316 302 L 309 300 L 289 279 L 221 213 L 215 206 L 208 203 L 99 205 L 97 210 L 96 226 L 96 308 L 98 313 L 101 317 L 162 378 L 165 380 L 167 383 L 205 419 L 207 426 L 206 428 L 200 429 L 190 422 L 184 415 L 169 401 L 116 347 L 110 348 L 109 451 L 112 459 L 125 471 L 200 546 L 206 553 L 206 558 L 198 559 L 196 558 L 184 547 L 184 546 L 157 519 L 156 519 L 141 503 L 123 487 L 120 490 L 121 508 L 120 584 L 122 588 L 220 687 L 225 689 L 297 690 L 303 688 L 314 680 L 318 681 L 319 683 L 318 795 L 317 797 L 314 799 L 273 799 L 268 798 L 258 794 L 253 794 L 249 792 L 229 790 L 217 784 L 205 782 L 201 778 L 194 775 L 187 774 L 179 768 L 169 766 L 162 760 L 156 758 L 151 753 L 140 748 L 137 744 L 134 743 L 131 741 L 128 737 L 122 734 L 105 719 L 81 694 L 78 689 L 73 684 L 71 680 L 66 675 L 64 670 L 56 660 L 55 656 L 49 649 L 47 641 L 41 634 L 40 627 L 33 616 L 31 606 L 25 595 L 23 580 L 18 569 L 16 557 L 16 546 L 13 529 L 13 518 L 11 509 L 11 113 L 13 108 Z M 333 25 L 337 31 L 368 61 L 376 70 L 382 75 L 383 77 L 384 94 L 383 204 L 367 221 L 353 234 L 337 252 L 329 256 L 327 253 L 327 28 L 328 26 Z M 313 25 L 316 25 L 318 27 L 317 238 L 318 254 L 316 256 L 313 256 L 306 253 L 303 248 L 273 219 L 259 203 L 257 193 L 257 84 L 259 78 L 261 75 L 307 28 Z"/>
</g></svg>