<svg xmlns="http://www.w3.org/2000/svg" viewBox="0 0 1690 390" width="1690" height="390"><path d="M1504,237L1504,238L1506,240L1508,240L1510,243L1510,245L1511,246L1511,248L1512,249L1512,251L1513,252L1513,254L1514,255L1514,257L1515,258L1515,260L1516,261L1516,263L1517,264L1517,266L1518,267L1518,269L1519,270L1519,272L1520,273L1520,275L1521,276L1521,278L1522,279L1522,280L1526,280L1526,279L1527,278L1527,276L1528,275L1528,273L1529,272L1529,270L1530,269L1530,267L1531,266L1531,264L1532,263L1532,261L1533,260L1533,258L1534,257L1534,255L1535,254L1535,251L1536,250L1537,250L1538,251L1538,255L1539,256L1539,258L1540,259L1540,261L1541,262L1541,264L1542,265L1542,267L1544,270L1544,272L1545,273L1545,275L1546,276L1546,278L1547,279L1547,280L1551,280L1551,279L1552,278L1552,276L1553,275L1553,273L1554,272L1554,270L1555,269L1555,266L1556,265L1556,263L1557,262L1557,260L1558,259L1558,257L1559,256L1559,254L1560,253L1560,251L1561,250L1561,248L1562,247L1562,244L1563,243L1563,242L1565,240L1568,239L1568,237L1554,237L1554,238L1556,240L1558,240L1559,241L1559,244L1558,245L1558,247L1557,248L1557,251L1556,252L1556,255L1555,256L1555,259L1554,260L1554,262L1553,263L1553,267L1552,268L1552,271L1551,272L1549,270L1549,266L1548,265L1548,263L1547,262L1547,260L1545,257L1545,254L1543,251L1543,249L1542,248L1542,246L1541,245L1541,243L1540,242L1540,240L1539,239L1539,237L1538,237L1536,239L1536,242L1534,245L1534,248L1533,249L1533,251L1532,252L1532,254L1531,255L1531,257L1530,258L1530,260L1529,261L1529,263L1528,264L1528,266L1527,267L1527,271L1526,272L1524,269L1524,265L1523,264L1523,262L1522,261L1522,258L1521,257L1521,255L1520,254L1520,251L1519,250L1519,248L1518,247L1518,244L1517,243L1517,241L1518,240L1521,239L1522,238L1522,237ZM792,237L791,238L792,239L795,240L797,242L797,244L799,247L799,249L802,254L802,256L805,261L805,263L808,268L808,270L810,273L810,275L811,276L811,277L812,278L813,281L814,280L816,280L816,279L818,276L818,274L820,271L820,269L822,266L822,264L823,263L823,261L825,258L825,256L827,253L827,251L829,248L829,246L830,245L831,242L833,240L836,239L836,237L823,237L822,238L824,240L826,240L827,241L827,243L825,246L825,248L824,249L824,251L823,252L823,254L822,255L822,257L821,258L821,260L820,261L820,262L819,263L819,265L818,266L818,269L816,272L814,269L814,267L813,266L813,264L812,263L812,261L810,258L810,256L808,253L808,251L807,250L807,248L806,247L806,246L805,245L805,243L804,242L804,241L805,240L807,240L809,238L809,237ZM1616,238L1615,239L1615,241L1620,241L1621,242L1621,275L1619,277L1617,277L1616,278L1615,278L1615,280L1634,280L1634,278L1633,277L1630,277L1627,275L1627,250L1628,249L1629,246L1632,243L1644,243L1644,240L1643,239L1643,237L1642,236L1638,236L1637,237L1634,238L1630,242L1630,243L1629,244L1628,244L1627,243L1627,236L1624,236L1623,237L1620,237L1619,238ZM1587,236L1586,237L1583,237L1582,238L1581,238L1579,240L1578,240L1577,241L1577,242L1575,244L1575,245L1573,248L1573,251L1572,252L1572,264L1573,265L1573,268L1574,269L1575,272L1579,277L1580,277L1585,280L1589,280L1590,281L1594,281L1595,280L1598,280L1599,279L1601,279L1603,277L1604,277L1606,275L1606,274L1605,273L1603,275L1601,275L1600,276L1590,276L1589,275L1586,274L1583,271L1583,270L1581,268L1581,266L1580,265L1580,262L1579,261L1579,259L1580,258L1606,258L1607,257L1607,247L1606,246L1606,244L1602,239L1601,239L1598,237L1596,237L1595,236ZM1581,245L1586,240L1587,240L1588,239L1594,239L1599,244L1599,247L1600,248L1600,254L1599,255L1581,255L1580,254L1580,248L1581,247ZM1480,236L1479,237L1476,237L1475,238L1474,238L1472,240L1471,240L1470,241L1470,242L1468,244L1468,245L1466,248L1466,251L1465,252L1465,264L1466,265L1466,268L1467,269L1468,272L1472,277L1473,277L1478,280L1482,280L1483,281L1487,281L1488,280L1491,280L1492,279L1494,279L1499,275L1499,273L1498,273L1496,275L1494,275L1493,276L1483,276L1482,275L1479,274L1476,271L1476,270L1474,268L1474,266L1473,265L1473,261L1472,260L1472,259L1473,258L1499,258L1500,257L1500,247L1499,246L1499,244L1495,239L1494,239L1491,237L1489,237L1488,236ZM1474,245L1479,240L1480,240L1481,239L1487,239L1492,244L1492,247L1493,248L1493,254L1492,255L1474,255L1473,254L1473,249L1474,248ZM1324,236L1323,237L1321,237L1320,238L1317,239L1313,243L1313,244L1311,247L1311,249L1310,250L1310,256L1309,257L1309,260L1310,261L1310,266L1311,267L1311,269L1312,270L1313,273L1318,278L1319,278L1320,279L1322,279L1323,280L1327,280L1328,281L1332,281L1333,280L1336,280L1337,279L1340,278L1344,274L1343,273L1342,274L1341,274L1340,275L1338,275L1337,276L1328,276L1327,275L1325,275L1319,269L1319,268L1318,267L1318,265L1317,264L1317,259L1318,258L1344,258L1344,255L1345,254L1345,251L1344,250L1344,246L1343,245L1343,243L1338,238L1337,238L1336,237L1334,237L1333,236ZM1319,244L1323,240L1324,240L1325,239L1331,239L1332,240L1333,240L1335,242L1335,243L1337,246L1337,254L1336,255L1318,255L1317,254L1317,251L1318,250L1318,247L1319,246ZM1112,239L1112,240L1113,241L1117,241L1118,242L1118,275L1116,277L1114,277L1113,278L1112,278L1112,279L1113,280L1129,280L1130,279L1130,278L1127,277L1125,275L1125,249L1126,248L1126,247L1131,242L1132,242L1133,241L1135,241L1136,240L1142,242L1144,244L1144,245L1145,246L1145,249L1146,250L1146,275L1144,277L1141,278L1141,280L1158,280L1159,279L1157,277L1155,277L1153,275L1153,249L1152,248L1152,244L1151,243L1150,240L1148,238L1147,238L1146,237L1144,237L1143,236L1136,236L1135,237L1133,237L1132,238L1131,238L1128,241L1128,242L1126,244L1125,243L1125,236L1121,236L1120,237L1117,237L1116,238L1114,238L1113,239ZM1061,239L1061,240L1062,241L1066,241L1067,242L1067,250L1066,251L1066,252L1067,253L1066,254L1066,268L1067,269L1067,272L1068,273L1068,275L1072,279L1073,279L1074,280L1077,280L1078,281L1081,281L1082,280L1085,280L1086,279L1087,279L1091,275L1091,274L1093,271L1094,272L1094,278L1095,279L1095,280L1100,280L1101,279L1103,279L1106,277L1106,276L1102,276L1100,274L1101,273L1101,237L1100,236L1097,236L1096,237L1093,237L1092,238L1090,238L1089,239L1088,239L1088,241L1093,241L1094,242L1094,266L1093,267L1092,270L1086,276L1079,276L1074,271L1074,268L1073,267L1073,242L1074,241L1074,236L1070,236L1069,237L1066,237L1065,238L1063,238L1062,239ZM989,239L989,240L990,241L994,241L995,242L995,275L993,277L991,277L989,279L990,280L1007,280L1007,278L1006,277L1004,277L1002,275L1002,250L1003,249L1004,246L1008,242L1009,242L1010,241L1012,241L1013,240L1015,240L1016,241L1018,241L1022,245L1022,247L1023,248L1023,276L1022,277L1020,277L1019,278L1018,278L1018,279L1019,280L1036,280L1036,278L1035,278L1034,277L1032,277L1030,275L1030,246L1029,245L1029,243L1028,242L1028,241L1025,238L1024,238L1023,237L1021,237L1020,236L1013,236L1012,237L1010,237L1004,243L1004,244L1003,245L1002,244L1002,236L999,236L998,237L995,237L994,238L991,238L990,239ZM958,236L957,237L955,237L954,238L952,238L950,240L949,240L945,245L945,246L944,247L944,249L943,250L943,254L942,255L942,262L943,263L943,267L944,268L944,270L945,271L945,272L947,274L947,275L949,277L950,277L955,280L959,280L960,281L964,281L965,280L969,280L970,279L972,279L974,277L975,277L978,274L978,273L980,271L980,270L981,269L981,266L982,265L982,251L981,250L981,248L980,247L980,245L978,243L978,242L973,238L971,238L970,237L968,237L967,236ZM959,239L965,239L966,240L967,240L972,245L972,246L974,249L974,252L975,253L975,264L974,265L974,269L973,270L972,273L968,277L966,277L965,278L961,278L960,277L957,276L952,271L952,270L951,269L951,267L950,266L950,250L951,249L951,247L952,246L952,245L957,240L958,240ZM918,238L917,239L916,239L916,240L917,241L921,241L922,242L922,275L920,277L918,277L917,278L916,278L916,279L917,280L934,280L934,278L933,277L931,277L929,275L929,236L925,236L924,237L921,237L920,238ZM844,239L843,240L843,244L844,245L844,248L845,249L845,250L847,250L847,248L849,245L849,243L850,242L850,241L852,239L859,239L860,240L861,240L863,242L863,243L864,244L864,246L865,247L865,255L864,256L861,256L860,257L852,257L851,258L848,258L847,259L844,260L841,263L841,264L840,265L840,273L841,274L842,277L844,279L845,279L846,280L849,280L850,281L853,281L854,280L856,280L857,279L860,278L864,272L865,273L865,278L866,279L866,280L871,280L872,279L874,279L875,278L877,278L877,276L873,276L871,274L871,243L870,242L870,241L866,237L864,237L863,236L853,236L852,237L849,237L848,238L846,238L845,239ZM863,258L865,260L865,268L864,269L864,270L862,272L862,273L861,274L860,274L858,276L852,276L848,272L848,271L847,270L847,266L848,265L849,262L854,259L862,259ZM763,236L762,237L760,237L759,238L756,239L751,244L751,245L750,246L750,248L749,249L749,251L748,252L748,264L749,265L749,268L750,269L750,271L751,272L751,273L756,278L757,278L758,279L760,279L761,280L764,280L765,281L770,281L771,280L775,280L776,279L779,278L785,272L785,271L786,270L786,268L787,267L787,264L788,263L788,254L787,253L787,249L786,248L786,246L785,245L785,244L780,239L779,239L776,237L774,237L773,236ZM764,239L771,239L772,240L773,240L777,244L777,245L780,250L780,256L781,257L781,260L780,261L780,267L779,268L779,270L778,271L778,272L773,277L772,277L771,278L767,278L766,277L764,277L763,276L762,276L759,273L759,272L757,270L757,268L756,267L756,263L755,262L755,254L756,253L756,249L757,248L757,246L758,245L758,244L762,240L763,240ZM695,239L695,240L696,241L700,241L701,242L701,275L699,277L697,277L696,278L695,278L695,279L696,280L713,280L713,278L712,277L710,277L708,275L708,250L709,249L710,246L714,242L715,242L716,241L718,241L719,240L720,240L721,241L724,241L727,244L727,245L729,248L729,275L727,277L724,278L724,279L725,280L741,280L742,279L742,278L741,278L740,277L738,277L736,275L736,247L735,246L735,243L734,242L734,241L731,238L730,238L729,237L727,237L726,236L719,236L718,237L716,237L710,243L710,244L709,245L708,244L708,236L704,236L703,237L700,237L699,238L697,238L696,239ZM644,239L644,241L648,241L650,243L649,244L649,276L648,277L646,277L645,278L644,278L644,280L661,280L661,278L660,277L658,277L656,275L656,251L657,250L657,248L660,245L660,244L661,243L662,243L664,241L667,241L668,240L669,240L670,241L672,241L676,245L676,246L677,247L677,251L678,252L678,275L676,277L674,277L672,279L673,280L690,280L690,278L689,277L687,277L684,275L685,274L685,252L684,251L684,245L683,244L683,242L681,240L681,239L680,239L678,237L676,237L675,236L667,236L666,237L663,238L659,242L659,243L658,244L657,244L656,243L656,236L653,236L652,237L649,237L648,238L645,238ZM560,238L559,239L559,241L563,241L564,242L564,276L563,277L561,277L560,278L559,278L559,280L578,280L578,278L577,278L576,277L574,277L571,275L571,250L572,249L573,246L576,243L588,243L588,240L587,239L586,236L582,236L581,237L578,238L574,242L574,243L572,245L571,244L571,236L567,236L566,237L563,237L562,238ZM508,239L508,241L512,241L513,242L513,270L514,271L514,274L518,279L519,279L520,280L524,280L525,281L528,281L529,280L531,280L532,279L535,278L537,276L538,273L540,271L541,272L541,280L547,280L548,279L550,279L553,277L553,276L548,276L547,275L547,236L544,236L543,237L540,237L539,238L536,238L535,239L535,241L539,241L540,242L540,267L539,268L538,271L534,275L533,275L532,276L526,276L525,275L524,275L522,273L522,272L520,269L520,236L517,236L516,237L513,237L512,238L509,238ZM1394,226L1393,227L1392,227L1390,229L1390,235L1388,237L1386,237L1385,238L1384,238L1383,239L1383,241L1389,241L1390,242L1390,273L1391,274L1391,276L1395,280L1398,280L1399,281L1402,281L1403,280L1406,280L1407,279L1410,278L1412,276L1412,275L1411,275L1410,276L1401,276L1398,273L1398,272L1397,271L1397,242L1398,241L1410,241L1410,237L1398,237L1397,236L1397,226ZM1362,226L1361,227L1358,228L1358,235L1356,237L1354,237L1353,238L1352,238L1351,239L1351,241L1357,241L1358,242L1358,274L1361,279L1362,279L1363,280L1365,280L1366,281L1370,281L1371,280L1373,280L1374,279L1376,279L1378,277L1379,277L1380,276L1379,275L1378,276L1369,276L1366,273L1366,272L1365,271L1365,242L1366,241L1377,241L1378,240L1378,237L1366,237L1365,236L1365,226ZM892,226L890,228L889,228L889,235L888,236L887,236L886,237L883,238L881,240L882,241L888,241L889,242L889,275L890,276L890,277L892,279L893,279L894,280L896,280L897,281L900,281L901,280L904,280L905,279L908,278L910,276L910,275L909,276L900,276L896,272L896,269L895,268L895,242L896,241L908,241L909,240L909,237L897,237L895,235L895,227L896,226ZM1230,220L1230,221L1231,222L1233,222L1234,223L1236,223L1238,226L1238,229L1239,230L1239,233L1240,234L1240,237L1241,238L1241,240L1242,241L1242,244L1243,245L1243,248L1244,249L1244,251L1245,252L1245,255L1246,256L1246,259L1247,260L1247,263L1248,264L1248,266L1249,267L1249,270L1250,271L1250,274L1251,275L1251,277L1252,278L1252,280L1256,280L1258,277L1258,274L1259,273L1259,271L1260,270L1260,268L1261,267L1261,264L1262,263L1262,261L1263,260L1263,258L1264,257L1264,254L1265,253L1265,251L1266,250L1266,247L1267,246L1267,244L1268,243L1268,241L1269,240L1269,238L1271,235L1272,236L1272,237L1273,238L1273,240L1274,241L1274,244L1275,245L1275,247L1276,248L1276,251L1277,252L1277,254L1278,255L1278,257L1279,258L1279,261L1280,262L1280,264L1281,265L1281,267L1282,268L1282,271L1283,272L1283,274L1284,275L1284,278L1285,279L1285,280L1290,280L1290,278L1291,277L1291,274L1292,273L1292,270L1293,269L1293,266L1294,265L1294,263L1295,262L1295,258L1296,257L1296,255L1297,254L1297,251L1298,250L1298,247L1299,246L1299,243L1300,242L1300,239L1301,238L1301,235L1302,234L1302,231L1303,230L1303,228L1304,227L1304,225L1306,223L1307,223L1308,222L1310,222L1310,220L1292,220L1292,221L1293,222L1295,222L1296,223L1298,223L1299,224L1299,228L1298,229L1298,232L1297,233L1297,237L1296,238L1296,241L1295,242L1295,245L1294,246L1294,250L1293,251L1293,254L1292,255L1292,258L1291,259L1291,264L1290,265L1290,268L1289,269L1287,266L1287,262L1286,261L1286,258L1285,257L1285,255L1284,254L1284,252L1283,251L1283,248L1282,247L1282,245L1281,244L1281,242L1280,241L1280,239L1279,238L1279,236L1278,235L1278,233L1277,232L1277,230L1276,229L1276,227L1275,226L1275,224L1274,223L1274,220L1271,220L1271,221L1270,222L1270,225L1269,226L1269,228L1268,229L1268,232L1267,233L1267,235L1266,236L1266,238L1265,239L1265,242L1264,243L1264,245L1263,246L1263,248L1262,249L1262,252L1261,253L1261,255L1260,256L1260,258L1259,259L1259,262L1258,263L1258,266L1256,269L1255,268L1255,265L1254,264L1254,260L1253,259L1253,255L1252,254L1252,252L1251,251L1251,247L1250,246L1250,243L1249,242L1249,239L1248,238L1248,235L1247,234L1247,231L1246,230L1246,227L1245,226L1245,224L1246,223L1248,223L1249,222L1251,222L1252,221L1252,220ZM615,220L615,222L617,222L618,223L620,223L622,225L622,275L621,276L619,276L618,277L616,277L615,278L615,280L635,280L636,279L636,278L635,277L633,277L632,276L630,276L629,275L629,224L630,223L633,223L634,222L635,222L636,221L636,220ZM537,219L537,220L536,221L536,224L538,226L543,226L544,225L544,220L541,218L539,218L538,219ZM518,219L517,220L517,225L518,226L523,226L525,224L525,221L524,220L524,219L523,219L522,218L520,218L519,219ZM922,218L920,221L920,223L921,224L921,225L922,226L928,226L930,224L930,219L927,217L924,217L923,218ZM1648,217L1645,219L1646,220L1651,220L1652,221L1652,277L1655,279L1658,279L1659,280L1673,280L1674,279L1677,279L1683,275L1683,274L1685,272L1685,271L1687,268L1687,266L1688,265L1688,249L1687,248L1687,246L1686,245L1685,242L1681,238L1680,238L1679,237L1677,237L1676,236L1669,236L1668,237L1665,238L1662,241L1662,242L1660,244L1659,243L1659,215L1656,215L1655,216L1652,216L1651,217ZM1671,240L1672,241L1674,241L1679,246L1679,247L1680,248L1680,251L1681,252L1681,264L1680,265L1680,268L1679,269L1678,272L1674,276L1673,276L1672,277L1670,277L1669,278L1667,278L1666,277L1662,277L1659,275L1659,250L1660,249L1661,246L1666,241L1669,241L1670,240ZM1416,217L1415,218L1414,218L1414,219L1415,220L1420,220L1421,221L1421,277L1424,279L1427,279L1428,280L1442,280L1443,279L1445,279L1446,278L1449,277L1453,273L1453,272L1455,270L1455,268L1456,267L1456,264L1457,263L1457,252L1456,251L1456,247L1455,246L1455,244L1453,242L1453,241L1450,238L1449,238L1448,237L1446,237L1445,236L1438,236L1437,237L1434,238L1430,242L1430,243L1429,244L1428,243L1428,215L1425,215L1424,216L1420,216L1419,217ZM1439,240L1440,241L1442,241L1443,242L1444,242L1447,245L1447,246L1448,247L1448,249L1449,250L1449,254L1450,255L1450,260L1449,261L1449,266L1448,267L1448,269L1447,270L1447,271L1445,273L1445,274L1444,275L1443,275L1441,277L1438,277L1437,278L1435,278L1434,277L1431,277L1428,275L1428,249L1429,248L1430,245L1433,242ZM1200,215L1198,215L1197,216L1193,216L1192,217L1189,217L1188,218L1187,218L1187,220L1192,220L1194,222L1194,236L1193,237L1189,237L1188,236L1181,236L1180,237L1177,237L1176,238L1173,239L1168,244L1168,245L1166,248L1166,250L1165,251L1165,267L1166,268L1166,271L1167,272L1168,275L1171,278L1172,278L1175,280L1178,280L1179,281L1183,281L1184,280L1186,280L1188,278L1189,278L1190,277L1190,276L1192,274L1192,273L1193,272L1194,273L1194,280L1200,280L1201,279L1203,279L1204,278L1206,278L1206,276L1202,276L1201,275L1201,216ZM1182,239L1189,239L1190,240L1192,240L1194,242L1194,266L1193,267L1193,269L1192,270L1192,271L1188,275L1187,275L1186,276L1180,276L1179,275L1178,275L1175,272L1175,271L1173,268L1173,265L1172,264L1172,253L1173,252L1173,249L1174,248L1174,246L1180,240L1181,240ZM510,216L507,216L506,215L499,215L498,216L495,216L494,217L492,217L488,221L488,222L487,223L487,225L486,226L486,235L484,237L482,237L479,239L479,241L485,241L486,242L486,275L484,277L482,277L481,278L480,278L480,280L500,280L501,279L501,278L499,278L498,277L495,277L492,275L492,274L493,273L493,243L492,242L493,241L502,241L503,240L502,239L502,237L494,237L492,235L492,234L493,233L493,232L492,231L493,230L493,224L494,223L494,222L498,218L502,218L505,221L505,223L507,225L508,225L509,224L509,220L510,219ZM937,149L937,153L938,154L960,154L961,153L961,149ZM644,149L644,153L645,154L667,154L668,153L668,149ZM597,133L597,134L599,136L600,136L604,140L604,141L607,144L607,145L613,152L614,155L611,158L611,159L608,162L608,163L605,166L605,167L602,170L602,171L601,172L600,172L599,173L596,174L596,175L610,175L610,174L609,173L608,173L606,171L608,169L608,168L611,165L611,164L613,162L613,161L615,159L615,158L616,157L619,160L619,161L621,163L621,164L623,166L623,167L625,169L625,170L626,171L624,173L623,173L622,174L622,175L639,175L639,174L638,173L636,173L633,170L633,169L630,166L630,165L627,162L627,161L625,159L625,158L622,155L622,154L621,153L622,150L626,146L626,145L629,142L629,141L632,138L632,137L633,136L635,136L636,135L637,135L637,133L624,133L624,135L625,135L628,137L627,138L627,139L625,141L625,142L622,145L622,146L620,148L620,149L619,150L616,147L616,146L614,144L614,143L610,138L610,137L612,135L613,135L614,134L614,133ZM1180,135L1180,136L1181,136L1182,137L1185,137L1186,138L1186,148L1185,149L1185,163L1186,164L1186,168L1187,169L1187,171L1191,175L1192,175L1193,176L1203,176L1204,175L1207,174L1210,171L1210,170L1212,167L1213,168L1213,175L1214,176L1218,176L1219,175L1221,175L1222,174L1224,174L1225,173L1225,172L1222,172L1220,170L1220,132L1215,132L1214,133L1211,133L1210,134L1208,134L1207,135L1207,136L1208,136L1209,137L1212,137L1213,138L1213,161L1212,162L1212,164L1210,166L1210,167L1206,171L1205,171L1204,172L1199,172L1198,171L1197,171L1194,168L1194,167L1193,166L1193,164L1192,163L1192,132L1188,132L1187,133L1184,133L1183,134L1181,134ZM1125,134L1124,135L1124,136L1125,136L1126,137L1128,137L1129,138L1129,171L1127,173L1125,173L1124,174L1124,175L1142,175L1142,174L1141,173L1139,173L1136,171L1136,132L1132,132L1131,133L1128,133L1127,134ZM1064,132L1063,133L1061,133L1059,135L1058,135L1057,136L1057,137L1055,140L1055,145L1056,146L1056,148L1061,153L1062,153L1064,155L1067,156L1069,158L1070,158L1072,160L1073,160L1074,161L1074,162L1076,164L1076,168L1071,173L1068,173L1067,174L1066,174L1065,173L1063,173L1061,171L1061,170L1060,169L1060,167L1059,166L1058,163L1057,163L1056,164L1056,166L1055,167L1055,171L1054,172L1054,174L1055,174L1056,175L1059,175L1060,176L1073,176L1074,175L1077,174L1079,172L1080,172L1080,171L1082,169L1082,167L1083,166L1083,162L1082,161L1081,158L1077,154L1076,154L1074,152L1073,152L1072,151L1069,150L1067,148L1066,148L1063,145L1063,144L1062,143L1062,139L1066,135L1073,135L1075,137L1075,138L1076,139L1076,141L1077,142L1077,144L1079,144L1079,143L1080,142L1080,138L1081,137L1081,134L1080,133L1077,133L1076,132ZM1001,135L1001,136L1003,136L1004,137L1006,137L1007,138L1007,171L1006,172L1005,172L1004,173L1001,174L1001,175L1019,175L1019,174L1018,173L1017,173L1014,171L1014,145L1015,144L1015,143L1021,137L1023,137L1024,136L1028,136L1029,137L1030,137L1033,140L1033,141L1034,142L1034,144L1035,145L1035,171L1033,173L1031,173L1030,174L1030,175L1048,175L1048,174L1047,173L1045,173L1042,171L1042,143L1041,142L1041,139L1040,138L1040,137L1036,133L1034,133L1033,132L1024,132L1023,133L1020,134L1017,137L1017,138L1015,140L1014,139L1014,132L1009,132L1008,133L1005,133L1004,134L1002,134ZM866,132L865,133L863,133L862,134L861,134L855,140L855,141L853,144L853,147L852,148L852,160L853,161L853,164L854,165L854,166L855,167L856,170L859,173L860,173L865,176L877,176L878,175L881,174L884,171L884,169L883,169L881,171L879,171L878,172L872,172L871,171L869,171L868,170L867,170L862,165L862,164L860,161L860,157L859,156L859,150L860,149L860,145L861,144L861,142L862,141L862,140L866,136L867,136L868,135L875,135L877,137L877,138L878,139L878,141L879,142L879,144L880,145L880,146L882,146L882,145L883,144L883,141L884,140L884,134L883,134L882,133L879,133L878,132ZM799,135L799,136L801,136L802,137L804,137L805,138L805,171L803,173L801,173L800,174L799,174L799,175L817,175L817,174L816,173L815,173L812,171L812,146L813,145L814,142L818,138L819,138L822,136L826,136L827,137L828,137L832,141L832,143L833,144L833,171L831,173L829,173L828,174L828,175L846,175L846,174L845,173L843,173L840,171L840,142L839,141L839,139L836,134L835,134L834,133L832,133L831,132L822,132L821,133L820,133L818,135L817,135L816,136L816,137L813,140L812,139L812,132L808,132L807,133L804,133L803,134L801,134L800,135ZM760,135L759,136L759,137L760,138L760,142L761,143L761,146L763,146L763,145L765,142L765,140L768,135L776,135L777,136L778,136L781,141L781,151L780,152L774,152L773,153L768,153L767,154L764,154L763,155L760,156L758,158L758,159L757,160L757,162L756,163L756,167L757,168L757,170L758,171L758,172L761,175L762,175L763,176L772,176L773,175L776,174L778,172L779,169L780,168L781,168L782,169L782,176L787,176L788,175L790,175L791,174L793,174L794,173L794,172L791,172L788,170L788,140L787,139L786,136L783,133L781,133L780,132L768,132L767,133L765,133L764,134L762,134L761,135ZM780,154L781,155L781,165L780,166L780,167L776,171L775,171L774,172L769,172L768,171L767,171L765,169L765,168L764,167L764,160L768,156L769,156L770,155L775,155L776,154ZM559,135L558,136L558,139L559,140L559,143L560,144L560,146L562,146L562,145L563,144L563,142L565,139L565,137L567,135L575,135L579,139L579,140L580,141L580,151L579,152L573,152L572,153L566,153L565,154L563,154L562,155L559,156L557,158L557,159L555,162L555,168L556,169L556,171L560,175L561,175L562,176L571,176L572,175L575,174L577,172L577,171L579,168L580,168L581,169L580,170L580,171L581,172L581,176L586,176L587,175L589,175L590,174L593,173L593,172L590,172L589,171L588,171L586,168L586,157L587,156L587,141L586,140L586,138L585,137L585,136L583,134L582,134L579,132L567,132L566,133L563,133L562,134ZM579,154L580,155L580,165L578,167L578,168L576,170L575,170L572,172L568,172L567,171L566,171L563,168L563,165L562,164L563,163L563,160L564,159L564,158L569,155L573,155L574,154ZM1242,121L1237,124L1237,131L1234,133L1232,133L1230,135L1230,136L1235,136L1237,138L1237,170L1238,171L1239,174L1240,174L1242,176L1251,176L1252,175L1254,175L1255,174L1256,174L1258,172L1258,171L1257,171L1256,172L1248,172L1244,168L1244,164L1243,163L1243,138L1245,136L1257,136L1256,135L1256,133L1245,133L1243,131L1243,121ZM1160,121L1159,122L1156,123L1154,125L1155,126L1155,130L1152,133L1150,133L1149,134L1148,134L1148,136L1153,136L1155,138L1155,165L1154,166L1155,167L1155,170L1156,171L1156,173L1158,175L1159,175L1160,176L1169,176L1170,175L1172,175L1173,174L1174,174L1176,172L1176,171L1175,171L1174,172L1166,172L1162,168L1162,166L1161,165L1161,138L1163,136L1174,136L1174,133L1162,133L1161,132L1161,121ZM1102,121L1101,122L1099,122L1097,124L1096,124L1096,131L1095,132L1094,132L1093,133L1090,134L1089,135L1089,136L1095,136L1096,137L1096,168L1097,169L1097,172L1100,175L1101,175L1102,176L1111,176L1112,175L1113,175L1114,174L1117,173L1118,172L1118,171L1116,171L1115,172L1108,172L1107,171L1106,171L1104,169L1104,167L1103,166L1103,137L1104,136L1116,136L1116,133L1104,133L1103,132L1103,121ZM973,115L972,116L972,117L973,118L975,118L976,119L978,119L979,120L979,171L978,172L976,172L975,173L973,173L972,174L972,175L994,175L994,174L993,173L991,173L990,172L988,172L986,170L986,121L988,119L989,119L990,118L992,118L994,116L993,115L992,116L991,116L990,115L989,116L988,116L987,115L986,116L985,116L984,115L983,116L981,116L980,115L979,115L978,116L976,116L975,115L974,116ZM678,115L678,117L679,118L680,118L681,119L683,119L685,121L685,170L683,172L681,172L680,173L678,173L678,175L700,175L700,173L697,173L696,172L693,172L692,171L692,153L693,152L704,152L705,151L709,151L710,150L711,150L712,149L715,148L720,143L720,142L722,139L722,127L721,126L720,123L715,118L714,118L711,116L708,116L707,115L688,115L687,116L684,116L683,115L682,116L681,115ZM694,118L701,118L702,119L705,119L706,120L707,120L709,122L710,122L711,123L711,124L713,126L713,128L714,129L714,137L713,138L713,140L712,141L712,142L708,146L707,146L704,148L693,148L692,147L692,120ZM479,116L479,117L480,118L482,118L483,119L485,119L486,120L486,171L485,172L483,172L482,173L480,173L479,174L479,175L496,175L496,173L494,173L493,172L491,172L490,171L490,128L489,127L489,122L490,121L491,121L492,122L492,125L493,126L493,128L494,129L494,131L495,132L495,134L497,137L497,139L498,140L498,142L500,145L500,147L501,148L501,150L503,153L503,155L505,158L505,160L506,161L506,163L508,166L508,168L510,171L510,173L511,174L511,175L513,175L513,174L515,171L515,169L517,166L517,164L519,161L519,159L521,156L521,154L523,151L523,149L525,146L525,144L527,141L527,139L528,138L528,137L529,136L529,134L531,131L531,128L532,127L532,125L534,122L535,123L535,170L533,172L532,172L531,173L528,173L528,175L548,175L548,174L547,173L545,173L544,172L543,172L541,170L541,121L543,119L544,119L545,118L547,118L548,117L548,116L547,115L546,116L545,115L544,115L543,116L538,116L537,115L536,116L535,116L534,115L533,116L533,117L531,120L531,122L529,125L529,127L528,128L528,130L526,133L526,135L524,138L524,140L522,143L522,145L520,148L520,150L518,153L518,155L517,156L517,158L516,159L516,162L515,163L514,163L513,162L513,160L512,159L512,157L511,156L511,154L509,151L509,149L508,148L508,146L506,143L506,141L505,140L505,138L503,135L503,133L502,132L502,130L501,129L501,128L500,127L500,125L498,122L498,120L497,119L497,117L495,115L494,116L493,115L492,116L490,116L489,115L488,116L481,116L480,115ZM1128,115L1128,120L1130,122L1135,122L1136,121L1137,121L1137,120L1138,119L1138,116L1137,115L1137,114L1136,114L1135,113L1131,113ZM890,114L890,115L891,116L896,116L897,117L897,171L894,173L892,173L891,174L891,175L909,175L909,174L908,173L906,173L904,171L904,155L905,154L906,154L909,157L909,158L911,160L911,161L913,163L913,164L915,166L915,167L918,170L918,171L922,175L933,175L933,174L932,174L927,171L927,170L922,165L922,164L919,161L919,160L916,157L916,156L912,152L912,151L916,147L916,146L922,140L922,139L925,136L927,136L928,135L930,135L931,134L931,133L915,133L915,134L917,136L918,136L919,137L918,138L918,139L914,143L914,144L909,149L909,150L907,152L906,152L905,153L904,152L904,111L900,111L899,112L895,112L894,113L892,113L891,114ZM739,111L738,112L734,112L733,113L731,113L730,114L730,115L731,116L735,116L736,117L736,171L735,172L734,172L733,173L730,174L730,175L749,175L749,174L748,174L743,171L743,111ZM185,0L184,1L173,1L172,2L166,2L165,3L160,3L159,4L155,4L154,5L150,5L149,6L146,6L145,7L143,7L142,8L139,8L138,9L136,9L135,10L133,10L132,11L130,11L129,12L127,12L126,13L125,13L124,14L122,14L119,16L117,16L116,17L115,17L114,18L113,18L112,19L111,19L110,20L109,20L108,21L107,21L106,22L105,22L104,23L101,24L99,26L98,26L97,27L94,28L92,30L91,30L89,32L88,32L86,34L85,34L83,36L82,36L79,39L78,39L75,42L74,42L69,47L68,47L47,68L47,69L39,78L39,79L37,81L37,82L34,85L34,86L32,88L31,91L27,96L27,97L26,98L26,99L25,100L25,101L24,102L24,103L23,104L23,105L22,106L22,107L21,108L21,109L20,110L20,111L19,112L19,113L16,118L16,120L14,123L14,125L12,128L12,130L11,131L11,133L10,134L10,136L9,137L9,139L8,140L8,143L7,144L7,147L6,148L6,151L5,152L5,156L4,157L4,161L3,162L3,168L2,169L2,177L1,178L1,211L2,212L2,220L3,221L3,227L4,228L4,232L5,233L5,237L6,238L6,241L7,242L7,245L8,246L8,248L9,249L9,252L10,253L10,255L11,256L11,258L12,259L12,261L14,264L14,266L16,269L16,271L17,272L17,273L18,274L18,275L19,276L19,277L20,278L20,279L21,280L21,281L22,282L22,283L23,284L23,285L24,286L24,287L25,288L26,291L28,293L29,296L31,298L31,299L33,301L33,302L35,304L35,305L37,307L37,308L43,315L43,316L48,321L48,322L67,341L68,341L73,346L74,346L78,350L79,350L81,352L82,352L85,355L86,355L88,357L91,358L96,362L97,362L98,363L99,363L100,364L103,365L105,367L106,367L107,368L108,368L113,371L115,371L116,372L117,372L120,374L122,374L125,376L127,376L128,377L130,377L131,378L133,378L134,379L136,379L137,380L139,380L140,381L142,381L143,382L146,382L147,383L150,383L151,384L155,384L156,385L160,385L161,386L166,386L167,387L174,387L175,388L188,388L189,389L201,389L202,388L215,388L216,387L223,387L224,386L229,386L230,385L234,385L235,384L239,384L240,383L243,383L244,382L247,382L248,381L250,381L251,380L253,380L254,379L257,379L260,377L262,377L263,376L265,376L266,375L267,375L268,374L270,374L275,371L277,371L278,370L279,370L280,369L281,369L282,368L283,368L284,367L287,366L289,364L290,364L291,363L294,362L296,360L299,359L301,357L302,357L304,355L305,355L308,352L309,352L311,350L312,350L316,346L317,346L321,342L322,342L342,322L342,321L347,316L347,315L353,308L353,307L355,305L355,304L358,301L359,298L361,296L362,293L364,291L364,290L365,289L365,288L366,287L366,286L367,285L367,284L368,283L368,282L369,281L369,280L370,279L370,278L371,277L371,276L374,271L374,269L376,266L376,264L378,261L378,259L379,258L379,256L380,255L380,253L381,252L381,250L382,249L382,246L383,245L383,242L384,241L384,238L385,237L385,233L386,232L386,228L387,227L387,221L388,220L388,213L389,212L389,177L388,176L388,168L387,167L387,162L386,161L386,156L385,155L385,152L384,151L384,147L383,146L383,144L382,143L382,140L381,139L381,137L380,136L380,134L379,133L379,131L378,130L378,128L376,125L376,123L375,122L375,120L374,119L374,118L373,117L373,116L370,111L370,109L369,108L368,105L366,103L366,102L365,101L365,100L364,99L363,96L361,94L360,91L358,89L358,88L356,86L356,85L354,83L354,82L348,75L348,74L343,69L343,68L321,46L320,46L316,42L315,42L308,36L307,36L305,34L304,34L302,32L301,32L296,28L293,27L291,25L290,25L289,24L288,24L287,23L286,23L285,22L284,22L283,21L282,21L281,20L280,20L279,19L278,19L273,16L271,16L270,15L269,15L268,14L266,14L263,12L261,12L260,11L258,11L257,10L255,10L254,9L252,9L251,8L249,8L248,7L245,7L244,6L241,6L240,5L236,5L235,4L231,4L230,3L225,3L224,2L218,2L217,1L206,1L205,0ZM169,6L177,6L178,5L212,5L213,6L221,6L222,7L227,7L228,8L233,8L234,9L237,9L238,10L241,10L242,11L245,11L246,12L248,12L249,13L252,13L253,14L255,14L256,15L258,15L261,17L263,17L264,18L265,18L266,19L268,19L271,21L273,21L274,22L275,22L276,23L277,23L278,24L279,24L280,25L283,26L285,28L286,28L287,29L288,29L289,30L292,31L294,33L295,33L297,35L298,35L300,37L301,37L303,39L304,39L306,41L307,41L310,44L311,44L316,49L317,49L325,57L326,57L333,64L333,65L341,73L341,74L345,78L345,79L351,86L351,87L355,92L356,95L360,100L360,101L361,102L361,103L362,104L362,105L363,106L363,107L364,108L364,109L365,110L365,111L366,112L366,113L367,114L367,115L370,120L370,122L372,125L372,127L373,128L373,130L375,133L375,135L376,136L376,138L377,139L377,142L378,143L378,145L379,146L379,149L380,150L380,154L381,155L381,158L382,159L382,164L383,165L383,171L384,172L384,183L385,184L385,204L384,205L384,216L383,217L383,224L382,225L382,229L381,230L381,234L380,235L380,239L379,240L379,242L378,243L378,246L377,247L377,249L376,250L376,253L375,254L375,256L373,259L373,261L372,262L372,264L369,269L369,271L368,272L368,273L367,274L367,275L366,276L366,277L365,278L365,279L364,280L364,281L363,282L363,283L362,284L361,287L359,289L358,292L356,294L356,295L354,297L354,298L352,300L352,301L350,303L350,304L348,306L348,307L344,311L344,312L340,316L340,317L318,339L317,339L312,344L311,344L308,347L307,347L305,349L304,349L301,352L300,352L298,354L295,355L290,359L289,359L288,360L287,360L286,361L285,361L284,362L283,362L282,363L281,363L280,364L279,364L278,365L277,365L276,366L275,366L270,369L268,369L263,372L261,372L260,373L258,373L257,374L255,374L254,375L252,375L251,376L249,376L248,377L245,377L244,378L241,378L240,379L237,379L236,380L233,380L232,381L227,381L226,382L221,382L220,383L211,383L210,384L180,384L179,383L170,383L169,382L164,382L163,381L159,381L158,380L154,380L153,379L150,379L149,378L146,378L145,377L142,377L141,376L139,376L138,375L136,375L135,374L133,374L132,373L130,373L129,372L128,372L127,371L125,371L122,369L120,369L119,368L118,368L117,367L116,367L115,366L114,366L113,365L112,365L111,364L110,364L109,363L108,363L107,362L106,362L105,361L102,360L100,358L99,358L98,357L97,357L95,355L92,354L90,352L89,352L86,349L85,349L83,347L82,347L78,343L77,343L73,339L72,339L51,318L51,317L46,312L46,311L40,304L40,303L38,301L38,300L36,298L36,297L32,292L32,291L31,290L30,287L28,285L28,284L27,283L27,282L26,281L26,280L25,279L25,278L24,277L24,276L21,271L21,269L19,266L19,264L18,263L18,262L17,261L17,259L15,256L15,253L14,252L14,250L13,249L13,247L12,246L12,243L11,242L11,239L10,238L10,235L9,234L9,230L8,229L8,224L7,223L7,217L6,216L6,205L5,204L5,185L6,184L6,173L7,172L7,166L8,165L8,160L9,159L9,155L10,154L10,150L11,149L11,146L12,145L12,143L13,142L13,139L14,138L14,136L15,135L15,133L17,130L17,128L18,127L18,125L20,122L20,120L21,119L21,118L22,117L22,116L23,115L23,114L24,113L24,112L25,111L25,110L26,109L26,108L27,107L27,106L28,105L29,102L31,100L31,99L32,98L32,97L34,95L35,92L37,90L37,89L39,87L39,86L42,83L42,82L45,79L45,78L49,74L49,73L59,63L59,62L63,58L64,58L73,49L74,49L78,45L79,45L86,39L87,39L89,37L90,37L95,33L98,32L100,30L101,30L102,29L105,28L107,26L108,26L109,25L110,25L115,22L117,22L122,19L124,19L125,18L126,18L127,17L129,17L132,15L134,15L135,14L137,14L138,13L141,13L142,12L144,12L145,11L148,11L149,10L152,10L153,9L157,9L158,8L162,8L163,7L168,7ZM133,35L132,36L131,36L130,37L128,37L127,38L126,38L125,39L124,39L123,40L122,40L121,41L120,41L119,42L118,42L117,43L116,43L115,44L114,44L113,45L110,46L108,48L105,49L103,51L102,51L100,53L99,53L97,55L96,55L89,61L88,61L83,66L82,66L67,81L67,82L62,87L62,88L58,92L58,93L56,95L56,96L53,99L52,102L48,107L48,108L47,109L46,112L44,114L44,115L43,116L43,117L40,122L40,124L39,125L39,126L37,129L37,131L35,134L35,136L34,137L34,139L33,140L33,142L32,143L32,145L31,146L31,149L30,150L30,152L29,153L29,157L28,158L28,161L27,162L27,167L26,168L26,174L25,175L25,191L24,192L24,197L25,198L25,213L26,214L26,220L27,221L27,226L28,227L28,230L29,231L29,235L30,236L30,238L31,239L31,242L32,243L32,245L33,246L33,248L34,249L34,251L35,252L35,254L36,255L36,256L37,257L37,259L38,260L38,261L39,262L39,263L42,268L42,270L43,271L43,272L45,274L45,275L46,276L46,277L47,278L48,281L50,283L50,284L52,286L52,287L54,289L54,290L56,292L56,293L58,295L58,296L61,299L61,300L66,305L66,306L86,326L87,326L91,330L92,330L99,336L100,336L102,338L103,338L105,340L106,340L107,341L109,341L110,338L109,337L109,336L107,334L106,334L105,333L105,332L101,328L101,327L99,325L99,324L98,323L98,322L95,317L95,315L94,314L94,312L93,311L93,308L92,307L92,296L93,295L93,291L94,290L94,288L95,287L96,284L100,279L101,279L103,281L104,281L108,285L109,285L121,297L121,298L122,299L122,301L123,302L123,310L122,311L122,313L121,314L121,315L111,325L111,326L110,327L110,332L111,333L111,334L114,337L116,337L117,338L118,338L120,340L120,342L123,345L123,346L124,346L126,348L127,348L132,351L134,351L135,352L138,352L140,354L141,354L143,356L144,356L145,357L161,357L162,358L166,358L167,359L170,359L171,358L173,358L174,357L223,357L224,358L239,358L240,359L249,359L250,360L257,360L257,356L255,354L255,353L252,348L252,346L251,345L251,343L250,342L250,339L249,338L249,332L248,331L249,330L248,329L248,327L249,326L248,325L249,324L249,318L250,317L250,313L251,312L251,311L253,309L254,309L255,310L270,310L271,309L276,309L277,308L279,308L280,307L282,307L283,306L285,306L286,305L287,305L288,304L291,303L293,301L294,301L297,298L297,297L299,295L299,293L300,292L300,290L301,289L301,281L300,280L300,271L301,270L301,269L307,263L307,259L305,257L307,255L307,254L308,253L308,251L307,250L307,249L305,246L305,244L304,243L304,237L307,234L308,234L309,233L311,233L312,232L314,232L315,231L317,231L318,230L320,230L321,229L322,229L325,226L325,225L326,224L326,219L325,218L325,216L324,215L324,213L323,212L323,211L322,210L322,208L321,207L321,206L320,205L320,204L319,203L319,202L318,201L318,200L317,199L317,198L316,197L316,196L313,191L313,189L311,186L311,184L310,183L310,182L309,181L309,179L307,176L307,164L306,163L306,161L304,158L304,156L303,155L303,154L300,149L300,147L299,146L299,145L302,142L302,135L301,134L301,132L300,131L300,130L301,129L302,126L301,125L300,122L299,121L298,121L296,119L296,118L293,115L293,114L290,111L290,110L288,108L288,107L290,105L290,104L291,103L291,101L292,100L291,99L291,97L290,96L290,95L287,92L282,92L281,93L279,93L274,97L270,97L269,96L269,95L271,93L271,92L272,91L272,89L258,89L257,90L255,90L252,87L252,86L253,85L253,83L254,82L254,78L255,77L255,76L257,74L257,73L263,67L263,66L270,59L270,58L278,50L278,49L280,47L280,46L279,46L278,45L275,44L273,42L272,42L271,41L269,41L268,40L267,40L262,37L260,37L257,35L255,35L252,33L250,33L249,32L247,32L246,31L243,31L242,30L240,30L239,29L236,29L235,28L231,28L230,27L226,27L225,26L220,26L219,25L211,25L210,24L180,24L179,25L171,25L170,26L165,26L164,27L160,27L159,28L155,28L154,29L151,29L150,30L148,30L147,31L145,31L144,32L142,32L141,33L139,33L138,34L136,34L135,35ZM131,326L134,326L135,327L135,345L136,346L134,348L132,348L131,347L129,347L126,344L126,343L125,342L125,340L124,339L124,330L126,328L127,328L128,327L130,327ZM117,326L120,326L121,327L121,330L120,331L120,334L119,335L116,335L113,332L113,329L115,327L116,327ZM192,325L194,328L194,335L193,336L193,337L190,340L184,340L183,339L182,339L177,334L177,332L176,331L176,328L178,326L182,326L183,327L187,327L190,325ZM141,325L149,325L151,327L151,328L150,329L150,335L149,336L149,343L150,344L150,347L151,348L151,350L153,352L153,353L151,355L147,355L146,354L145,354L141,350L141,349L140,348L140,346L139,345L139,329L140,328L140,326ZM157,325L158,325L159,324L166,324L167,325L169,325L171,327L171,331L172,332L172,334L173,335L174,338L176,340L177,340L179,342L180,342L183,344L183,348L182,349L182,350L178,354L177,354L174,356L163,356L162,355L161,355L158,352L158,351L155,346L155,344L154,343L154,331L155,330L155,328ZM190,268L191,268L208,285L209,285L215,291L216,291L219,294L220,294L225,298L228,299L230,301L231,301L232,302L233,302L234,303L235,303L240,306L242,306L245,308L248,308L250,310L250,311L249,312L249,315L248,316L248,318L247,319L247,322L246,323L246,328L245,329L245,338L246,339L246,343L247,344L247,346L248,347L248,349L249,350L249,352L250,353L250,356L249,357L248,356L244,356L243,355L239,355L238,354L229,354L228,353L222,353L221,354L208,354L207,355L206,354L205,355L204,355L203,354L202,355L188,355L187,356L186,356L185,355L185,350L186,349L186,345L189,343L192,343L193,342L194,342L197,339L197,338L198,337L198,335L199,334L199,330L198,329L198,326L195,321L195,319L197,316L197,312L198,311L198,307L197,306L197,301L196,300L196,296L195,295L195,291L194,290L194,288L193,287L193,284L192,283L192,281L191,280L191,277L190,276L190,273L189,272L189,269ZM133,254L133,255L132,256L131,259L129,261L129,262L124,267L123,267L122,268L121,268L116,271L113,271L112,272L103,272L102,271L102,269L103,268L103,267L104,266L105,263L111,257L112,257L115,255L117,255L118,254L121,254L122,253L132,253ZM97,234L98,234L102,239L102,240L104,243L104,246L105,247L105,256L104,257L104,259L103,260L103,262L102,263L101,266L98,269L97,269L96,268L96,267L93,264L93,263L92,262L92,260L91,259L91,257L90,256L90,249L91,248L91,245L93,242L93,240L94,239L95,236ZM143,232L142,233L142,234L140,236L140,237L133,244L132,244L130,246L128,246L125,248L121,248L120,249L112,249L111,248L111,247L112,246L113,243L115,241L115,240L120,235L121,235L123,233L125,233L126,232L128,232L129,231L132,231L133,230L141,230ZM119,220L120,219L121,220L121,221L123,223L123,224L121,227L122,227L123,228L129,228L130,229L129,230L127,230L126,231L124,231L119,234L118,233L118,230L119,229ZM201,211L202,212L202,219L201,220L200,223L197,226L195,226L194,225L194,220L195,219L195,218L197,216L197,215L199,213L199,212L200,211ZM112,209L114,211L114,212L116,215L116,217L117,218L117,222L118,223L118,225L117,226L117,231L116,232L116,234L115,235L115,236L114,237L113,240L109,244L105,238L105,236L104,235L104,233L103,232L103,226L104,225L104,222L105,221L105,219L106,218L106,217L107,216L108,213L110,211L110,210L111,209ZM155,209L155,211L154,212L154,213L152,215L152,216L148,220L147,220L145,222L144,222L139,225L137,225L136,226L130,226L129,227L127,227L124,225L124,224L126,222L126,221L128,219L128,218L133,213L134,213L139,210L141,210L142,209L146,209L147,208L154,208ZM131,211L131,210L132,209L132,207L134,205L135,205L136,206L143,206L144,207L143,208L140,208L139,209L137,209L132,212ZM134,195L136,198L136,201L134,203L133,202L133,200L134,199L133,198L133,196ZM168,188L167,189L166,192L159,199L158,199L156,201L155,201L154,202L152,202L151,203L149,203L148,204L141,204L140,205L139,204L137,204L136,203L138,201L138,200L141,197L141,196L144,193L145,193L148,190L149,190L150,189L152,189L153,188L155,188L156,187L167,187ZM128,186L129,187L129,188L131,191L131,193L132,194L132,203L131,204L131,207L130,208L130,210L129,211L129,212L127,214L127,215L123,220L121,218L121,217L120,216L120,214L119,213L119,211L118,210L118,202L119,201L119,199L120,198L120,196L121,195L122,192L124,190L124,189L127,186ZM232,186L234,188L234,189L236,192L236,195L237,196L237,199L236,200L236,202L235,203L234,206L230,210L230,211L226,215L226,216L225,217L225,228L224,229L223,232L221,234L218,234L217,233L214,233L213,232L212,232L208,227L206,227L205,226L204,227L203,227L202,226L202,225L204,223L204,220L205,219L205,210L204,209L204,206L205,205L205,203L206,202L206,201L209,198L209,197L213,193L213,192L220,185L222,185L224,187L224,188L225,189L225,194L224,195L223,198L213,208L213,209L212,210L212,214L214,212L215,212L216,209L221,204L222,204L228,198L228,197L229,196L229,193L228,192L228,188L230,186ZM150,176L151,175L153,178L153,180L151,183L152,183L153,184L159,184L160,185L159,186L154,186L153,187L151,187L148,189L147,188L147,186L148,185L148,183L149,182L149,179L150,178ZM185,166L185,168L184,169L184,170L177,177L176,177L171,180L169,180L168,181L166,181L165,182L155,182L154,181L155,180L155,179L165,169L166,169L169,167L171,167L172,166L175,166L176,165L184,165ZM145,164L146,165L146,166L147,167L147,169L148,170L148,180L147,181L147,184L146,185L146,186L145,187L144,190L138,197L136,195L136,193L135,192L135,188L134,187L134,182L135,181L135,178L136,177L136,176L137,175L137,174L138,173L139,170ZM169,155L170,156L170,159L171,160L171,161L170,162L173,162L174,163L174,164L173,165L170,165L169,166L167,166L166,167L165,167L164,166L165,165L165,164L166,163L166,161L167,160L167,156L168,155ZM253,155L253,158L252,159L252,161L251,162L251,164L249,166L249,167L245,171L244,171L241,173L237,173L236,174L235,177L232,180L226,180L223,177L223,176L229,170L229,169L230,168L231,168L238,161L239,161L244,157L245,157L246,156L249,155L251,153ZM296,145L298,148L298,150L300,153L300,155L302,158L302,160L303,161L303,162L304,163L304,165L306,168L306,179L307,180L307,182L308,183L308,185L309,186L309,187L312,192L312,194L315,199L315,201L316,202L316,203L317,204L317,205L318,206L318,207L319,208L319,209L322,214L322,216L324,219L324,225L320,229L319,229L316,231L314,231L313,232L311,232L310,233L308,233L307,234L306,234L303,237L303,244L305,247L305,248L303,250L301,250L300,251L299,251L292,258L291,258L290,259L284,259L285,260L289,260L290,259L291,259L293,257L294,257L299,252L300,252L301,251L305,251L306,252L306,254L303,257L302,257L302,258L306,262L304,265L298,265L295,263L293,263L294,264L295,264L296,265L298,265L301,267L301,268L298,273L298,291L297,292L296,295L292,299L291,299L289,301L288,301L287,302L286,302L281,305L278,305L277,306L274,306L273,307L255,307L254,306L250,306L249,305L246,305L243,303L241,303L240,302L239,302L238,301L237,301L236,300L235,300L234,299L231,298L229,296L228,296L226,294L225,294L223,292L222,292L219,289L218,289L215,286L214,286L210,282L209,282L204,277L203,277L195,269L195,268L191,264L191,263L192,262L192,257L191,257L191,259L188,262L187,262L186,263L183,263L181,261L180,261L179,260L179,259L177,257L177,256L176,255L176,254L175,253L174,250L169,245L169,244L167,242L167,241L165,238L165,236L164,235L164,231L163,230L163,226L164,225L164,220L165,219L166,216L168,214L168,213L169,212L170,212L172,210L173,210L174,209L182,209L189,216L189,217L191,220L191,223L192,224L192,227L193,228L193,230L194,231L202,231L203,230L205,230L208,233L208,234L209,234L211,236L212,236L213,237L222,237L227,232L227,230L229,227L229,222L230,221L230,217L235,212L235,211L237,209L237,208L239,205L239,202L240,201L240,194L239,193L239,190L236,185L236,181L237,180L238,177L239,176L242,176L243,175L244,175L245,174L248,173L253,168L254,165L257,162L260,162L261,161L264,161L265,160L267,160L268,159L271,158L276,153L276,152L279,149L280,150L284,150L285,149L288,149L289,148L292,147L294,145ZM294,217L294,221L293,222L293,230L294,231L294,232L297,233L298,232L299,232L300,231L301,231L302,230L303,230L308,227L310,227L311,226L312,226L312,224L311,225L309,225L308,226L307,226L306,227L303,228L301,230L300,230L299,231L296,231L294,229L294,222L295,221L295,217ZM177,213L176,214L174,214L171,217L171,218L170,219L170,221L169,222L169,233L170,234L170,236L171,237L171,238L175,242L178,243L181,246L181,248L182,249L182,250L185,251L187,248L186,247L184,249L183,249L181,247L181,245L177,241L176,241L171,236L171,235L170,234L170,232L169,231L169,226L170,225L170,221L171,220L171,219L173,217L173,216L174,215L175,215L176,214L178,214L182,218L182,226L181,227L181,233L183,235L185,235L185,234L182,231L182,227L183,226L183,217L181,214L179,214L178,213ZM289,177L288,176L288,178L286,180L283,180L282,181L280,181L279,182L276,183L274,185L273,185L271,187L270,187L265,191L264,191L261,193L259,193L258,194L257,194L260,194L261,195L270,195L271,196L286,196L287,195L286,194L286,191L287,190L287,184L286,183L288,181L289,181ZM285,186L285,192L283,194L269,194L267,192L269,190L272,189L274,187L275,187L278,185L280,185L281,184L283,184ZM291,170L289,168L288,168L287,167L284,167L283,168L281,168L280,169L279,169L278,170L275,171L273,173L272,173L269,176L268,176L265,179L264,179L261,181L263,181L264,180L265,180L267,178L268,178L270,176L271,176L274,173L277,172L279,170L281,170L282,169L287,169L290,172L291,172ZM205,145L204,148L196,156L195,156L192,158L190,158L189,159L187,159L186,160L183,160L182,161L175,161L174,160L174,159L177,156L177,155L181,151L182,151L185,148L186,148L189,146L191,146L192,145L195,145L196,144L204,144ZM164,144L165,145L165,147L166,148L166,158L165,159L165,161L164,162L164,163L163,164L162,167L160,169L160,170L154,176L153,175L153,173L152,172L152,161L153,160L153,158L154,157L154,155L156,153L156,152L158,150L158,149L163,144ZM276,143L274,149L268,155L267,155L264,157L258,157L257,156L257,155L258,154L258,148L260,146L261,146L262,145L264,145L265,144L267,144L268,143L271,143L273,141L274,141ZM190,141L191,140L192,141L191,142ZM295,139L295,140L290,145L289,145L286,147L281,147L280,146L280,143L282,140L285,140L286,139L290,139L291,138L294,138ZM299,137L301,139L301,141L300,142L298,142L297,141L297,139ZM188,135L189,136L189,141L190,141L192,143L191,144L190,144L189,145L187,145L184,147L183,146L183,145L185,143L185,141L186,140L186,137ZM184,125L185,126L185,128L186,129L186,134L185,135L185,138L184,139L184,141L183,142L182,145L180,147L180,148L172,156L171,155L171,152L170,151L170,148L171,147L171,142L172,141L172,139L173,138L174,135L177,132L177,131L182,126L183,126ZM226,126L225,127L225,128L218,135L217,135L216,136L215,136L210,139L207,139L206,140L203,140L202,141L196,141L195,140L195,139L205,129L206,129L211,126L213,126L214,125L219,125L220,124L223,124ZM208,118L209,119L209,125L208,126L205,127L204,126L205,125L205,124L206,123L206,121ZM205,108L207,111L207,114L206,115L206,119L205,120L205,121L204,122L203,125L201,127L201,128L198,131L198,132L194,136L193,136L191,138L190,137L190,130L191,129L191,125L192,124L192,122L193,121L193,120L195,118L195,117L203,109L204,109ZM248,108L240,116L239,116L237,118L236,118L235,119L233,119L232,120L230,120L229,121L226,121L225,122L219,122L218,123L217,122L217,120L224,113L225,113L228,110L229,110L232,108L234,108L235,107L245,107L246,106ZM229,103L230,104L230,107L228,109L227,109L226,108ZM269,100L270,101L270,102L265,107L264,107L233,138L233,139L226,146L226,147L220,153L220,154L215,159L215,160L211,164L211,165L207,169L207,170L201,177L201,178L199,180L199,181L197,183L197,184L195,186L195,187L193,189L193,190L190,193L190,194L188,196L188,197L186,199L186,200L184,202L184,203L182,205L182,206L181,207L175,207L174,208L172,208L171,209L168,210L166,212L166,213L164,215L164,216L162,219L162,222L161,223L161,234L162,235L162,238L163,239L163,241L164,242L163,243L163,244L160,247L160,248L155,253L155,254L156,254L157,253L160,252L162,250L162,249L165,246L166,246L168,248L168,249L165,252L164,252L158,258L157,258L150,264L147,265L145,267L144,267L141,269L145,269L146,268L148,268L149,267L152,266L154,264L155,264L156,263L159,262L161,260L162,260L167,255L168,255L170,253L171,253L173,255L173,256L175,259L175,267L174,268L175,269L175,277L176,278L176,282L177,283L177,287L178,288L178,292L179,293L179,305L176,308L171,308L170,309L150,309L149,310L145,310L144,311L141,311L140,312L138,312L137,313L136,313L136,314L137,315L139,315L140,314L142,314L143,313L148,313L149,312L177,312L178,311L179,311L181,309L181,308L182,307L182,304L183,303L182,302L183,301L182,300L182,294L181,293L181,288L180,287L180,283L179,282L179,278L178,277L178,265L179,264L181,266L183,266L186,269L186,273L187,274L187,277L188,278L188,280L189,281L189,283L190,284L190,286L191,287L191,290L192,291L192,294L193,295L193,300L194,301L194,313L193,314L193,317L189,321L188,321L187,322L166,322L165,321L134,321L133,322L126,322L125,321L125,318L126,317L126,315L127,314L127,311L128,310L128,304L127,303L127,301L126,300L125,297L123,295L123,294L104,275L104,274L105,273L114,273L115,272L118,272L119,271L120,271L121,270L124,269L131,262L131,261L133,259L133,258L134,257L134,255L135,254L135,252L120,252L119,253L116,253L115,254L113,254L112,255L111,255L107,259L106,259L105,258L106,257L106,245L107,244L109,246L109,249L110,250L122,250L123,249L126,249L127,248L129,248L130,247L133,246L135,244L136,244L140,240L140,239L142,237L142,236L144,233L144,231L145,230L145,229L135,229L134,228L135,227L137,227L138,226L141,226L142,225L145,224L147,222L148,222L154,216L154,215L156,213L156,211L157,210L157,207L145,207L144,206L145,205L149,205L150,204L153,204L154,203L155,203L156,202L159,201L161,199L162,199L166,195L166,194L168,192L168,191L170,188L170,186L168,186L167,185L163,185L162,184L163,183L167,183L168,182L170,182L171,181L173,181L174,180L177,179L180,176L181,176L183,174L183,173L187,168L187,166L188,165L188,164L183,164L182,163L185,161L188,161L189,160L191,160L192,159L193,159L194,158L197,157L199,155L200,155L204,151L204,150L206,148L206,147L207,146L207,144L205,142L206,141L208,141L209,140L211,140L212,139L214,139L215,138L218,137L220,135L221,135L227,128L227,127L228,126L228,123L229,122L231,122L232,121L234,121L235,120L236,120L237,119L238,119L239,118L242,117L248,111L249,108L252,105L254,105L257,103L259,103L260,102L263,101L265,99L267,99L268,100ZM287,97L289,100L289,102L288,103L288,104L284,108L291,115L291,116L296,121L296,122L301,127L301,128L298,131L297,131L296,132L293,132L292,133L288,133L287,134L284,134L283,135L280,135L279,136L277,136L276,137L274,137L273,138L271,138L268,140L266,140L263,142L261,142L260,143L259,143L258,144L257,144L256,145L255,145L254,146L253,146L252,147L249,148L247,150L244,151L237,157L236,157L227,166L227,167L220,174L220,175L217,178L217,179L215,181L215,182L209,189L209,190L207,192L207,193L205,195L205,196L201,201L200,204L198,206L198,207L196,209L196,210L191,215L190,215L188,213L188,212L187,212L184,209L184,207L186,205L187,202L189,200L190,197L192,195L192,194L194,192L194,191L196,189L196,188L199,185L199,184L201,182L201,181L204,178L204,177L207,174L207,173L211,169L211,168L219,159L219,158L226,151L226,150L234,142L234,141L263,112L264,112L269,107L270,107L274,103L275,103L278,100L279,100L284,96ZM228,92L229,93L229,98L228,99L228,102L227,103L226,106L224,108L224,109L220,113L220,114L217,117L216,117L212,121L211,121L210,120L210,118L211,117L211,113L212,112L212,110L213,109L213,107L214,106L215,103L219,99L219,98L220,97L221,97L225,93ZM270,91L269,92L269,93L264,98L263,98L261,100L260,100L255,103L253,103L252,104L249,104L248,105L240,105L239,104L247,96L248,96L250,94L251,94L254,92L256,92L257,91L259,91L260,90L269,90ZM250,91L251,90L252,91L251,92ZM251,77L252,78L252,83L251,84L251,86L250,87L249,90L247,92L247,93L237,103L236,103L233,106L232,105L232,101L233,100L233,98L234,97L234,95L235,94L235,93L236,92L237,89L246,80L247,80L249,78L250,78ZM237,82L239,84L235,89L235,90L233,93L233,95L231,98L230,97L230,90L228,90L227,91L225,91L223,93L222,93L215,100L215,101L214,102L214,103L211,108L211,110L210,111L210,113L209,114L208,113L208,108L207,107L207,105L206,106L203,107L201,109L200,109L195,114L195,115L193,117L193,118L191,121L191,123L190,124L190,126L189,127L189,131L188,132L187,131L187,127L186,126L186,124L185,123L182,124L174,132L174,133L172,135L172,137L170,140L170,143L169,144L169,148L168,149L167,148L167,146L166,145L166,143L164,141L156,149L156,150L154,152L154,153L152,156L152,158L151,159L151,163L150,164L151,165L151,168L150,169L148,167L148,165L147,164L147,163L145,161L140,166L140,167L138,169L138,170L136,172L136,173L134,176L134,179L133,180L133,188L132,189L128,183L127,183L125,185L125,186L122,189L122,190L121,191L121,192L118,197L118,199L117,200L117,210L116,211L113,208L113,207L112,206L111,206L111,207L108,210L108,211L106,213L106,214L104,217L104,219L103,220L103,222L102,223L102,233L103,234L102,235L101,235L100,234L100,233L98,231L97,231L95,233L95,234L94,235L94,236L93,237L93,238L90,243L90,246L88,248L85,243L85,241L84,240L84,239L83,238L83,236L81,233L81,231L80,230L80,227L79,226L79,223L78,222L78,218L77,217L77,212L76,211L76,202L75,201L75,200L76,199L75,198L75,191L76,190L75,189L75,188L76,187L76,178L77,177L77,172L78,171L78,168L79,167L79,164L80,163L80,160L81,159L81,157L82,156L82,154L84,151L84,149L85,148L85,147L86,146L86,145L87,144L87,143L88,142L88,141L89,140L89,139L90,138L90,137L91,136L92,133L94,131L94,130L96,128L96,127L99,124L99,123L102,120L102,119L120,101L121,101L124,98L125,98L127,96L128,96L130,94L131,94L136,90L137,90L138,89L139,89L140,88L141,88L142,87L143,87L148,84L150,84L153,82L155,82L156,81L158,81L159,80L161,80L162,79L165,79L166,78L169,78L170,77L174,77L175,76L181,76L182,75L208,75L209,76L215,76L216,77L220,77L221,78L224,78L225,79L228,79L229,80L231,80L232,81L234,81L235,82ZM248,73L250,75L250,76L249,77L246,78L244,80L243,80L242,79L240,79L239,78L237,78L236,77L234,77L233,76L231,76L230,75L228,75L227,74L224,74L223,73L219,73L218,72L213,72L212,71L203,71L202,70L188,70L187,71L178,71L177,72L172,72L171,73L167,73L166,74L163,74L162,75L160,75L159,76L157,76L156,77L154,77L153,78L151,78L150,79L148,79L147,80L146,80L145,81L144,81L143,82L142,82L141,83L140,83L139,84L138,84L137,85L136,85L135,86L132,87L130,89L129,89L127,91L126,91L124,93L123,93L121,95L120,95L116,99L115,99L100,114L100,115L96,119L96,120L93,123L93,124L89,129L89,130L88,131L87,134L85,136L85,137L84,138L84,139L81,144L81,146L79,149L79,151L78,152L78,154L77,155L77,157L76,158L76,160L75,161L75,164L74,165L74,168L73,169L73,174L72,175L72,181L71,182L71,207L72,208L72,215L73,216L73,220L74,221L74,225L75,226L75,229L76,230L76,232L77,233L77,235L78,236L78,238L80,241L80,243L81,244L81,245L82,246L82,247L83,248L83,249L84,250L84,251L85,252L85,253L86,254L87,257L89,259L90,262L92,264L93,267L96,270L96,271L97,271L98,272L97,275L95,277L95,278L94,279L89,274L89,273L87,271L87,270L84,267L84,266L82,264L81,261L79,259L79,258L78,257L78,256L77,255L77,254L76,253L76,252L73,247L73,245L71,242L71,240L70,239L70,237L69,236L69,234L68,233L68,231L67,230L67,227L66,226L66,223L65,222L65,217L64,216L64,211L63,210L63,180L64,179L64,174L65,173L65,168L66,167L66,164L67,163L67,160L68,159L68,156L69,155L69,153L70,152L70,150L72,147L72,145L75,140L75,138L76,137L76,136L77,135L78,132L80,130L81,127L83,125L83,124L85,122L85,121L87,119L87,118L89,116L89,115L93,111L93,110L110,93L111,93L115,89L116,89L119,86L120,86L125,82L128,81L130,79L131,79L132,78L133,78L134,77L135,77L136,76L137,76L142,73L144,73L149,70L151,70L152,69L154,69L155,68L157,68L158,67L161,67L162,66L165,66L166,65L170,65L171,64L176,64L177,63L186,63L187,62L203,62L204,63L205,62L206,63L213,63L214,64L219,64L220,65L224,65L225,66L228,66L229,67L232,67L233,68L235,68L236,69L238,69L239,70L241,70L244,72L246,72L247,73ZM272,47L273,48L268,53L268,54L262,60L262,61L253,70L252,70L249,68L247,68L244,66L242,66L241,65L239,65L238,64L236,64L235,63L233,63L232,62L229,62L228,61L225,61L224,60L219,60L218,59L213,59L212,58L178,58L177,59L172,59L171,60L166,60L165,61L163,61L162,62L158,62L157,63L155,63L154,64L152,64L151,65L149,65L148,66L146,66L143,68L141,68L140,69L139,69L138,70L137,70L136,71L135,71L134,72L133,72L132,73L131,73L130,74L127,75L125,77L122,78L120,80L119,80L117,82L116,82L113,85L112,85L108,89L107,89L89,107L89,108L85,112L85,113L83,115L83,116L81,118L81,119L77,124L77,125L76,126L76,127L75,128L75,129L74,130L73,133L71,135L71,137L68,142L68,144L67,145L67,147L65,150L65,152L64,153L64,155L63,156L63,159L62,160L62,163L61,164L61,168L60,169L60,174L59,175L59,184L58,185L58,204L59,205L59,215L60,216L60,220L61,221L61,226L62,227L62,229L63,230L63,233L64,234L64,236L65,237L65,240L67,243L67,245L69,248L69,250L70,251L70,252L71,253L71,254L72,255L72,256L73,257L73,258L74,259L75,262L79,267L80,270L83,273L83,274L85,276L85,277L89,281L89,282L91,284L91,285L90,286L90,288L89,289L89,292L88,293L88,309L89,310L89,313L90,314L90,317L91,318L91,319L92,320L93,323L92,324L91,323L90,323L69,302L69,301L64,296L64,295L61,292L61,291L59,289L59,288L57,286L57,285L53,280L52,277L50,275L50,274L49,273L49,272L48,271L48,270L47,269L47,268L46,267L46,266L45,265L45,264L42,259L42,257L41,256L41,255L40,254L40,252L38,249L38,247L37,246L37,244L36,243L36,240L35,239L35,237L34,236L34,233L33,232L33,229L32,228L32,224L31,223L31,218L30,217L30,210L29,209L29,180L30,179L30,171L31,170L31,165L32,164L32,160L33,159L33,156L34,155L34,152L35,151L35,148L36,147L36,145L37,144L37,142L38,141L38,139L39,138L39,136L41,133L41,131L42,130L42,129L43,128L43,127L44,126L44,125L47,120L47,118L49,116L49,115L50,114L51,111L53,109L54,106L56,104L56,103L58,101L58,100L61,97L61,96L64,93L64,92L68,88L68,87L87,68L88,68L97,60L98,60L100,58L101,58L103,56L104,56L109,52L110,52L111,51L114,50L116,48L117,48L118,47L119,47L120,46L121,46L122,45L123,45L128,42L130,42L133,40L135,40L138,38L140,38L141,37L143,37L144,36L146,36L147,35L149,35L150,34L153,34L154,33L157,33L158,32L162,32L163,31L167,31L168,30L174,30L175,29L186,29L187,28L203,28L204,29L215,29L216,30L222,30L223,31L227,31L228,32L232,32L233,33L236,33L237,34L239,34L240,35L243,35L244,36L246,36L247,37L249,37L250,38L252,38L255,40L257,40L260,42L262,42L263,43L264,43L265,44L266,44L267,45L268,45L269,46ZM79,276L79,278L78,279L78,282L77,283L77,286L76,287L76,291L75,292L75,295L74,296L74,300L76,302L76,299L77,298L77,295L78,294L78,290L79,289L79,287L80,286L80,282L81,281L81,279ZM67,255L66,255L66,256L65,257L64,260L62,262L62,263L61,264L61,265L60,266L60,267L59,268L59,269L56,274L57,277L58,277L58,276L59,275L59,274L60,273L60,272L61,271L61,270L62,269L63,266L65,264L65,263L68,258ZM57,229L48,238L48,239L42,245L43,246L43,248L44,248L44,247L52,239L52,238L58,232ZM53,202L51,204L50,204L48,206L47,206L42,210L41,210L40,211L39,211L37,213L36,213L35,214L35,216L36,217L37,216L38,216L40,214L41,214L43,212L44,212L46,210L47,210L49,208L50,208L52,206L53,206ZM54,176L53,176L52,177L50,177L49,178L47,178L46,179L44,179L43,180L41,180L40,181L38,181L37,182L35,182L34,183L34,186L35,185L37,185L38,184L40,184L41,183L43,183L44,182L46,182L49,180L51,180L52,179L54,179ZM60,150L54,150L53,151L44,151L43,152L40,152L39,153L39,155L40,154L49,154L50,153L59,153L60,152ZM50,124L50,125L54,125L55,126L61,126L62,127L68,127L69,128L70,128L70,127L71,126L71,125L66,125L65,124L60,124L59,123L52,123L51,122L51,123ZM66,98L67,98L68,99L70,99L73,101L75,101L78,103L80,103L81,104L83,104L84,105L85,105L87,103L86,103L85,102L83,102L80,100L78,100L75,98L73,98L70,96L67,96L67,97ZM87,75L88,75L90,77L91,77L94,80L95,80L97,82L98,82L103,86L104,86L106,84L105,84L103,82L102,82L99,79L98,79L96,77L95,77L90,73L89,73ZM112,56L114,58L114,59L121,66L121,67L125,71L126,71L127,70L127,69L124,66L124,65L117,58L117,57L115,55ZM256,45L253,45L253,46L250,49L250,50L242,59L242,61L245,61L245,60L248,57L248,56L256,47ZM140,43L140,45L141,46L141,47L142,48L142,49L143,50L143,51L144,52L144,53L145,54L145,55L146,56L147,59L148,60L150,60L151,59L149,57L149,56L148,55L148,54L147,53L147,52L146,51L146,50L145,49L145,48L144,47L144,46L143,45L142,42L141,43ZM231,37L228,37L228,39L226,42L226,44L223,49L223,51L222,52L221,55L224,55L224,54L226,51L226,49L229,44L229,42L231,39ZM169,35L168,36L169,37L169,41L170,42L170,46L171,47L171,51L172,52L172,54L175,54L175,53L174,52L174,49L173,48L173,44L172,43L172,38L171,37L171,35ZM200,33L198,33L198,38L197,39L197,50L196,51L196,52L197,53L198,53L199,52L199,46L200,45L200,36L201,35L201,34Z" fill="#fff" fill-rule="evenodd"/></svg>