<svg xmlns="http://www.w3.org/2000/svg" viewBox="0 0 955 473" width="955" height="473"><path d="M329,364L329,365L331,365L332,366L335,366L338,369L338,417L335,420L332,420L331,421L329,421L329,422L330,423L363,423L364,422L369,422L370,421L373,421L374,420L376,420L377,419L378,419L385,413L385,412L387,410L387,409L389,406L389,404L390,403L390,399L391,398L391,389L390,388L390,384L389,383L389,381L388,380L387,377L385,375L385,374L380,369L379,369L377,367L376,367L375,366L373,366L372,365L370,365L369,364L363,364L362,363L330,363ZM347,366L365,366L366,367L368,367L369,368L370,368L372,370L373,370L375,372L375,373L378,376L378,377L379,378L379,380L380,381L380,384L381,385L381,402L380,403L380,406L379,407L379,408L378,409L377,412L372,417L371,417L368,419L366,419L365,420L347,420L346,419L346,367ZM262,364L262,365L264,365L265,366L268,366L271,369L271,417L268,420L265,420L264,421L262,421L262,422L263,423L288,423L288,421L286,421L285,420L282,420L279,418L279,397L280,396L287,396L293,402L293,403L296,406L296,407L298,409L298,410L301,413L301,414L303,416L303,417L306,420L306,421L307,422L308,422L309,423L323,423L324,422L324,421L322,421L321,420L317,420L311,414L311,413L308,410L308,409L305,406L305,405L302,402L302,401L296,395L297,394L299,394L300,393L303,392L309,386L309,384L310,383L310,375L309,374L309,372L306,369L306,368L305,368L303,366L302,366L301,365L299,365L298,364L294,364L293,363L263,363ZM280,366L292,366L293,367L294,367L296,369L297,369L298,370L298,371L300,373L300,375L301,376L301,384L300,385L299,388L295,392L294,392L293,393L290,393L289,394L280,394L279,393L279,367ZM139,363L139,365L140,365L141,366L145,366L147,368L147,418L144,420L141,420L140,421L139,421L139,423L164,423L165,422L165,421L163,421L162,420L158,420L156,418L156,395L157,394L172,394L174,396L174,397L175,398L175,401L176,402L176,403L178,403L178,384L176,384L176,385L175,386L175,388L174,389L174,390L172,392L157,392L156,391L156,367L157,366L177,366L179,369L179,371L180,372L180,374L181,375L181,377L182,378L183,378L183,363ZM66,363L66,365L67,365L68,366L71,366L72,367L73,367L76,370L76,371L79,374L79,375L83,379L83,380L86,383L86,384L89,387L89,388L92,391L92,392L93,393L93,395L90,398L90,399L86,403L86,404L82,408L82,409L78,413L78,414L73,419L72,419L71,420L68,420L67,421L66,421L65,422L66,423L86,423L86,421L84,421L83,420L81,420L80,419L80,417L82,415L82,414L85,411L85,410L88,407L88,406L90,404L90,403L93,400L93,399L95,397L96,397L98,399L98,400L100,402L100,403L102,405L102,406L105,409L105,410L107,412L107,413L110,416L110,417L111,418L111,419L110,420L107,420L106,421L104,421L104,422L105,423L130,423L130,421L128,421L127,420L125,420L124,419L123,419L119,415L119,414L116,411L116,410L113,407L113,406L110,403L110,402L106,398L106,397L103,394L103,393L101,391L104,388L104,387L108,383L108,382L111,379L111,378L115,374L115,373L121,367L122,367L123,366L126,366L127,365L128,365L129,364L128,363L108,363L108,365L110,365L111,366L113,366L114,367L114,369L111,372L111,373L109,375L109,376L106,379L106,380L104,382L104,383L101,386L101,387L100,388L99,388L97,386L97,385L95,383L95,382L93,380L93,379L91,377L91,376L88,373L88,372L86,370L86,369L85,368L85,367L86,366L88,366L89,365L91,365L92,364L91,363ZM220,362L219,363L215,363L214,364L212,364L211,365L210,365L209,366L206,367L203,370L202,370L200,372L200,373L197,376L197,377L194,382L194,384L193,385L193,389L192,390L192,396L193,397L193,401L194,402L194,404L195,405L195,407L197,409L197,410L199,412L199,413L203,417L204,417L206,419L207,419L212,422L214,422L215,423L219,423L220,424L227,424L228,423L232,423L233,422L235,422L236,421L237,421L238,420L241,419L243,417L244,417L248,413L248,412L250,410L250,409L253,404L253,402L254,401L254,397L255,396L255,389L254,388L254,385L253,384L253,382L252,381L252,379L251,378L251,377L249,375L249,374L244,369L243,369L241,367L240,367L235,364L233,364L232,363L228,363L227,362ZM218,365L229,365L230,366L231,366L232,367L235,368L240,373L240,374L242,376L242,377L243,378L243,380L244,381L244,384L245,385L245,401L244,402L244,405L243,406L243,407L242,408L242,409L241,410L240,413L235,418L234,418L229,421L218,421L217,420L216,420L215,419L212,418L207,413L207,412L206,411L206,410L203,405L203,402L202,401L202,386L203,385L203,382L204,381L204,379L205,378L206,375L208,373L208,372L212,368L213,368ZM28,362L27,363L23,363L22,364L20,364L19,365L18,365L17,366L14,367L12,369L11,369L6,374L6,375L4,377L4,378L2,381L2,383L1,384L1,388L0,389L0,398L1,399L1,402L2,403L2,405L3,406L4,409L6,411L6,412L12,418L13,418L15,420L16,420L17,421L19,421L20,422L22,422L23,423L27,423L28,424L34,424L35,423L40,423L41,422L43,422L44,421L45,421L46,420L49,419L58,410L58,409L60,406L60,404L61,403L61,401L62,400L62,395L63,394L63,392L62,391L62,385L61,384L61,382L60,381L60,380L59,379L58,376L55,373L55,372L53,370L52,370L49,367L48,367L43,364L41,364L40,363L35,363L34,362ZM26,365L37,365L38,366L39,366L40,367L43,368L47,372L47,373L49,375L49,376L51,379L51,381L52,382L52,385L53,386L53,399L52,400L52,404L51,405L51,407L50,408L49,411L47,413L47,414L44,417L43,417L41,419L40,419L37,421L26,421L25,420L23,420L21,418L20,418L14,412L14,411L11,406L11,403L10,402L10,384L11,383L11,381L12,380L12,378L13,377L13,376L15,374L15,373L20,368L21,368L23,366L25,366ZM314,309L300,309L300,337L302,337L302,324L303,323L313,323L313,321L303,321L302,320L302,312L303,311L314,311ZM224,309L225,310L225,311L226,312L226,313L227,314L227,315L228,316L228,317L229,318L229,319L230,320L231,323L233,325L233,337L236,337L236,325L237,324L237,323L238,322L238,321L239,320L239,319L240,318L241,315L243,313L243,312L245,309L241,309L241,310L240,311L240,312L239,313L239,314L238,315L238,316L235,321L234,321L233,320L233,319L232,318L232,317L231,316L231,315L230,314L230,313L229,312L228,309ZM200,309L200,311L207,311L208,312L208,337L211,337L211,312L212,311L219,311L219,309ZM189,309L189,337L191,337L192,336L192,309ZM136,309L136,337L139,337L139,325L140,324L143,324L144,325L145,325L148,328L148,329L151,334L151,336L152,337L155,337L154,336L154,334L153,333L153,332L152,331L152,330L151,329L150,326L148,324L150,322L151,322L152,321L152,319L153,318L153,314L152,313L152,312L150,310L149,310L148,309ZM139,312L140,311L146,311L147,312L148,312L150,314L150,318L149,319L149,320L146,322L140,322L139,321ZM111,309L111,336L112,337L126,337L127,336L127,335L126,334L115,334L114,333L114,324L115,323L126,323L126,322L125,321L115,321L114,320L114,312L115,311L126,311L126,309ZM80,309L81,310L81,312L82,313L82,315L83,316L83,318L84,319L84,321L85,322L85,324L86,325L86,327L87,328L87,330L88,331L88,333L89,334L89,336L90,337L93,337L93,336L95,333L95,331L96,330L96,328L97,327L97,325L98,324L98,322L99,321L99,319L100,318L100,316L102,313L102,311L103,310L103,309L100,309L100,311L99,312L99,314L98,315L98,317L97,318L97,320L96,321L96,323L94,326L94,328L93,329L93,331L92,332L91,332L90,331L90,329L89,328L89,326L88,325L88,323L87,322L87,320L86,319L86,317L85,316L85,314L84,313L84,311L83,310L83,309ZM69,309L69,337L72,337L72,309ZM37,309L37,337L39,337L39,316L40,315L44,320L45,323L47,325L47,326L48,327L49,330L51,332L52,335L54,337L56,337L57,336L57,309L54,309L54,330L53,331L52,330L51,327L49,325L49,324L48,323L47,320L45,318L44,315L42,313L41,310L40,309ZM6,309L6,332L7,333L7,334L12,337L19,337L20,336L22,336L24,334L24,333L25,332L25,309L23,309L23,328L22,329L22,331L21,332L21,333L18,335L13,335L9,331L9,329L8,328L8,309ZM276,308L275,309L272,309L267,313L267,314L265,317L265,322L264,323L265,324L265,328L266,329L266,331L271,336L272,336L273,337L281,337L282,336L283,336L285,334L286,334L286,333L288,331L288,330L289,329L289,326L290,325L290,321L289,320L289,317L288,316L287,313L284,310L283,310L282,309L280,309L279,308ZM274,311L280,311L281,312L282,312L285,315L285,316L286,317L286,320L287,321L287,325L286,326L286,329L284,331L284,332L283,333L282,333L280,335L275,335L274,334L273,334L269,330L269,329L268,328L268,317L269,316L269,315L272,312L273,312ZM176,309L173,309L172,308L170,308L169,309L166,309L163,312L163,314L162,315L162,316L163,317L163,319L166,322L167,322L168,323L169,323L170,324L173,325L176,328L176,331L174,334L173,334L172,335L167,335L166,334L163,333L162,334L162,335L163,336L165,336L166,337L174,337L178,333L178,331L179,330L179,328L178,327L178,326L174,322L173,322L172,321L171,321L170,320L167,319L165,317L165,314L168,311L174,311L177,313L178,312L178,311ZM282,33L281,34L276,34L275,35L272,35L271,36L268,36L267,37L265,37L264,38L262,38L261,39L259,39L256,41L254,41L253,42L252,42L251,43L248,44L246,46L243,47L241,49L240,49L238,51L237,51L234,54L233,54L219,68L219,69L216,72L216,73L212,78L211,81L209,83L209,84L206,89L206,91L204,94L204,96L203,97L203,99L202,100L202,102L201,103L201,106L200,107L200,110L199,111L199,117L198,118L198,140L199,141L199,146L200,147L200,151L201,152L201,154L202,155L202,158L203,159L203,161L205,164L205,166L206,167L206,168L207,169L207,170L208,171L208,172L209,173L209,174L210,175L211,178L213,180L213,181L215,183L215,184L217,186L217,187L222,192L222,193L229,200L230,200L241,210L241,212L242,213L242,214L244,216L244,217L246,219L247,219L250,222L251,222L252,223L254,223L255,224L258,224L259,225L264,225L265,224L268,224L269,223L270,223L271,224L274,224L275,225L278,225L279,226L280,226L281,227L280,228L280,229L279,230L279,231L278,232L277,235L278,236L282,236L284,238L284,241L282,243L278,243L277,242L276,242L276,247L277,248L277,250L279,252L279,253L284,258L285,258L287,260L288,260L291,262L296,262L297,261L298,261L299,260L302,259L305,256L306,256L308,254L308,253L310,251L310,250L311,249L311,246L312,245L311,242L310,242L309,243L305,243L303,240L303,239L306,236L309,236L311,234L309,231L309,228L312,226L316,226L317,225L320,225L321,224L323,224L324,223L326,223L327,222L328,222L329,221L331,221L332,220L335,219L337,217L340,216L343,213L344,213L352,205L353,205L358,200L359,200L366,193L366,192L371,187L371,186L373,184L373,183L377,178L377,177L378,176L378,175L379,174L379,173L380,172L380,171L383,166L383,164L385,161L385,159L386,158L386,155L387,154L387,152L388,151L388,147L389,146L389,140L390,139L390,118L389,117L389,112L388,111L388,107L387,106L387,103L386,102L386,100L385,99L385,97L384,96L384,94L382,91L382,89L381,88L381,87L380,86L379,83L377,81L376,78L374,76L374,75L372,73L372,72L368,68L368,67L355,54L354,54L351,51L350,51L345,47L342,46L340,44L339,44L334,41L332,41L329,39L327,39L326,38L324,38L323,37L321,37L320,36L317,36L316,35L313,35L312,34L306,34L305,33ZM284,227L290,227L291,228L303,228L304,227L305,227L307,229L307,231L308,232L308,233L307,234L304,234L302,236L302,237L301,238L301,241L302,242L302,243L304,245L305,245L306,246L308,246L309,247L308,248L307,251L302,256L301,256L299,258L298,258L295,260L293,260L292,259L291,259L290,258L287,257L280,250L280,249L279,248L279,247L280,246L282,246L283,245L284,245L286,243L286,241L287,240L286,239L286,237L285,236L285,235L284,235L281,233L281,231L282,230L282,229ZM282,196L283,195L287,195L288,196L286,198L285,198ZM308,195L308,196L306,199L306,202L304,205L302,205L301,204L299,204L298,203L296,203L293,201L291,201L289,199L289,198L292,196L300,196L301,195L306,195L307,194ZM244,193L245,193L247,195L247,199L246,200L246,206L247,207L247,209L249,211L249,212L253,216L254,216L255,217L256,217L257,218L258,218L259,219L262,220L264,222L263,223L260,223L259,222L255,222L254,221L251,220L244,213L244,212L242,209L242,205L241,204L241,201L242,200L242,196ZM248,201L250,198L251,199L252,199L255,202L256,202L258,204L259,204L261,206L264,206L265,205L265,202L263,200L262,200L259,198L257,198L256,197L253,196L252,195L252,193L253,192L254,192L256,190L258,190L259,189L265,189L266,190L267,190L268,191L271,192L273,194L276,195L278,197L279,197L280,198L281,198L282,199L283,199L288,202L290,202L293,204L295,204L296,205L298,205L299,206L301,206L302,207L305,207L306,208L309,208L310,209L315,209L316,210L334,210L335,209L340,209L341,208L344,208L345,209L344,210L343,210L340,213L339,213L337,215L334,216L332,218L331,218L328,220L326,220L323,222L320,222L319,223L317,223L316,224L311,224L310,225L302,225L301,226L293,226L292,225L284,225L283,224L279,224L278,223L275,223L274,222L272,222L271,221L269,221L268,220L266,220L265,219L264,219L263,218L262,218L261,217L260,217L259,216L256,215L250,209L250,208L249,207L249,205L248,204ZM305,215L305,217L306,217L307,218L308,217L309,217L309,215L308,214L306,214ZM282,210L282,213L283,214L284,214L286,212L285,211L285,210ZM245,191L251,185L252,185L255,183L258,183L259,182L264,182L265,183L268,183L269,184L272,185L277,190L276,191L274,191L271,189L269,189L268,188L266,188L265,187L258,187L257,188L255,188L253,190L252,190L249,193L248,193ZM285,64L303,64L304,65L308,65L309,66L312,66L313,67L315,67L316,68L318,68L319,69L320,69L321,70L322,70L323,71L326,72L328,74L329,74L331,76L332,76L335,79L336,79L344,87L344,88L347,91L347,92L351,97L351,98L354,103L354,105L356,108L356,111L357,112L357,115L358,116L358,121L359,122L359,135L358,136L358,142L357,143L357,146L356,147L356,149L355,150L355,152L354,153L354,154L353,155L353,156L352,157L352,158L351,159L350,162L348,164L348,165L346,167L346,168L334,180L333,180L330,183L327,184L325,186L324,186L319,189L317,189L316,190L314,190L313,191L311,191L310,192L307,192L306,193L298,193L297,194L291,194L290,193L283,193L280,190L280,189L275,184L274,184L269,181L266,181L265,180L258,180L257,181L255,181L242,168L242,167L238,162L238,161L237,160L237,159L236,158L236,157L233,152L233,150L232,149L232,147L231,146L231,143L230,142L230,137L229,136L229,122L230,121L230,116L231,115L231,112L232,111L232,108L234,105L234,103L235,102L235,101L236,100L237,97L239,95L239,94L241,92L241,91L244,88L244,87L252,79L253,79L257,75L260,74L262,72L263,72L264,71L265,71L270,68L272,68L273,67L275,67L276,66L279,66L280,65L284,65ZM283,182L283,183L285,183L286,184L302,184L303,183L305,183L305,182L304,182L303,181L298,181L297,180L291,180L290,181L285,181L284,182ZM310,167L307,168L304,171L305,172L305,173L303,175L302,175L301,176L300,176L299,175L299,174L297,172L298,171L299,171L299,170L298,169L298,168L296,166L296,165L294,163L292,165L292,166L289,169L289,171L290,171L291,172L289,174L289,175L288,176L287,176L285,174L284,174L283,173L285,171L284,171L281,168L280,168L279,167L278,167L278,168L279,169L279,171L280,172L280,174L281,175L281,177L282,178L286,178L287,177L301,177L302,178L306,178L307,177L307,175L308,174L308,172L309,171L309,169L310,168ZM248,110L248,112L250,114L251,113L253,113L256,115L256,117L255,118L253,118L251,116L249,116L248,117L248,119L250,121L251,120L255,120L256,121L256,123L255,124L252,124L251,123L249,123L249,124L248,125L248,126L249,127L252,127L253,126L256,128L256,130L255,131L253,131L252,130L249,130L249,131L248,132L248,133L249,134L252,134L253,133L255,133L256,134L256,136L255,137L254,137L253,138L252,137L249,137L248,138L248,140L249,141L252,141L253,140L255,140L256,141L256,142L254,144L249,144L248,145L248,147L249,148L252,148L254,146L255,146L256,147L256,149L255,150L254,150L253,151L249,151L248,152L248,154L249,155L252,155L252,154L255,152L256,153L256,155L287,155L290,158L292,158L293,159L295,159L296,158L298,158L301,155L332,155L332,110L331,110L330,111L330,152L329,153L299,153L299,154L297,156L291,156L289,154L289,153L259,153L258,152L258,111L257,110L256,110L255,111L253,111L251,109L249,109ZM325,107L305,107L304,108L300,108L296,112L296,152L296,150L298,148L299,148L300,147L326,147L326,108ZM309,135L310,134L313,134L314,135L313,136L312,136L313,136L314,137L314,138L313,139L312,139L313,139L314,138L315,139L315,138L316,137L316,135L317,134L319,136L319,137L321,140L320,141L318,141L317,140L317,139L317,140L316,141L310,141L309,140L310,139L310,136ZM302,135L303,134L305,136L306,136L306,135L307,134L308,134L309,135L309,140L308,141L307,141L306,140L306,139L306,140L305,141L304,140L303,141L302,141L301,140L302,139ZM314,130L315,129L316,129L317,130L316,131L315,131ZM316,124L317,124L319,126L319,128L317,130L316,129L316,126L315,125ZM314,124L315,125L315,129L314,130L313,130L312,129L312,126ZM310,124L311,124L312,125L311,126L311,128L312,129L311,130L310,130L309,129L309,125ZM307,125L308,124L309,125L308,126ZM305,124L306,124L307,125L307,129L306,130L305,130L304,129L304,125ZM310,119L311,118L312,118L313,119L312,120L311,120ZM319,113L320,113L321,114L321,116L323,119L322,120L320,120L319,119L319,118L319,119L318,120L317,120L316,119L317,118L317,117L318,116L318,114ZM314,114L315,113L316,113L317,114L316,115L315,115ZM310,114L311,113L312,113L316,117L316,119L315,120L313,118L313,117L312,117L311,116L311,115ZM308,113L309,113L310,114L310,119L309,120L308,120L307,119L307,114ZM304,113L306,113L307,114L306,115L306,118L307,119L306,120L304,120L303,119L304,118L304,117L303,116L303,114ZM299,114L300,113L301,113L303,115L304,118L303,119L302,119L301,118L301,117L301,118L302,119L301,120L300,120L299,119ZM263,107L263,147L288,147L289,148L290,148L292,150L292,152L292,113L291,112L291,111L288,108L284,108L283,107ZM284,135L285,134L286,135L286,136L285,137L284,136ZM281,134L282,134L283,135L283,137L284,136L285,137L285,139L283,141L281,139L281,137L280,136L280,135ZM271,135L272,134L273,134L274,135L274,139L276,139L276,135L277,134L278,134L279,135L279,139L280,139L281,140L280,141L272,141L271,140ZM269,134L270,134L271,135L271,136L270,137L270,139L271,140L270,141L269,141L268,140L268,135ZM281,129L282,128L284,130L283,131L282,131L281,130ZM269,129L270,128L271,129L270,130ZM283,125L284,124L285,125L284,126ZM281,125L282,124L286,128L286,129L285,130L284,130L283,129L283,128L282,128L281,127ZM279,125L280,124L281,125L280,126ZM276,124L277,124L278,125L278,126L279,125L280,126L280,128L278,131L276,129L276,127L275,126L275,125ZM273,125L274,124L275,125L274,126ZM268,125L269,124L271,124L274,127L274,130L273,131L272,130L272,129L271,128L270,128ZM282,114L283,113L285,113L286,114L285,115L285,118L286,118L286,114L287,113L288,113L289,114L289,119L288,120L283,120L282,119L283,118L283,117L282,116ZM279,113L280,113L282,115L282,116L283,117L283,118L281,120L278,120L277,119L278,118L278,114ZM273,113L276,113L278,115L278,118L276,120L273,120L271,118L271,115ZM274,115L274,118L275,118L275,115ZM264,114L265,113L269,113L271,115L271,118L269,120L265,120L264,119L265,118L265,115ZM267,115L267,117L268,118L269,117L269,116L268,115ZM304,98L304,99L306,99L307,100L323,100L324,99L326,99L326,98L325,98L324,97L320,97L319,96L310,96L309,97L305,97ZM262,98L262,99L264,99L265,100L281,100L282,99L284,99L284,98L283,97L279,97L278,96L269,96L268,97L263,97ZM331,83L330,83L329,84L328,84L326,86L325,86L324,87L325,87L326,88L322,92L321,92L319,90L319,89L318,88L319,87L320,87L320,86L315,79L312,82L312,83L310,85L310,87L311,88L311,89L308,92L307,91L306,91L304,89L304,88L305,87L303,85L302,85L300,83L299,83L299,85L300,86L300,88L301,89L301,91L302,92L302,94L306,94L307,93L323,93L324,94L327,94L328,93L328,90L329,89L329,87L330,86L330,84ZM257,82L257,84L258,85L258,87L259,88L259,90L260,91L260,93L261,94L264,94L265,93L281,93L282,94L286,94L286,91L287,90L287,88L288,87L288,85L289,84L289,83L288,83L286,85L285,85L283,87L284,88L284,89L282,91L279,92L278,91L278,90L276,88L277,87L278,87L278,85L275,82L275,81L273,79L271,81L271,82L269,84L269,85L268,86L268,87L269,87L270,88L268,90L268,91L267,92L266,92L263,89L263,88L264,87L263,86L262,86L260,84L259,84ZM241,51L242,51L244,49L247,48L249,46L250,46L255,43L257,43L262,40L264,40L265,39L268,39L269,38L271,38L272,37L276,37L277,36L283,36L284,35L304,35L305,36L311,36L312,37L316,37L317,38L319,38L320,39L323,39L326,41L328,41L331,43L333,43L334,44L335,44L336,45L339,46L341,48L344,49L346,51L347,51L350,54L351,54L355,58L356,58L365,67L365,68L369,72L369,73L372,76L373,79L375,81L375,82L376,83L376,84L377,85L377,86L378,87L378,88L379,89L379,90L382,95L382,97L383,98L383,100L384,101L384,103L385,104L385,107L386,108L386,112L387,113L387,120L388,121L388,136L387,137L387,144L386,145L386,149L385,150L385,153L384,154L384,157L383,158L383,160L381,163L381,165L380,166L380,167L379,168L379,169L378,170L378,171L377,172L376,175L374,177L374,178L373,179L373,180L371,182L371,183L367,187L367,188L353,202L352,202L350,204L348,204L347,205L345,205L344,206L340,206L339,207L334,207L333,208L318,208L317,207L311,207L308,205L308,200L309,199L310,196L313,193L314,193L315,192L317,192L318,191L320,191L321,190L322,190L323,189L324,189L325,188L328,187L330,185L331,185L333,183L334,183L338,179L339,179L345,173L345,172L351,165L351,164L352,163L352,162L353,161L353,160L354,159L354,158L357,153L357,151L358,150L358,148L359,147L359,144L360,143L360,139L361,138L361,120L360,119L360,114L359,113L359,111L358,110L358,108L357,107L357,105L356,104L356,102L355,101L355,100L354,99L354,98L353,97L352,94L350,92L350,91L347,88L347,87L336,76L335,76L332,73L331,73L329,71L328,71L327,70L326,70L321,67L319,67L316,65L314,65L313,64L310,64L309,63L305,63L304,62L284,62L283,63L279,63L278,64L275,64L274,65L272,65L271,66L269,66L268,67L267,67L266,68L265,68L264,69L263,69L262,70L259,71L257,73L256,73L253,76L252,76L241,87L241,88L238,91L238,92L236,94L236,95L235,96L235,97L232,102L232,104L230,107L230,109L229,110L229,113L228,114L228,118L227,119L227,138L228,139L228,143L229,144L229,147L230,148L230,150L231,151L231,153L232,154L232,155L233,156L233,157L234,158L234,159L235,160L235,161L236,162L237,165L239,167L239,168L243,172L243,173L249,179L250,179L252,181L252,182L251,183L250,183L248,185L247,185L243,189L242,189L241,188L239,188L242,191L242,192L240,195L240,198L239,199L239,203L238,204L236,202L235,202L221,188L221,187L215,180L215,179L214,178L214,177L212,175L212,174L211,173L211,172L210,171L210,170L207,165L207,163L205,160L205,158L204,157L204,154L203,153L203,150L202,149L202,145L201,144L201,138L200,137L200,121L201,120L201,113L202,112L202,108L203,107L203,104L204,103L204,101L205,100L205,98L206,97L206,95L209,90L209,88L210,87L210,86L212,84L212,83L213,82L214,79L216,77L216,76L219,73L219,72L223,68L223,67L232,58L233,58L237,54L238,54ZM354,169L353,170L353,171L350,174L350,176L349,177L349,179L350,180L350,182L353,185L354,185L355,186L361,186L366,181L366,180L367,179L358,171L357,171L355,169ZM351,176L353,174L353,173L354,172L355,172L357,174L358,174L361,177L362,177L364,179L364,180L360,184L356,184L355,183L354,183L353,182L353,181L351,179ZM232,167L228,167L227,168L226,168L224,170L223,170L220,173L219,173L218,174L218,175L219,176L220,175L221,175L223,173L224,173L227,170L228,170L229,169L232,169L234,171L234,174L230,178L229,178L224,182L224,183L225,184L227,182L228,182L230,180L231,180L234,177L235,177L235,176L236,175L236,171L235,170L235,169ZM362,153L362,154L361,155L362,156L364,156L365,157L366,157L367,158L367,160L366,161L359,161L358,162L358,164L364,164L365,163L367,165L367,166L368,167L369,167L370,168L372,168L375,165L375,164L376,163L376,161L377,160L376,160L375,159L374,159L373,158L372,158L367,155L365,155ZM370,159L371,160L372,160L374,162L374,163L371,166L368,164L368,161ZM224,148L209,153L209,155L210,155L211,154L213,154L214,153L216,153L217,152L219,152L220,153L217,156L217,157L212,162L212,163L213,164L215,164L216,163L218,163L221,161L223,161L226,159L228,159L228,158L227,157L226,157L225,158L224,158L223,159L221,159L218,161L217,160L217,159L222,154L222,153L225,150L225,149ZM223,139L222,138L221,138L220,139L215,139L214,140L208,140L207,141L206,141L207,142L207,143L208,143L209,142L214,142L215,141L221,141L222,140L223,140ZM366,137L366,138L365,139L365,143L366,144L366,145L369,148L371,148L372,149L376,149L377,148L380,147L380,146L382,143L382,140L381,139L381,138L378,135L377,135L376,134L370,134L369,135L368,135ZM367,139L369,137L370,137L371,136L375,136L376,137L377,137L380,140L380,143L377,146L376,146L375,147L373,147L372,146L370,146L367,143ZM366,119L366,121L371,121L372,120L374,122L374,127L375,126L376,126L376,125L375,124L375,121L376,120L379,120L381,122L381,126L383,126L383,125L382,124L382,118L370,118L369,119ZM206,118L206,120L207,121L209,121L210,122L212,122L213,123L214,123L215,124L217,124L218,125L216,127L213,127L212,128L210,128L209,129L206,129L205,130L205,131L206,132L207,131L209,131L210,130L212,130L213,129L216,129L217,128L219,128L220,127L222,127L222,125L221,124L220,124L217,122L215,122L212,120L210,120L209,119ZM210,101L210,102L209,103L209,106L208,107L208,109L209,109L210,110L212,110L213,111L216,111L217,112L219,112L220,113L224,113L224,110L225,109L225,106L226,105L225,105L224,104L224,106L223,107L223,109L221,111L220,110L218,110L217,109L217,106L218,105L218,103L217,103L216,104L216,107L214,109L213,108L211,108L210,107L210,106L211,105L211,103L212,102L212,101ZM376,95L376,96L370,102L367,102L366,101L363,101L362,100L361,100L361,102L362,102L363,103L367,103L368,104L368,105L365,108L365,109L364,110L364,111L365,112L367,110L367,109L371,105L375,105L376,106L379,106L380,107L380,106L378,104L375,104L373,102L377,98ZM219,83L216,86L216,87L214,90L215,91L216,91L217,92L220,93L222,95L223,95L224,96L225,96L226,97L229,98L229,96L228,95L225,94L224,93L224,91L225,90L233,90L233,89L234,88L226,88L225,87L225,85L224,84L223,84L222,83ZM220,85L222,85L223,86L223,90L222,91L220,91L217,89L217,88ZM366,78L360,78L359,79L358,79L354,83L354,89L355,90L355,91L357,93L359,93L360,94L361,94L362,93L365,93L370,88L370,82ZM361,80L365,80L368,83L368,87L365,90L364,90L363,91L358,91L356,89L356,84L359,81L360,81ZM348,68L347,69L347,71L348,72L350,72L351,71L351,69L350,68ZM230,67L228,69L228,70L227,71L227,74L228,75L228,76L229,76L230,77L231,77L232,76L234,76L235,75L239,75L240,76L240,78L237,81L236,81L236,83L238,83L242,79L242,75L240,73L239,73L238,72L237,73L234,73L233,74L230,74L229,73L229,71L231,69L232,69L233,68L233,67ZM240,58L240,60L243,63L243,64L246,67L246,68L249,71L249,72L250,72L251,71L251,70L249,68L249,67L245,63L245,62L242,59L242,58ZM343,55L342,54L341,54L339,52L338,52L337,51L335,51L335,52L333,54L332,57L330,59L330,60L328,63L328,65L330,65L331,62L333,60L335,60L336,61L339,62L339,60L336,59L334,57L335,56L335,55L337,53L339,55L340,55L341,56L343,56ZM259,47L258,48L257,48L256,49L255,49L254,50L253,50L252,51L249,52L249,53L250,54L253,52L257,57L257,58L258,59L258,60L261,65L262,64L262,62L261,61L261,60L260,59L259,56L257,54L257,53L256,52L256,51L257,50L260,49L260,48ZM294,46L293,47L292,47L292,49L293,50L295,50L296,49L296,48ZM319,43L316,43L315,44L313,44L311,46L311,47L309,50L309,54L310,55L310,57L312,59L313,59L314,60L318,60L319,59L320,59L323,56L323,55L324,54L324,47L321,44L320,44ZM316,45L319,45L322,48L322,53L321,54L321,55L318,58L314,58L312,56L312,55L311,54L311,51L312,50L313,47ZM278,41L277,41L276,42L276,43L275,44L275,48L274,49L273,49L268,44L267,44L266,45L274,53L274,54L275,55L275,58L276,59L277,58L278,58L277,57L277,55L276,54L276,49L277,48L277,44L278,43ZM482,0L481,1L481,472L953,472L953,0ZM492,12L493,11L942,11L943,12L943,460L941,462L494,462L492,460ZM717,386L712,391L712,392L710,395L710,397L709,398L709,409L710,410L710,412L711,413L712,416L716,420L717,420L722,423L726,423L727,424L732,424L733,423L737,423L738,422L740,422L741,421L742,421L748,415L748,414L750,411L750,409L751,408L751,397L750,396L750,394L749,393L749,392L747,390L747,389L742,385L741,385L740,384L738,384L737,383L724,383L723,384L721,384L720,385ZM726,384L731,384L732,385L733,385L736,388L736,389L738,392L738,394L739,395L739,398L740,399L740,412L739,413L739,416L738,417L738,418L734,422L733,422L732,423L731,423L730,422L728,422L724,418L724,417L722,414L722,412L721,411L721,407L720,406L720,396L721,395L721,391L722,390L723,387ZM672,384L665,389L665,390L663,392L663,393L661,396L661,400L660,401L660,405L661,406L661,410L662,411L662,413L663,414L663,415L669,421L670,421L671,422L673,422L674,423L678,423L679,424L684,424L685,423L689,423L690,422L691,422L692,421L695,420L699,416L699,415L702,410L702,407L703,406L703,400L702,399L702,395L701,394L700,391L695,386L694,386L689,383L675,383L674,384ZM678,384L683,384L688,389L688,390L690,393L690,395L691,396L691,402L692,403L692,408L691,409L691,414L690,415L690,417L689,418L689,419L686,422L684,422L683,423L682,422L680,422L675,417L675,416L673,413L673,410L672,409L672,393L673,392L673,390L674,389L674,388ZM602,383L589,383L588,384L586,384L585,385L584,385L582,387L581,387L578,390L578,391L576,393L576,394L575,395L575,398L574,399L574,410L575,411L575,413L576,414L577,417L580,420L581,420L583,422L584,422L585,423L589,423L590,424L593,424L594,423L598,423L599,422L602,421L605,418L606,418L606,417L608,415L607,414L606,414L603,417L600,417L599,418L596,418L595,417L593,417L592,416L591,416L587,412L587,411L585,408L585,405L584,404L584,395L585,394L585,392L586,391L586,390L588,388L588,387L589,386L590,386L591,385L594,384L603,393L605,393L608,390L608,387L605,384L603,384ZM561,364L543,364L542,365L540,365L539,366L536,367L531,372L531,373L530,374L530,378L529,379L529,381L530,382L530,386L531,387L531,388L537,394L538,394L539,395L540,395L541,396L542,396L543,397L544,397L545,398L548,399L550,401L551,401L556,406L556,408L557,409L557,414L556,415L555,418L552,421L551,421L550,422L540,422L539,421L538,421L534,417L534,416L532,413L532,411L531,410L530,407L528,407L528,412L529,413L529,421L530,422L533,422L534,423L539,423L540,424L549,424L550,423L554,423L555,422L556,422L557,421L560,420L565,415L565,414L566,413L566,410L567,409L567,404L566,403L566,401L565,400L564,397L562,395L561,395L558,392L557,392L556,391L555,391L554,390L553,390L552,389L551,389L550,388L547,387L545,385L544,385L541,382L541,381L539,378L539,372L540,371L540,370L544,366L545,366L546,365L553,365L554,366L557,367L558,368L558,369L559,370L559,371L562,376L562,378L564,378L564,365L562,365ZM771,359L768,359L767,360L765,360L764,361L761,361L760,362L758,362L757,363L755,363L755,364L758,365L760,367L760,418L756,422L775,422L770,418L770,360ZM610,363L611,364L614,365L616,367L616,418L612,422L630,422L626,418L626,391L629,388L630,388L631,387L636,387L637,388L638,388L640,390L640,391L641,392L641,418L637,422L656,422L651,418L651,389L650,388L649,385L646,383L643,383L642,382L639,382L638,383L635,383L634,384L631,385L629,387L628,387L627,388L626,387L626,359L624,359L623,360L621,360L620,361L617,361L616,362L613,362L612,363ZM580,304L585,309L585,335L586,336L586,339L590,343L593,343L594,344L597,344L598,343L601,343L602,342L604,342L606,340L609,339L611,342L611,344L612,344L613,343L616,343L617,342L619,342L620,341L622,341L623,340L625,340L626,339L623,339L620,337L620,305L621,304L603,304L604,305L605,305L607,307L608,307L610,309L610,336L608,338L607,338L606,339L600,339L596,335L596,304ZM828,303L827,304L825,304L823,306L822,306L821,307L821,308L819,311L819,317L820,318L820,320L824,324L825,324L827,326L828,326L829,327L832,328L837,332L837,333L838,334L838,337L837,338L837,339L835,341L834,341L833,342L827,342L822,337L822,335L821,334L820,331L818,331L818,341L819,341L820,342L822,342L823,343L837,343L838,342L840,342L842,340L843,340L844,339L844,338L846,336L846,327L845,326L845,325L843,323L842,323L840,321L837,320L835,318L832,317L828,313L828,312L827,311L827,309L828,308L828,307L831,304L837,304L841,308L843,314L845,314L845,305L842,303ZM793,303L792,304L790,304L789,305L788,305L784,309L784,312L783,313L783,315L784,316L784,319L786,321L786,322L787,323L788,323L790,325L791,325L792,326L795,327L797,329L798,329L802,333L802,338L799,341L798,341L797,342L792,342L791,341L790,341L787,338L787,336L785,333L785,331L782,331L782,334L783,335L783,341L784,341L785,342L787,342L788,343L802,343L803,342L806,341L810,337L810,335L811,334L811,329L810,328L810,326L806,322L805,322L803,320L802,320L801,319L798,318L792,312L792,308L793,307L793,306L796,304L801,304L804,306L804,307L806,309L806,310L807,311L807,313L808,314L809,314L809,304L807,304L806,303ZM642,303L641,304L639,304L638,305L637,305L634,308L634,309L633,310L633,318L634,319L634,320L639,325L640,325L641,326L642,326L643,327L646,328L651,333L651,338L647,342L641,342L640,341L639,341L637,339L637,338L635,335L635,333L634,332L634,331L632,331L632,341L633,341L634,342L636,342L637,343L651,343L652,342L654,342L656,340L657,340L657,339L659,337L659,336L660,335L660,328L659,327L659,326L654,321L653,321L652,320L649,319L647,317L646,317L641,312L641,308L645,304L650,304L651,305L652,305L654,307L654,308L655,309L655,310L656,311L657,314L658,314L659,313L659,308L658,307L658,304L657,304L656,303ZM763,302L759,302L758,303L754,303L753,304L750,305L744,311L744,312L742,315L742,317L741,318L741,330L742,331L742,333L743,334L743,335L745,337L745,338L750,342L752,342L753,343L757,343L758,344L760,344L761,343L765,343L766,342L768,342L770,340L771,340L776,335L776,334L775,333L773,335L772,335L769,337L760,337L759,336L758,336L754,332L754,331L751,326L751,320L750,319L752,317L770,317L771,318L775,318L775,317L776,316L776,314L775,313L775,310L774,309L774,308L770,304L769,304L768,303L764,303ZM753,307L755,305L756,305L757,304L761,304L762,305L763,305L764,306L764,307L766,309L766,315L765,316L752,316L751,315L751,312L752,311L752,309L753,308ZM691,307L692,308L693,308L696,311L696,338L692,342L711,342L706,337L706,311L709,308L710,308L711,307L716,307L717,308L718,308L721,311L721,314L722,315L722,337L717,342L736,342L732,338L732,312L731,311L731,308L730,307L730,306L728,304L727,304L726,303L724,303L723,302L719,302L718,303L716,303L715,304L713,304L707,308L706,307L706,302L705,302L704,303L702,303L701,304L698,304L697,305L695,305L694,306L692,306ZM681,302L679,302L678,303L676,303L675,304L673,304L672,305L670,305L669,306L667,306L666,307L665,307L666,307L671,311L671,338L666,342L685,342L681,338ZM523,284L525,286L526,286L531,289L531,337L526,341L523,342L540,342L541,343L555,343L556,342L561,342L562,341L564,341L565,340L566,340L567,339L570,338L573,335L573,334L575,331L575,329L576,328L576,323L575,322L575,320L574,319L574,318L569,313L568,313L567,312L565,312L562,310L563,309L564,309L565,308L568,307L570,305L570,304L572,301L572,293L571,292L570,289L569,288L568,288L566,286L564,286L563,285L560,285L559,284ZM543,313L554,313L555,314L557,314L559,316L560,316L561,317L561,318L563,320L563,321L564,322L564,331L563,332L563,334L557,340L556,340L555,341L552,341L551,342L549,342L548,341L546,341L542,337L542,314ZM543,286L552,286L553,287L555,287L560,292L560,293L561,294L561,302L560,303L559,306L556,309L555,309L552,311L543,311L542,310L542,287ZM671,281L671,282L670,283L670,289L672,291L674,291L675,292L676,292L677,291L679,291L681,289L681,288L682,287L682,285L681,284L681,282L678,280L673,280L672,281ZM632,222L630,222L629,223L627,223L626,224L623,224L622,225L620,225L619,226L617,226L616,227L621,230L621,258L617,262L636,262L632,258ZM576,229L574,231L574,234L577,234L578,233L580,233L582,231L582,228L584,226L590,226L591,227L592,227L594,229L594,230L595,231L595,242L594,243L592,243L591,244L588,244L587,245L585,245L584,246L582,246L581,247L579,247L578,248L577,248L574,251L574,252L573,253L573,258L574,259L574,260L576,262L577,262L578,263L588,263L593,260L595,260L598,263L600,263L601,264L604,264L605,263L606,263L611,260L610,259L609,259L607,257L606,257L604,255L604,236L605,235L605,230L604,229L604,227L600,223L597,223L596,222L590,222L589,223L587,223L586,224L584,224L583,225L582,225L580,227L579,227L577,229ZM594,244L595,245L595,257L593,259L592,259L591,260L587,260L583,256L583,254L582,253L582,252L583,251L583,250L587,246L589,246L590,245L592,245L593,244ZM632,203L630,205L630,210L632,212L637,212L639,210L639,205L637,203ZM616,203L614,205L614,210L616,212L620,212L621,211L622,211L622,210L623,209L623,206L622,205L622,204L621,204L620,203ZM564,205L563,205L562,204L555,204L554,203L549,203L548,204L543,204L542,205L540,205L539,206L536,207L531,212L531,213L530,214L530,218L529,219L529,221L530,222L530,225L531,226L532,229L536,233L537,233L539,235L540,235L541,236L542,236L543,237L544,237L545,238L546,238L547,239L550,240L556,246L556,248L557,249L557,253L556,254L556,256L551,261L550,261L549,262L541,262L540,261L537,260L535,258L535,257L533,255L533,253L531,250L531,248L530,247L528,247L528,252L529,253L529,261L530,262L533,262L534,263L540,263L541,264L547,264L548,263L553,263L554,262L556,262L557,261L560,260L565,255L565,254L566,253L566,250L567,249L567,244L566,243L566,240L564,238L564,237L561,234L560,234L558,232L557,232L556,231L555,231L554,230L553,230L552,229L549,228L547,226L546,226L540,220L540,219L539,218L539,212L540,211L540,210L544,206L545,206L546,205L553,205L554,206L556,206L559,209L559,210L560,211L560,213L561,214L562,217L563,218L564,218ZM681,199L678,199L677,200L675,200L674,201L671,201L670,202L668,202L667,203L665,203L666,204L669,205L671,207L671,222L670,223L656,223L655,224L653,224L652,225L651,225L649,227L648,227L646,229L646,230L644,232L644,233L642,236L642,239L641,240L641,249L642,250L642,253L643,254L643,255L645,257L645,258L647,260L648,260L653,263L661,263L662,262L664,262L665,261L666,261L667,260L670,259L671,260L671,264L672,264L673,263L676,263L677,262L679,262L680,261L682,261L683,260L685,260L686,259L687,259L684,259L681,257ZM660,224L665,224L666,225L667,225L668,226L668,227L670,229L670,232L671,233L671,256L669,258L668,258L667,259L661,259L660,258L659,258L655,254L655,253L653,250L653,247L652,246L652,236L653,235L653,232L654,231L655,228L658,225L659,225ZM778,150L778,185L779,186L782,187L784,189L785,189L786,190L789,191L791,193L792,193L793,194L796,195L798,197L799,197L800,198L803,199L805,201L808,202L810,204L811,204L812,205L815,206L817,208L818,208L819,209L822,210L824,212L825,212L826,213L829,214L831,216L832,216L833,217L836,218L838,220L841,221L843,223L844,223L845,224L848,225L850,227L851,227L852,228L855,229L857,231L858,231L859,232L862,233L864,235L867,236L869,238L870,238L871,239L874,240L876,242L877,242L878,243L881,244L883,246L884,246L885,247L888,248L890,250L893,251L895,253L896,253L897,254L900,255L902,257L903,257L904,258L907,259L909,261L912,262L912,227L911,226L910,226L909,225L906,224L904,222L903,222L902,221L899,220L897,218L894,217L892,215L891,215L890,214L887,213L885,211L884,211L883,210L880,209L878,207L877,207L876,206L873,205L871,203L868,202L866,200L865,200L864,199L861,198L859,196L858,196L857,195L854,194L852,192L851,192L850,191L847,190L845,188L842,187L840,185L839,185L838,184L835,183L833,181L832,181L831,180L828,179L826,177L825,177L824,176L821,175L819,173L818,173L817,172L814,171L812,169L809,168L807,166L806,166L805,165L802,164L800,162L799,162L798,161L795,160L793,158L792,158L791,157L788,156L786,154L785,154L784,153L783,153L781,151ZM801,111L801,146L803,148L804,148L805,149L806,149L808,151L809,151L810,152L813,153L815,155L816,155L817,156L820,157L822,159L823,159L824,160L827,161L829,163L830,163L831,164L832,164L834,166L835,166L836,167L839,168L841,170L842,170L843,171L846,172L848,174L849,174L850,175L853,176L855,178L856,178L857,179L860,180L862,182L865,183L867,185L868,185L869,186L872,187L874,189L875,189L876,190L879,191L881,193L882,193L883,194L886,195L888,197L889,197L890,198L891,198L893,200L894,200L895,201L898,202L900,204L901,204L902,205L905,206L907,208L908,208L909,209L912,210L912,175L911,175L909,173L908,173L907,172L904,171L902,169L899,168L897,166L896,166L895,165L892,164L890,162L889,162L888,161L885,160L883,158L882,158L881,157L878,156L876,154L875,154L874,153L871,152L869,150L866,149L864,147L863,147L862,146L859,145L857,143L856,143L855,142L852,141L850,139L849,139L848,138L845,137L843,135L840,134L838,132L837,132L836,131L833,130L831,128L830,128L829,127L826,126L824,124L823,124L822,123L819,122L817,120L814,119L812,117L811,117L810,116L807,115L805,113L804,113ZM823,72L823,107L824,108L825,108L827,110L830,111L832,113L833,113L834,114L837,115L839,117L840,117L841,118L844,119L846,121L847,121L848,122L851,123L853,125L856,126L858,128L859,128L860,129L863,130L865,132L866,132L867,133L870,134L872,136L873,136L874,137L877,138L879,140L880,140L881,141L882,141L884,143L885,143L886,144L889,145L891,147L892,147L893,148L896,149L898,151L899,151L900,152L903,153L905,155L906,155L907,156L908,156L909,157L912,158L912,123L911,123L910,122L909,122L907,120L906,120L905,119L902,118L900,116L897,115L895,113L894,113L893,112L890,111L888,109L887,109L886,108L883,107L881,105L880,105L879,104L876,103L874,101L871,100L869,98L868,98L867,97L864,96L862,94L861,94L860,93L857,92L855,90L854,90L853,89L850,88L848,86L847,86L846,85L843,84L841,82L838,81L836,79L835,79L834,78L831,77L829,75L828,75ZM846,33L846,69L847,69L848,70L849,70L851,72L852,72L853,73L856,74L858,76L861,77L863,79L864,79L865,80L868,81L870,83L871,83L872,84L875,85L877,87L878,87L879,88L882,89L884,91L887,92L889,94L890,94L891,95L894,96L896,98L897,98L898,99L901,100L903,102L904,102L905,103L908,104L910,106L911,106L912,107L912,71L911,71L910,70L907,69L905,67L904,67L903,66L900,65L898,63L897,63L896,62L893,61L891,59L888,58L886,56L885,56L884,55L881,54L879,52L878,52L877,51L874,50L872,48L871,48L870,47L867,46L865,44L864,44L863,43L862,43L860,41L859,41L858,40L855,39L853,37L852,37L851,36L848,35Z" fill="#fff" fill-rule="evenodd"/></svg>