<?xml version="1.0" encoding="UTF-8" standalone="no"?>

<svg width="100%" height="100%" viewBox="0 0 303 118" version="1.1" xmlns="http://www.w3.org/2000/svg" xmlns:xlink="http://www.w3.org/1999/xlink" xml:space="preserve" xmlns:serif="http://www.serif.com/" style="fill-rule:evenodd;clip-rule:evenodd;stroke-linejoin:round;stroke-miterlimit:2;">
    <g>
        <path d="M302.059,64.913L293.891,8.134L236.69,0.066L302.059,0.066L302.059,64.913Z" style="fill:rgb(179,10,49);fill-rule:nonzero;"></path>
        <path d="M287.625,64.906L281.26,20.665L236.69,14.375L287.625,14.375L287.625,64.906Z" style="fill:rgb(179,10,49);fill-rule:nonzero;"></path>
        <path d="M274.971,64.942L270.186,31.681L236.685,26.958L274.971,26.958L274.971,64.942Z" style="fill:rgb(179,10,49);fill-rule:nonzero;"></path>
        <path d="M1.29,14.607L7.204,14.607L14.301,35.646L14.373,35.646L21.254,14.607L27.276,14.607L27.276,41.13L22.939,41.13L22.939,21.345L22.868,21.345C22.473,23.173 21.9,24.893 21.291,26.757L16.129,41.13L12.15,41.13L7.025,26.757C6.38,24.858 5.985,23.71 5.412,21.166L5.34,21.166L5.34,41.13L1.29,41.13L1.29,14.607Z" style="fill:rgb(0,0,0);fill-rule:nonzero;"></path>
        <path d="M34.725,31.453L34.725,14.607L39.206,14.607L39.206,31.058C39.206,35.109 40.962,37.51 45.048,37.51C49.098,37.51 50.855,35.18 50.855,31.094L50.855,14.607L55.263,14.607L55.263,31.417C55.263,37.439 51.858,41.56 45.012,41.56C37.7,41.56 34.725,37.474 34.725,31.453Z" style="fill:rgb(0,0,0);fill-rule:nonzero;"></path>
        <path d="M62.712,14.607L67.265,14.607L79.81,33.532L79.881,33.532L79.881,14.607L84.039,14.607L84.039,41.13L79.953,41.13L66.942,21.811L66.87,21.811L66.87,41.13L62.712,41.13L62.712,14.607Z" style="fill:rgb(0,0,0);fill-rule:nonzero;"></path>
        <rect x="92.133" y="14.607" width="4.517" height="26.523" style="fill:rgb(0,0,0);fill-rule:nonzero;"></rect>
        <path d="M103.458,27.796C103.458,18.908 108.44,14.105 115.107,14.105C121.271,14.105 124.211,17.51 125.394,22.349L121.128,23.567C120.125,20.055 118.583,18.262 115.071,18.262C110.59,18.262 107.974,21.74 107.974,27.761C107.974,34.069 110.662,37.546 115.143,37.546C118.583,37.546 120.519,35.826 121.522,31.847L125.788,32.815C124.498,38.084 121.236,41.632 115.107,41.632C108.296,41.632 103.458,36.937 103.458,27.796Z" style="fill:rgb(0,0,0);fill-rule:nonzero;"></path>
        <path d="M132.234,14.607L136.714,14.607L136.714,25.18L148.758,25.18L148.758,14.607L153.239,14.607L153.239,41.13L148.758,41.13L148.758,29.338L136.714,29.338L136.714,41.13L132.234,41.13L132.234,14.607Z" style="fill:rgb(0,0,0);fill-rule:nonzero;"></path>
        <path d="M1.29,52.792L5.771,52.792L5.771,75.229L17.993,75.229L17.993,79.315L1.29,79.315L1.29,52.792Z" style="fill:rgb(179,10,49);fill-rule:nonzero;"></path>
        <path d="M23.795,52.792L40.928,52.792L40.928,56.949L28.275,56.949L28.275,63.544L37.559,63.544L37.559,67.523L28.275,67.523L28.275,75.229L41.645,75.229L41.645,79.315L23.795,79.315L23.795,52.792Z" style="fill:rgb(179,10,49);fill-rule:nonzero;"></path>
        <path d="M60.852,69.064L57.231,58.311L57.16,58.311L53.468,69.064L60.852,69.064ZM55.117,52.684L59.525,52.684L68.916,79.315L64.328,79.315L62.178,73.006L52.106,73.006L49.919,79.315L45.726,79.315L55.117,52.684Z" style="fill:rgb(179,10,49);fill-rule:nonzero;"></path>
        <path d="M82.567,75.3C88.625,75.3 91.456,72.648 91.456,65.946C91.456,59.566 88.589,56.949 82.496,56.949L79.09,56.949L79.09,75.3L82.567,75.3ZM74.61,52.792L82.173,52.792C90.488,52.792 95.937,56.663 95.937,65.946C95.937,75.408 90.381,79.315 82.173,79.315L74.61,79.315L74.61,52.792Z" style="fill:rgb(179,10,49);fill-rule:nonzero;"></path>
        <path d="M102.49,52.792L119.623,52.792L119.623,56.949L106.971,56.949L106.971,63.544L116.254,63.544L116.254,67.523L106.971,67.523L106.971,75.229L120.34,75.229L120.34,79.315L102.49,79.315L102.49,52.792Z" style="fill:rgb(179,10,49);fill-rule:nonzero;"></path>
        <path d="M135.855,64.942C139.583,64.942 141.59,64.01 141.59,60.856C141.59,57.809 139.619,56.877 135.819,56.877L130.945,56.877L130.945,64.942L135.855,64.942ZM126.536,52.792L136.034,52.792C142.343,52.792 145.999,55.336 145.999,60.749C145.999,64.978 143.813,67.379 140.121,68.275L146.357,79.315L141.555,79.315L135.604,68.849L130.945,68.849L130.945,79.315L126.536,79.315L126.536,52.792Z" style="fill:rgb(179,10,49);fill-rule:nonzero;"></path>
        <path d="M151.334,73.079L154.883,71.214C156.459,74.333 158.897,75.838 162.196,75.838C165.42,75.838 167.608,74.798 167.608,72.397C167.608,70.103 165.959,69.028 161.586,67.738C156.459,66.232 152.338,64.835 152.338,59.781C152.338,55.264 156.03,52.29 161.407,52.29C166.639,52.29 169.721,54.87 171.334,57.989L168.073,60.247C166.497,57.594 164.239,56.376 161.372,56.376C158.432,56.376 156.747,57.451 156.747,59.386C156.747,61.86 158.647,62.684 162.983,63.974C168.002,65.444 172.016,67.092 172.016,72.075C172.016,76.412 168.325,79.817 162.016,79.817C156.747,79.817 153.02,77.092 151.334,73.079Z" style="fill:rgb(179,10,49);fill-rule:nonzero;"></path>
        <path d="M178.678,52.792L183.159,52.792L183.159,63.365L195.202,63.365L195.202,52.792L199.682,52.792L199.682,79.315L195.202,79.315L195.202,67.523L183.159,67.523L183.159,79.315L178.678,79.315L178.678,52.792Z" style="fill:rgb(179,10,49);fill-rule:nonzero;"></path>
        <rect x="207.778" y="52.792" width="4.515" height="26.523" style="fill:rgb(179,10,49);fill-rule:nonzero;"></rect>
        <path d="M229.747,65.336C233.688,65.336 235.481,64.118 235.481,61.071C235.481,58.131 233.688,56.877 229.709,56.877L224.834,56.877L224.834,65.336L229.747,65.336ZM220.391,52.792L229.674,52.792C235.409,52.792 239.889,54.798 239.889,60.927C239.889,67.343 234.979,69.243 229.53,69.243L224.834,69.243L224.834,79.315L220.391,79.315L220.391,52.792Z" style="fill:rgb(179,10,49);fill-rule:nonzero;"></path>
        <path d="M0,104.129C0,95.634 4.624,90.473 11.685,90.473C16.703,90.473 20.395,92.803 21.972,98.825L17.814,99.935C16.631,95.957 14.803,94.63 11.649,94.63C8.495,94.63 4.516,96.566 4.516,104.022C4.516,111.441 8.064,113.985 11.828,113.985C15.34,113.985 17.742,111.906 18.029,108L12.688,108L12.688,104.38L22.33,104.38L22.33,117.498L18.638,117.498L18.638,113.663L18.566,113.663C17.742,115.563 15.412,118 11.326,118C3.728,118 0,112.23 0,104.129Z" style="fill:rgb(0,0,0);fill-rule:nonzero;"></path>
        <path d="M39.099,103.125C42.827,103.125 44.834,102.193 44.834,99.04C44.834,95.993 42.862,95.061 39.063,95.061L34.189,95.061L34.189,103.125L39.099,103.125ZM29.78,90.975L39.278,90.975C45.586,90.975 49.243,93.52 49.243,98.932C49.243,103.161 47.056,105.563 43.364,106.458L49.601,117.498L44.798,117.498L38.848,107.032L34.189,107.032L34.189,117.498L29.78,117.498L29.78,90.975Z" style="fill:rgb(0,0,0);fill-rule:nonzero;"></path>
        <path d="M73.537,104.236C73.537,98.001 70.562,94.595 66.118,94.595C61.601,94.595 58.627,98.001 58.627,104.236C58.627,110.473 61.601,113.949 66.118,113.949C70.562,113.949 73.537,110.473 73.537,104.236ZM54.11,104.236C54.11,95.312 59.379,90.473 66.118,90.473C72.82,90.473 78.053,95.312 78.053,104.236C78.053,113.161 72.82,118 66.118,118C59.379,118 54.11,113.161 54.11,104.236Z" style="fill:rgb(0,0,0);fill-rule:nonzero;"></path>
        <path d="M84.038,107.82L84.038,90.975L88.518,90.975L88.518,107.426C88.518,111.477 90.274,113.878 94.36,113.878C98.411,113.878 100.167,111.548 100.167,107.462L100.167,90.975L104.576,90.975L104.576,107.784C104.576,113.807 101.171,117.928 94.325,117.928C87.013,117.928 84.038,113.842 84.038,107.82Z" style="fill:rgb(0,0,0);fill-rule:nonzero;"></path>
        <path d="M121.381,103.52C125.324,103.52 127.116,102.301 127.116,99.254C127.116,96.315 125.324,95.061 121.345,95.061L116.47,95.061L116.47,103.52L121.381,103.52ZM112.026,90.975L121.309,90.975C127.044,90.975 131.524,92.982 131.524,99.111C131.524,105.526 126.614,107.426 121.166,107.426L116.47,107.426L116.47,117.498L112.026,117.498L112.026,90.975Z" style="fill:rgb(0,0,0);fill-rule:nonzero;"></path>
    </g>
</svg>